<svg xmlns="http://www.w3.org/2000/svg" xmlns:xlink="http://www.w3.org/1999/xlink" fill="none" version="1.1" width="28" height="28" viewBox="0 0 28 28"><path d="M11.992491992279053,20.17417422088379Q11.443317292279053,19.62499943088379,10.666666802279053,19.62499943088379Q9.890016563279053,19.62499943088379,9.340841682279052,20.17417416088379Q8.791666892279054,20.72334890488379,8.791666892279054,21.499998930883788Q8.791666892279054,22.27664943088379,9.340841532279052,22.82582423088379Q9.890016265279053,23.37499933088379,10.666666392279053,23.37499933088379Q11.443317092279052,23.37499933088379,11.992491692279053,22.825824730883788Q12.541666792279052,22.27665003088379,12.541666792279052,21.49999934088379Q12.541666792279052,20.72334905388379,11.992491992279053,20.17417422088379ZM10.813980702279054,21.64731342088379Q10.752961392279053,21.70833263088379,10.666666802279053,21.70833263088379Q10.580372332279053,21.70833263088379,10.519352912279054,21.64731324088379Q10.458333492279053,21.586293760883787,10.458333492279053,21.49999934088379Q10.458333492279053,21.41370481088379,10.519352972279053,21.35268533088379Q10.580372272279053,21.29166603088379,10.666666392279053,21.29166603088379Q10.752961392279053,21.29166603088379,10.813980882279052,21.352685510883788Q10.875000092279052,21.41370481088379,10.875000092279052,21.499998930883788Q10.875000092279052,21.58629393088379,10.813980702279054,21.64731342088379Z" fill-rule="evenodd" fill="#111111" fill-opacity="1"/><path d="M21.1591585,20.17417422088379Q20.6099838,19.62499943088379,19.83333331,19.62499943088379Q19.056683071,19.62499943088379,18.50750819,20.17417416088379Q17.9583334,20.72334890488379,17.9583334,21.499998930883788Q17.9583334,22.27664943088379,18.50750804,22.82582423088379Q19.056682773,23.37499933088379,19.8333329,23.37499933088379Q20.6099836,23.37499933088379,21.1591582,22.825824730883788Q21.7083333,22.27665003088379,21.7083333,21.49999934088379Q21.7083333,20.72334905388379,21.1591585,20.17417422088379ZM19.98064721,21.64731342088379Q19.919627900000002,21.70833263088379,19.83333331,21.70833263088379Q19.74703884,21.70833263088379,19.68601942,21.64731324088379Q19.625,21.586293760883787,19.625,21.49999934088379Q19.625,21.41370481088379,19.68601948,21.35268533088379Q19.74703878,21.29166603088379,19.8333329,21.29166603088379Q19.919627900000002,21.29166603088379,19.98064739,21.352685510883788Q20.0416666,21.41370481088379,20.0416666,21.499998930883788Q20.0416666,21.58629393088379,19.98064721,21.64731342088379Z" fill-rule="evenodd" fill="#111111" fill-opacity="1"/><path d="M9.555761792279053,10.916666992279053L10.610161292279052,15.839840492279052Q10.657337192279051,16.05975049227905,10.833818892279051,16.199171492279053Q11.010304492279053,16.338593492279053,11.235161792279053,16.33359049227905Q11.246746092279054,16.333333492279053,11.258333192279053,16.333333492279053L19.406651492279053,16.333335492279055Q19.626419492279055,16.332980492279052,19.79759849227905,16.195159492279053Q19.968779492279054,16.057336492279052,20.016441492279053,15.840841492279052L21.109966492279053,10.916666992279053L9.555761792279053,10.916666992279053ZM22.408334492279053,8.833333692279053L9.109572892279052,8.833333692279053L8.393568492279053,5.490186052279053Q8.374983792279053,5.403410642279053,8.341987892279054,5.321029542279053Q8.308991892279053,5.238648442279053,8.262536092279053,5.163036112279053Q8.216080192279053,5.087423802279053,8.157503392279052,5.0207595822790525Q8.098926592279053,4.954095362279053,8.029916992279052,4.898300652279053Q7.960907492279053,4.842505932279053,7.883454292279053,4.799188912279053Q7.806001192279053,4.755871892279052,7.722336492279053,4.726281042279052Q7.6386720922790525,4.6966901922790525,7.551207792279053,4.681678492279053Q7.4637435922790525,4.666666792279052,7.375000392279053,4.666666792279052L5.708333492279053,4.666666792279052L5.708333492279053,4.668541592279053Q5.6572517902790525,4.668541592279053,5.606416062279052,4.6735484922790524Q5.555580332279053,4.678555392279053,5.505480172279053,4.688520892279053Q5.455379962279053,4.698486492279053,5.406497832279053,4.7133146522790526Q5.357615712279053,4.728142912279052,5.310422362279053,4.7476910922790525Q5.263229012279052,4.767239212279053,5.218178992279053,4.791318892279053Q5.173128962279053,4.815398692279053,5.130656122279053,4.843778192279053Q5.088183162279053,4.872157572279053,5.0486965222790525,4.904563482279053Q5.009209752279053,4.936969342279053,4.9730895722790525,4.9730895722790525Q4.936969342279053,5.009209752279053,4.904563422279053,5.0486965222790525Q4.872157572279053,5.088183162279053,4.843778132279053,5.130656122279053Q4.815398632279052,5.173128962279053,4.791318892279053,5.218178992279053Q4.767239212279053,5.263229012279052,4.7476910922790525,5.310422362279053Q4.728142912279052,5.357615712279053,4.7133146522790526,5.406497832279053Q4.698486492279053,5.455379962279053,4.688520892279053,5.505480172279053Q4.678555392279053,5.555580332279053,4.6735484922790524,5.606416062279052Q4.668541592279053,5.6572517902790525,4.668541592279053,5.708333492279053Q4.668541592279053,5.759415194279053,4.6735484922790524,5.810250922279053Q4.678555392279053,5.861086652279052,4.688520892279053,5.911186812279053Q4.698486492279053,5.961287022279053,4.7133146522790526,6.010169152279053Q4.728142912279052,6.059051272279053,4.7476910922790525,6.1062446222790525Q4.767239212279053,6.153437972279053,4.791318892279053,6.198487992279053Q4.815398692279053,6.243538022279052,4.843778192279053,6.286010862279053Q4.872157572279053,6.328483822279052,4.904563482279053,6.367970462279053Q4.936969342279053,6.407457232279053,4.9730895722790525,6.443577412279053Q5.009209752279053,6.479697642279053,5.0486965222790525,6.512103562279052Q5.088183162279053,6.544509412279052,5.130656122279053,6.5728888522790525Q5.173128962279053,6.601268352279053,5.218178992279053,6.625348092279053Q5.263229012279052,6.6494277722790525,5.310422362279053,6.668975892279053Q5.357615712279053,6.688524072279053,5.406497832279053,6.703352332279053Q5.455379962279053,6.7181804922790525,5.505480172279053,6.728146092279053Q5.555580332279053,6.738111592279052,5.606416062279052,6.743118492279053Q5.6572517902790525,6.748125392279053,5.708333492279053,6.748125392279053L5.708333492279053,6.750000192279053L6.532805802279053,6.750000192279053L8.573172592279054,16.276826492279053Q8.777601192279054,17.22976249227905,9.542366292279052,17.833928492279053Q10.302113092279054,18.434127492279053,11.268731592279053,18.416666492279052L19.410014492279053,18.41666549227905Q20.362333492279053,18.415127492279055,21.104115492279053,17.817902492279053Q21.845895492279052,17.220674492279052,22.050227492279053,16.29249049227905L23.425227492279053,10.100824392279053Q23.450002492279054,9.989271192279052,23.450002492279054,9.875000492279053Q23.450002492279054,9.823827292279052,23.444987492279054,9.772899592279053Q23.439971492279053,9.721971992279052,23.429986492279053,9.671781092279053Q23.420003492279054,9.621590592279052,23.405148492279054,9.572620392279052Q23.390294492279054,9.523650192279053,23.370707492279053,9.476371292279053Q23.351125492279053,9.429093092279054,23.327003492279054,9.383961892279054Q23.30288049227905,9.338830492279053,23.27444749227905,9.296280892279054Q23.246018492279052,9.253731692279054,23.213553492279054,9.214173792279052Q23.181090492279054,9.174615892279053,23.144904492279053,9.138430592279052Q23.10872049227905,9.102245292279052,23.069161492279054,9.069781092279053Q23.02960349227905,9.037316592279053,22.987054492279054,9.008885892279054Q22.944505492279053,8.980455392279053,22.899373492279054,8.956332192279053Q22.85424149227905,8.932208992279053,22.80696249227905,8.912625592279053Q22.759683492279052,8.893042592279052,22.71071349227905,8.878187392279052Q22.661744492279052,8.863332792279053,22.611552492279053,8.853348992279052Q22.561362492279052,8.843365692279052,22.510434492279053,8.838349792279052Q22.459508492279053,8.833333992279053,22.408334492279053,8.833333692279053Z" fill-rule="evenodd" fill="#111111" fill-opacity="1"/></svg>