<svg xmlns="http://www.w3.org/2000/svg" xmlns:xlink="http://www.w3.org/1999/xlink" fill="none" version="1.1" width="20" height="20" viewBox="0 0 20 20"><defs><clipPath id="master_svg0_18_55391"><rect x="-1.0416666269302368" y="-1.0416666269302368" width="22.083333253860474" height="22.083333253860474" rx="0"/></clipPath></defs><g clip-path="url(#master_svg0_18_55391)"><ellipse cx="6.666666805744171" cy="17.499999344348907" rx="1.3541666269302368" ry="1.3541666269302368" fill="#000000" fill-opacity="0" style="mix-blend-mode:passthrough"/><ellipse cx="6.666666805744171" cy="17.499999344348907" rx="0.3125" ry="0.3125" fill-opacity="0" stroke-opacity="1" stroke="#111111" fill="none" stroke-width="2.0833332538604736" stroke-linecap="ROUND" stroke-linejoin="round" style="mix-blend-mode:passthrough"/><ellipse cx="15.833333313465118" cy="17.499999344348907" rx="1.3541666269302368" ry="1.3541666269302368" fill="#000000" fill-opacity="0" style="mix-blend-mode:passthrough"/><ellipse cx="15.833333313465118" cy="17.499999344348907" rx="0.3125" ry="0.3125" fill-opacity="0" stroke-opacity="1" stroke="#111111" fill="none" stroke-width="2.0833332538604736" stroke-linecap="ROUND" stroke-linejoin="round" style="mix-blend-mode:passthrough"/><path d="" fill="#000000" fill-opacity="0" style="mix-blend-mode:passthrough"/><path d="M5.555761973069764,6.916666873069763L6.610161173069764,11.839838373069764Q6.718549173069763,12.345086373069764,7.235161673069763,12.333591373069764Q7.246745973069763,12.333334373069762,7.258333073069763,12.333334373069762L15.406652373069763,12.333335373069763Q15.908195373069763,12.332526373069763,16.016440373069763,11.840843373069763L17.109963373069764,6.916666873069763L5.555761973069764,6.916666873069763ZM18.40833237306976,4.833333373069763L5.109572773069763,4.833333373069763L4.393568373069764,1.4901859430697633Q4.374983673069764,1.4034105530697631,4.341987773069763,1.3210294530697633Q4.3089917730697636,1.2386483530697632,4.262535973069763,1.1630360530697632Q4.216080073069763,1.0874237430697633,4.1575032730697625,1.020759583069763Q4.098926473069763,0.9540953630697632,4.029916873069763,0.8983006430697632Q3.9609073730697633,0.8425059330697632,3.8834541730697634,0.7991888530697632Q3.806000873069763,0.7558718930697632,3.7223363730697634,0.7262810430697632Q3.638671973069763,0.6966901730697632,3.5512076730697633,0.6816783730697631Q3.463743373069763,0.6666666730697632,3.375000073069763,0.6666666730697632L1.7083333730697632,0.6666667730697631L1.7083333730697632,0.6685414730697632Q1.6572516710697631,0.6685414730697632,1.606415943069763,0.6735483730697631Q1.5555802130697631,0.6785552730697633,1.5054800530697632,0.6885207730697631Q1.455379843069763,0.6984863730697632,1.4064977130697631,0.7133145330697632Q1.357615593069763,0.7281427930697632,1.3104222430697632,0.7476909730697632Q1.2632288930697633,0.7672390930697632,1.2181788730697631,0.7913187730697632Q1.173128843069763,0.8153985730697632,1.1306560030697632,0.8437780730697632Q1.0881830430697632,0.8721574530697632,1.0486964030697632,0.9045633630697631Q1.009209633069763,0.9369692230697632,0.9730894530697631,0.9730894530697631Q0.9369692230697632,1.009209633069763,0.9045633030697632,1.0486964030697632Q0.8721574530697632,1.0881830430697632,0.8437780130697632,1.1306560030697632Q0.8153985130697632,1.173128843069763,0.7913187730697632,1.2181788730697631Q0.7672390930697632,1.2632288930697633,0.7476909730697632,1.3104222430697632Q0.7281427930697632,1.357615593069763,0.7133145330697632,1.4064977130697631Q0.6984863730697632,1.455379843069763,0.6885207730697631,1.5054800530697632Q0.6785552730697633,1.5555802130697631,0.6735483730697631,1.606415943069763Q0.6685414730697632,1.6572516710697631,0.6685414730697632,1.7083333730697632Q0.6685414730697632,1.7594150750697632,0.6735483730697631,1.8102508030697633Q0.6785552730697633,1.8610865330697632,0.6885207730697631,1.9111866930697632Q0.6984863730697632,1.9612869030697633,0.7133145330697632,2.0101690330697632Q0.7281427930697632,2.0590511530697633,0.7476909730697632,2.106244503069763Q0.7672390930697632,2.153437853069763,0.7913187730697632,2.1984878730697632Q0.8153985730697632,2.2435379030697633,0.8437780730697632,2.286010743069763Q0.8721574530697632,2.328483703069763,0.9045633630697631,2.3679703430697634Q0.9369692230697632,2.4074571130697633,0.9730894530697631,2.4435772930697635Q1.009209633069763,2.4796975230697633,1.0486964030697632,2.5121034430697633Q1.0881830430697632,2.5445092930697633,1.1306560030697632,2.572888733069763Q1.173128843069763,2.601268233069763,1.2181788730697631,2.625347973069763Q1.2632288930697633,2.649427653069763,1.3104222430697632,2.6689757730697634Q1.357615593069763,2.688523953069763,1.4064977130697631,2.7033522130697634Q1.455379843069763,2.718180373069763,1.5054800530697632,2.728145973069763Q1.5555802130697631,2.738111473069763,1.606415943069763,2.7431183730697635Q1.6572516710697631,2.748125273069763,1.7083333730697632,2.748125273069763L1.7083333730697632,2.7499999730697633L2.532805623069763,2.7499999730697633L4.5731721730697625,12.276823373069764Q4.777600673069763,13.229760373069762,5.542364673069763,13.833924373069763Q6.302090973069763,14.434109373069763,7.268677073069763,14.416668373069763L15.410012373069764,14.416666373069763Q16.362334373069764,14.415130373069763,17.104115373069764,13.817902373069764Q17.845893373069764,13.220675373069763,18.050227373069763,12.292491373069764L19.425225373069765,6.100823773069763Q19.450000373069763,5.9892705730697635,19.450000373069763,5.874999873069763Q19.450000373069763,5.823826173069763,19.444985373069763,5.772899073069763Q19.439969373069765,5.7219713730697634,19.429984373069765,5.671780273069763Q19.420001373069763,5.621589973069764,19.405145373069765,5.572619773069763Q19.390290373069764,5.523649573069763,19.370706373069762,5.476370973069763Q19.351125373069763,5.429092773069764,19.327001373069763,5.383961573069763Q19.302876373069765,5.338830373069763,19.274446373069765,5.296280473069763Q19.246016373069764,5.253731373069764,19.213552373069763,5.214173673069763Q19.181088373069763,5.174615773069763,19.144900373069763,5.138430273069764Q19.108716373069765,5.102245173069763,19.06915837306976,5.069780673069763Q19.029599373069765,5.0373161730697635,18.98704837306976,5.008885473069763Q18.944501373069762,4.980454773069763,18.899369373069764,4.956331873069763Q18.854238373069762,4.932208673069763,18.80695837306976,4.912625173069763Q18.759681373069764,4.893041973069764,18.710711373069763,4.878187273069763Q18.66174037306976,4.863332173069763,18.611550373069765,4.853348573069763Q18.561360373069764,4.843365273069763,18.51043237306976,4.838349273069763Q18.459506373069765,4.833333373069763,18.40833237306976,4.833333373069763Z" fill-rule="evenodd" fill="#111111" fill-opacity="1" style="mix-blend-mode:passthrough"/></g></svg>