<svg xmlns="http://www.w3.org/2000/svg" xmlns:xlink="http://www.w3.org/1999/xlink" fill="none" version="1.1" width="28" height="28" viewBox="0 0 28 28"><defs><clipPath id="master_svg0_1_5"><rect x="27" y="-1" width="30" height="30" rx="0"/></clipPath></defs><g transform="matrix(-1,0,0,1,56,0)" clip-path="url(#master_svg0_1_5)"><path d="M33.83325004577637,15L50.166599045776366,15L50.166599045776366,14.99980003Q50.26507004577637,14.99979997,50.36164904577637,14.98058909Q50.45822704577637,14.96137822,50.549204045776364,14.92369473Q50.640181045776366,14.88601124,50.72205504577637,14.8313033Q50.803934045776366,14.776595350000001,50.87356404577636,14.70696533Q50.94319304577637,14.6373353,50.99790004577637,14.55545908Q51.05260704577637,14.47358286,51.090292045776366,14.38260686Q51.12797504577637,14.29163089,51.147186045776365,14.1950513Q51.166399045776366,14.098471709,51.166399045776366,14Q51.166399045776366,13.901528291,51.147186045776365,13.8049487Q51.12797504577637,13.70836911,51.090292045776366,13.61739314Q51.05260704577637,13.52641714,50.99790004577637,13.44454092Q50.94319304577637,13.3626647,50.87356404577636,13.29303467Q50.803934045776366,13.223404649999999,50.72205504577637,13.16869676Q50.640181045776366,13.11398882,50.549204045776364,13.07630533Q50.45822704577637,13.03862178,50.36164904577637,13.01941091Q50.26507004577637,13.00020003,50.166599045776366,13.00019997L50.166599045776366,13L33.83325004577637,13L33.83325004577637,13.00019997Q33.734778336776365,13.00020003,33.638198745776364,13.01941091Q33.54161915577637,13.03862178,33.450643185776364,13.07630527Q33.35966718577637,13.11398876,33.27779096577637,13.1686967Q33.19591474577637,13.223404649999999,33.126284715776364,13.29303467Q33.056654695776366,13.3626647,33.00194680577637,13.44454092Q32.94723886577637,13.52641714,32.909555375776364,13.61739314Q32.87187182577637,13.70836911,32.852660955776365,13.8049487Q32.83345007577637,13.901528291,32.833450015776364,14Q32.83345007577637,14.098471709,32.852660955776365,14.1950513Q32.87187182577637,14.29163089,32.909555315776366,14.38260686Q32.947238805776365,14.47358286,33.001946745776365,14.55545908Q33.056654695776366,14.6373353,33.126284715776364,14.70696533Q33.19591474577637,14.776595350000001,33.27779096577637,14.83130324Q33.35966718577637,14.88601118,33.450643185776364,14.92369467Q33.54161915577637,14.96137822,33.638198745776364,14.98058909Q33.734778336776365,14.99979997,33.83325004577637,14.99980003L33.83325004577637,15Z" fill-rule="evenodd" fill="#000000" fill-opacity="1" style="mix-blend-mode:passthrough"/><path d="M34.54021286577637,13.29303211L34.540354255776364,13.29289073L41.54040334577637,20.2928901L41.54026224577637,20.2930312Q41.68088774577637,20.4336557,41.756993245776364,20.6173911Q41.83309984577637,20.8011265,41.83309984577637,21Q41.83309934577637,21.0984712,41.813888545776365,21.1950507Q41.79467774577637,21.2916298,41.75699424577637,21.382606Q41.71931074577637,21.4735823,41.66460324577637,21.5554585Q41.609895245776364,21.637334799999998,41.540265045776366,21.7069654Q41.47063444577637,21.7765956,41.388758145776364,21.8313036Q41.30688194577637,21.8860111,41.21590564577637,21.9236941Q41.12492944577637,21.9613776,41.028350845776366,21.980588400000002Q40.93177124577637,21.9997997,40.833299645776364,21.9998002Q40.63442754577637,21.9997997,40.450694045776366,21.9236951Q40.266960145776366,21.8475904,40.126336145776364,21.7069678L40.12619544577637,21.7071085L33.12614583577637,14.70710927L33.126287225776366,14.70696789Q32.985661865776365,14.56634361,32.909555915776366,14.38260859Q32.833449955776366,14.19887353,32.833450015776364,14Q32.83345007577637,13.901528291,32.852660955776365,13.8049487Q32.87187182577637,13.70836911,32.909555315776366,13.61739314Q32.947238805776365,13.52641714,33.001946745776365,13.44454092Q33.056654695776366,13.3626647,33.126284715776364,13.29303467Q33.19591474577637,13.223404649999999,33.27779096577637,13.16869676Q33.35966718577637,13.11398882,33.450643185776364,13.07630533Q33.54161915577637,13.03862178,33.638198745776364,13.01941091Q33.734778336776365,13.00020003,33.83325004577637,13.00019997Q34.03212170577637,13.00019997,34.215855295776365,13.07630455Q34.39958888577637,13.15240908,34.54021286577637,13.29303211Z" fill-rule="evenodd" fill="#000000" fill-opacity="1" style="mix-blend-mode:passthrough"/><path d="M41.54026224577637,7.7069681899999996Q41.68088724577637,7.5663439,41.756993245776364,7.38260877Q41.83309934577637,7.19887364,41.83309984577637,7Q41.83309934577637,6.901528291,41.813888545776365,6.8049487Q41.79467774577637,6.70836911,41.75699424577637,6.61739314Q41.71931074577637,6.52641714,41.66460324577637,6.44454092Q41.609895245776364,6.3626647,41.540265045776366,6.29303467Q41.47063444577637,6.22340465,41.388758145776364,6.16869676Q41.30688194577637,6.11398882,41.21590564577637,6.07630533Q41.12492944577637,6.03862178,41.028350845776366,6.0194109099999995Q40.93177124577637,6.00020003,40.833299645776364,6.00019997Q40.63442804577637,6.00019997,40.450694545776365,6.07630455Q40.266961145776364,6.15240908,40.12633654577637,6.29303205L40.12619544577637,6.29289073L33.12614583577637,13.292890100000001L33.126287455776364,13.2930317Q32.98566198577637,13.4336562,32.90955603577637,13.617391600000001Q32.833450015776364,13.801126499999999,32.833450015776364,14Q32.83345007577637,14.098471199999999,32.852660955776365,14.1950507Q32.87187182577637,14.291629799999999,32.909555315776366,14.382606Q32.947238805776365,14.4735823,33.001946745776365,14.5554585Q33.056654695776366,14.6373348,33.126284715776364,14.7069654Q33.19591474577637,14.7765956,33.27779096577637,14.8313036Q33.35966718577637,14.886011100000001,33.450643185776364,14.923694099999999Q33.54161915577637,14.961377599999999,33.638198745776364,14.9805884Q33.734778336776365,14.9997997,33.83325004577637,14.9998002Q34.03212185577637,14.9997997,34.215855565776366,14.9236951Q34.399589295776366,14.8475904,34.540213345776365,14.7069674L34.540354255776364,14.7071085L41.54040334577637,7.70710927L41.54026224577637,7.7069681899999996Z" fill-rule="evenodd" fill="#000000" fill-opacity="1" style="mix-blend-mode:passthrough"/></g></svg>