<svg width="19" height="18" viewBox="0 0 19 18" fill="none" xmlns="http://www.w3.org/2000/svg">
<path fill-rule="evenodd" clip-rule="evenodd" d="M8.73116 13.958C7.70603 14.9831 6.04397 14.9831 5.01884 13.958C3.99372 12.9329 3.99372 11.2708 5.01884 10.2457L11.648 3.61659C12.2338 3.0308 13.1835 3.0308 13.7693 3.61659C14.3551 4.20237 14.3551 5.15212 13.7693 5.73791L7.14016 12.367C6.99372 12.5135 6.75628 12.5135 6.60983 12.367C6.46339 12.2206 6.46339 11.9831 6.60983 11.8367L12.7086 5.73791L11.648 4.67725L5.54917 10.776C4.81694 11.5083 4.81694 12.6955 5.54917 13.4277C6.28141 14.1599 7.46859 14.1599 8.20082 13.4277L14.83 6.79857C16.0015 5.62699 16.0015 3.7275 14.83 2.55593C13.6584 1.38435 11.7589 1.38435 10.5873 2.55593L3.95818 9.18505C2.34727 10.796 2.34727 13.4078 3.95818 15.0187C5.5691 16.6296 8.1809 16.6296 9.79181 15.0187L15.8906 8.91989L14.83 7.85923L8.73116 13.958Z" fill="#333333"/>
</svg>
