<svg width="28" height="28" viewBox="0 0 28 28" fill="none" xmlns="http://www.w3.org/2000/svg">
<g clip-path="url(#clip0_703_2672)">
<path d="M4.66662 7C4.66662 7.92826 5.64995 8.8185 7.40029 9.47487C9.15063 10.1313 11.5246 10.5 14 10.5C16.4753 10.5 18.8493 10.1313 20.5996 9.47487C22.35 8.8185 23.3333 7.92826 23.3333 7C23.3333 6.07174 22.35 5.1815 20.5996 4.52513C18.8493 3.86875 16.4753 3.5 14 3.5C11.5246 3.5 9.15063 3.86875 7.40029 4.52513C5.64995 5.1815 4.66662 6.07174 4.66662 7Z" stroke="black" stroke-width="2" stroke-linecap="round" stroke-linejoin="round"/>
<path d="M4.66662 7V14C4.66662 14.9283 5.64995 15.8185 7.40029 16.4749C9.15063 17.1313 11.5246 17.5 14 17.5C16.4753 17.5 18.8493 17.1313 20.5996 16.4749C22.35 15.8185 23.3333 14.9283 23.3333 14V7" stroke="black" stroke-width="2" stroke-linecap="round" stroke-linejoin="round"/>
<path d="M4.66662 14V21C4.66662 21.9283 5.64995 22.8185 7.40029 23.4749C9.15063 24.1313 11.5246 24.5 14 24.5C16.4753 24.5 18.8493 24.1313 20.5996 23.4749C22.35 22.8185 23.3333 21.9283 23.3333 21V14" stroke="black" stroke-width="2" stroke-linecap="round" stroke-linejoin="round"/>
</g>
<defs>
<clipPath id="clip0_703_2672">
<rect width="28" height="28" fill="white"/>
</clipPath>
</defs>
</svg>
