<svg width="28" height="28" viewBox="0 0 28 28" fill="none" xmlns="http://www.w3.org/2000/svg">
<g clip-path="url(#clip0_678_2141)">
<path d="M11.6667 14.0001C11.6667 14.6189 11.9126 15.2124 12.3502 15.65C12.7878 16.0876 13.3812 16.3334 14.0001 16.3334C14.6189 16.3334 15.2124 16.0876 15.65 15.65C16.0876 15.2124 16.3334 14.6189 16.3334 14.0001C16.3334 13.3812 16.0876 12.7878 15.65 12.3502C15.2124 11.9126 14.6189 11.6667 14.0001 11.6667C13.3812 11.6667 12.7878 11.9126 12.3502 12.3502C11.9126 12.7878 11.6667 13.3812 11.6667 14.0001Z" stroke="black" stroke-width="2" stroke-linecap="round" stroke-linejoin="round"/>
<path d="M17.4999 17.5H18.0832C21.6275 17.5 24.4999 15.9332 24.4999 14C24.4999 12.0668 21.6275 10.5 18.0832 10.5C15.9412 10.5 14.0442 11.0717 12.8799 11.9525" stroke="black" stroke-width="2" stroke-linecap="round" stroke-linejoin="round"/>
<path d="M10.5 10.5H9.91667C6.37233 10.5 3.5 12.0668 3.5 14C3.5 15.9332 6.37233 17.5 9.91667 17.5C12.068 17.5 13.972 16.9225 15.1363 16.0358" stroke="black" stroke-width="2" stroke-linecap="round" stroke-linejoin="round"/>
<path d="M17.5 10.5V9.91667C17.5 6.37233 15.9332 3.5 14 3.5C12.0668 3.5 10.5 6.37233 10.5 9.91667C10.5 12.0552 11.0717 13.9498 11.9478 15.1153" stroke="black" stroke-width="2" stroke-linecap="round" stroke-linejoin="round"/>
<path d="M10.5 17.5001V18.0834C10.5 21.6277 12.0668 24.5001 14 24.5001C15.9332 24.5001 17.5 21.6277 17.5 18.0834C17.5 15.9344 16.9237 14.0327 16.0393 12.8684" stroke="black" stroke-width="2" stroke-linecap="round" stroke-linejoin="round"/>
</g>
<defs>
<clipPath id="clip0_678_2141">
<rect width="28" height="28" fill="white"/>
</clipPath>
</defs>
</svg>
