<svg xmlns="http://www.w3.org/2000/svg" xmlns:xlink="http://www.w3.org/1999/xlink" fill="none" version="1.1" width="22" height="22" viewBox="0 0 22 22"><path d="M17.146873,6.1468734099999995Q17.275545,6.0182023000000004,17.345181,5.85008538Q17.414817,5.68196844,17.414817,5.5Q17.414816000000002,5.409898393,17.397238,5.32152808Q17.37966,5.23315775,17.34518,5.14991471Q17.310699,5.06667167,17.260641,4.99175489Q17.210583,4.91683817,17.146872000000002,4.8531267Q17.08316,4.78941524,17.008243999999998,4.73935753Q16.933327,4.68929976,16.850084000000003,4.65481937Q16.766842,4.62033898,16.678471000000002,4.60276097Q16.590101,4.58518302,16.5,4.58518296Q16.318030999999998,4.58518302,16.149915,4.65481925Q15.981798,4.7244556,15.853127,4.8531265900000005L15.851819,4.8518188L4.8518188,15.851819L4.8531265900000005,15.853127Q4.7244556,15.981798,4.65481925,16.149915Q4.58518302,16.318030999999998,4.58518296,16.5Q4.58518302,16.590101,4.60276103,16.678472Q4.62033898,16.766842,4.65481937,16.850084000000003Q4.68929976,16.933327,4.73935747,17.008245000000002Q4.78941524,17.08316,4.8531267,17.146873Q4.91683817,17.210584,4.99175489,17.260641Q5.06667167,17.310699,5.14991471,17.345179Q5.23315775,17.37966,5.32152808,17.397238Q5.409898393,17.414816000000002,5.5,17.414817Q5.68196844,17.414817,5.85008538,17.345181Q6.0182023000000004,17.275545,6.1468734099999995,17.146873L6.1481812,17.148181L17.148181,6.1481812L17.146873,6.1468734099999995Z" fill-rule="evenodd" fill="#D1D5DB" fill-opacity="1"/><path d="M4.85312665,6.14687335Q4.7244556,6.01820225,4.65481925,5.85008532Q4.58518296,5.68196841,4.58518296,5.5Q4.58518302,5.409898393,4.60276103,5.32152808Q4.62033898,5.23315775,4.65481937,5.14991471Q4.68929976,5.06667167,4.73935747,4.99175489Q4.78941524,4.91683817,4.8531267,4.8531267Q4.91683817,4.78941524,4.99175489,4.73935753Q5.06667167,4.68929976,5.14991471,4.65481937Q5.23315775,4.62033898,5.32152808,4.60276097Q5.409898393,4.58518302,5.5,4.58518296Q5.68196841,4.58518296,5.85008532,4.65481925Q6.01820225,4.7244556,6.14687335,4.85312665L6.1481812,4.8518188L17.148181,15.851819L17.146873,15.853127Q17.275545,15.981798,17.345181,16.149915Q17.414817,16.318030999999998,17.414817,16.5Q17.414816000000002,16.590101,17.397238,16.678472Q17.37966,16.766842,17.34518,16.850084000000003Q17.310699,16.933327,17.260641,17.008245000000002Q17.210583,17.08316,17.146872000000002,17.146873Q17.08316,17.210584,17.008243999999998,17.260641Q16.933327,17.310699,16.850084000000003,17.345179Q16.766842,17.37966,16.678471000000002,17.397238Q16.590101,17.414816000000002,16.5,17.414817Q16.318030999999998,17.414817,16.149915,17.345181Q15.981798,17.275545,15.853127,17.146873L15.851819,17.148181L4.8518188,6.1481812L4.85312665,6.14687335Z" fill-rule="evenodd" fill="#D1D5DB" fill-opacity="1"/></svg>