<svg xmlns="http://www.w3.org/2000/svg" xmlns:xlink="http://www.w3.org/1999/xlink" fill="none" version="1.1" width="20" height="20" viewBox="0 0 20 20"><defs><clipPath id="master_svg0_18_55399"><rect x="-1.0416666269302368" y="-1.0416666269302368" width="22.083333253860474" height="22.083333253860474" rx="0"/></clipPath></defs><g clip-path="url(#master_svg0_18_55399)"><path d="" fill="#000000" fill-opacity="0" style="mix-blend-mode:passthrough"/><path d="M3.442685126930237,12.4156132L9.263430226930236,18.236569Q9.299616026930238,18.272755,9.339173926930236,18.30522Q9.378731326930236,18.337684,9.421280526930236,18.366114Q9.463830126930237,18.394545,9.508961326930237,18.418667Q9.554092526930237,18.442788999999998,9.601370426930238,18.462372000000002Q9.648649326930236,18.481956,9.697619126930237,18.496811Q9.746589326930236,18.511665,9.796779226930237,18.52165Q9.846970226930237,18.531633,9.897898326930237,18.53665Q9.948825526930237,18.541666,9.999998726930237,18.541666Q10.051172826930237,18.541666,10.102100926930238,18.53665Q10.153028126930236,18.531633,10.203218126930237,18.52165Q10.253409026930237,18.511665,10.302378326930237,18.496811Q10.351349426930236,18.481956,10.398626926930238,18.462373Q10.445906326930237,18.442791,10.491037926930236,18.418667Q10.536169626930237,18.394545,10.578718826930237,18.366113Q10.621267926930237,18.337683,10.660826326930238,18.30522Q10.700384726930237,18.272755,10.736569026930237,18.236569L16.56990162693024,12.4032364Q19.374998626930235,9.6546917,19.374998626930235,7.0833335Q19.374996626930237,4.7533801,17.72747462693024,3.10585773Q16.07995162693024,1.4583336,13.750001626930237,1.4583338Q11.693410626930238,1.4583335,9.999998726930237,2.77701914Q8.306590626930237,1.4583334,6.250000126930237,1.4583334Q3.920048626930237,1.4583329,2.2725240569302367,3.10585737Q0.6249996269302369,4.7533817,0.6249990269302368,7.0833335Q0.6250000269302367,9.691850200000001,3.442685126930237,12.4156132ZM9.999986326930237,16.026874L15.096763626930237,10.9300976Q17.291666626930237,8.779309699999999,17.291666626930237,7.0833335Q17.291664626930235,5.6163266,16.254335626930235,4.578996699999999Q15.217007626930236,3.541667,13.750001626930237,3.5416670999999997Q12.098138626930236,3.5416666,10.736569026930237,4.9032359Q10.590056026930236,5.0497487,10.398626926930238,5.129041Q10.207198726930237,5.208333,9.999998726930237,5.2083333Q9.792798626930237,5.2083333,9.601370426930238,5.1290412Q9.409942726930236,5.0497489,9.263430226930236,4.9032362Q7.9018618269302365,3.5416666,6.250000126930237,3.5416666Q4.782993626930237,3.5416664,3.7456633269302366,4.578996699999999Q2.7083328269302367,5.616327,2.708332426930237,7.0833344Q2.708333226930237,8.808150300000001,4.890648026930236,10.9177208L9.999986326930237,16.026874Z" fill-rule="evenodd" fill="#111111" fill-opacity="1" style="mix-blend-mode:passthrough"/></g></svg>