<svg width="19" height="18" viewBox="0 0 19 18" fill="none" xmlns="http://www.w3.org/2000/svg">
<g clip-path="url(#clip0_481_31397)">
<path d="M5.495 13.14C4.82121 12.8047 4.22737 12.3285 3.75376 11.7436C3.28015 11.1587 2.93783 10.4788 2.75 9.75C4.25 9.75 5 9 5 7.8675C5 4.9275 6.6875 2.25 10.535 2.25C14 2.25 16.25 4.8825 16.25 8.25C16.2549 9.22072 16.0264 10.1784 15.584 11.0424C15.1415 11.9065 14.498 12.6516 13.7075 13.215" stroke="black" stroke-width="1.28571" stroke-linecap="round" stroke-linejoin="round"/>
<path d="M8 14.0176C8.82328 14.1731 9.65969 14.2484 10.4975 14.2426H10.9025" stroke="black" stroke-width="1.28571" stroke-linecap="round" stroke-linejoin="round"/>
<path d="M11 14.25C11 14.6478 11.158 15.0294 11.4393 15.3107C11.7206 15.592 12.1022 15.75 12.5 15.75C12.8978 15.75 13.2794 15.592 13.5607 15.3107C13.842 15.0294 14 14.6478 14 14.25C14 13.8522 13.842 13.4706 13.5607 13.1893C13.2794 12.908 12.8978 12.75 12.5 12.75C12.1022 12.75 11.7206 12.908 11.4393 13.1893C11.158 13.4706 11 13.8522 11 14.25Z" stroke="black" stroke-width="1.28571" stroke-linecap="round" stroke-linejoin="round"/>
<path d="M5 14.25C5 14.6478 5.15804 15.0294 5.43934 15.3107C5.72064 15.592 6.10218 15.75 6.5 15.75C6.89782 15.75 7.27936 15.592 7.56066 15.3107C7.84196 15.0294 8 14.6478 8 14.25C8 13.8522 7.84196 13.4706 7.56066 13.1893C7.27936 12.908 6.89782 12.75 6.5 12.75C6.10218 12.75 5.72064 12.908 5.43934 13.1893C5.15804 13.4706 5 13.8522 5 14.25Z" stroke="black" stroke-width="1.28571" stroke-linecap="round" stroke-linejoin="round"/>
<path d="M12.5 6.75H12.5075" stroke="black" stroke-width="1.28571" stroke-linecap="round" stroke-linejoin="round"/>
<path d="M8.75 6.75H8.7575" stroke="black" stroke-width="1.28571" stroke-linecap="round" stroke-linejoin="round"/>
</g>
<defs>
<clipPath id="clip0_481_31397">
<rect width="18" height="18" fill="white" transform="translate(0.5)"/>
</clipPath>
</defs>
</svg>
