<svg width="57" height="56" viewBox="0 0 57 56" fill="none" xmlns="http://www.w3.org/2000/svg">
<path d="M38.0806 17.1324C39.1867 17.1321 40.2477 17.5704 41.0311 18.3513L47.3608 24.6688C47.7474 25.0541 48.0541 25.5119 48.2636 26.016C48.473 26.52 48.581 27.0604 48.5814 27.6062V37.7737C48.581 38.0694 48.5223 38.3621 48.4086 38.6352C48.295 38.9082 48.1287 39.1562 47.9192 39.3649C47.7098 39.5737 47.4612 39.7391 47.1878 39.8518C46.9144 39.9644 46.6214 40.0221 46.3257 40.0215H42.9158C42.5638 38.6538 41.7669 37.4421 40.6506 36.577C39.5343 35.7119 38.162 35.2427 36.7497 35.2432C35.3375 35.2426 33.9653 35.7117 32.849 36.5766C31.7327 37.4415 30.9357 38.6531 30.5836 40.0207H23.7629C23.4108 38.6531 22.6138 37.4415 21.4975 36.5766C20.3812 35.7117 19.009 35.2426 17.5968 35.2432C16.1847 35.2426 14.8124 35.7117 13.6961 36.5766C12.5798 37.4415 11.7829 38.6531 11.4307 40.0207H10.8934C10.5978 40.0212 10.3049 39.9636 10.0315 39.851C9.75817 39.7384 9.50966 39.573 9.3002 39.3644C9.09073 39.1557 8.92441 38.9078 8.81074 38.6349C8.69707 38.362 8.63827 38.0693 8.63769 37.7737V31.5848H27.2927C29.2177 31.5848 30.7831 30.0273 30.7831 28.0988V17.1324H38.0806ZM43.2553 16.1218C41.8817 14.7517 40.0207 13.9823 38.0806 13.9824H29.2081C28.7904 13.9824 28.3897 14.1484 28.0944 14.4437C27.799 14.7391 27.6331 15.1397 27.6331 15.5574V28.0997C27.6331 28.2817 27.4843 28.4357 27.2927 28.4357H7.06269C6.64498 28.4357 6.24437 28.6016 5.949 28.897C5.65363 29.1923 5.48769 29.593 5.48769 30.0107V37.7745C5.48769 40.7583 7.91144 43.1724 10.8934 43.1724H12.8088C13.2265 43.1724 13.6271 43.0065 13.9225 42.7111C14.2179 42.4157 14.3838 42.0151 14.3838 41.5974C14.3838 39.8308 15.8188 38.394 17.5968 38.394C18.0181 38.3934 18.4353 38.4756 18.8248 38.6362C19.2142 38.7968 19.5682 39.0325 19.8666 39.3299C20.1649 39.6272 20.4018 39.9805 20.5636 40.3694C20.7255 40.7583 20.8091 41.1753 20.8098 41.5965C20.8098 42.0143 20.9758 42.4149 21.2711 42.7102C21.5665 43.0056 21.9671 43.1715 22.3848 43.1715H31.9608C32.3785 43.1715 32.7791 43.0056 33.0745 42.7102C33.3699 42.4149 33.5358 42.0143 33.5358 41.5965C33.5358 39.8308 34.9717 38.394 36.7497 38.394C37.1709 38.3934 37.5882 38.4756 37.9776 38.6362C38.3671 38.7968 38.7211 39.0325 39.0195 39.3299C39.3178 39.6272 39.5547 39.9805 39.7165 40.3694C39.8784 40.7583 39.962 41.1753 39.9627 41.5965C39.9627 42.0143 40.1286 42.4149 40.424 42.7102C40.7194 43.0056 41.12 43.1715 41.5377 43.1715H46.3257C47.035 43.1721 47.7375 43.033 48.393 42.7621C49.0486 42.4912 49.6444 42.0938 50.1463 41.5926C50.6483 41.0915 51.0466 40.4963 51.3186 39.8412C51.5906 39.1861 51.7309 38.4839 51.7314 37.7745V27.607C51.7314 25.668 50.9597 23.8087 49.5859 22.4384L43.2562 16.1209L43.2553 16.1218Z" fill="#FF6A00"/>
<path d="M36.8368 38.3248C37.258 38.3241 37.6753 38.4064 38.0647 38.567C38.4542 38.7275 38.8082 38.9632 39.1065 39.2606C39.4049 39.558 39.6418 39.9112 39.8036 40.3001C39.9654 40.6891 40.0491 41.1061 40.0498 41.5273C40.0498 43.2931 38.6148 44.7307 36.8368 44.7307C36.4155 44.7314 35.9983 44.6491 35.6088 44.4885C35.2194 44.3279 34.8654 44.0922 34.567 43.7949C34.2687 43.4975 34.0318 43.1442 33.87 42.7553C33.7081 42.3664 33.6245 41.9494 33.6238 41.5282C33.6238 39.7624 35.0588 38.3248 36.8368 38.3248ZM43.1998 41.5273C43.1998 38.0159 40.3473 35.1748 36.8368 35.1748C33.3254 35.1748 30.4738 38.0159 30.4738 41.5273C30.4738 45.0396 33.3263 47.8807 36.8368 47.8807C40.3482 47.8807 43.1998 45.0396 43.1998 41.5282V41.5273ZM17.5868 38.3248C18.008 38.3241 18.4253 38.4064 18.8147 38.567C19.2042 38.7275 19.5582 38.9632 19.8565 39.2606C20.1549 39.558 20.3918 39.9112 20.5536 40.3001C20.7154 40.6891 20.7991 41.1061 20.7998 41.5273C20.7998 43.2931 19.3648 44.7307 17.5868 44.7307C17.1655 44.7314 16.7483 44.6491 16.3588 44.4885C15.9694 44.3279 15.6154 44.0922 15.317 43.7949C15.0187 43.4975 14.7818 43.1442 14.62 42.7553C14.4581 42.3664 14.3745 41.9494 14.3738 41.5282C14.3738 39.7624 15.8088 38.3248 17.5868 38.3248ZM23.9498 41.5273C23.9498 38.0159 21.0973 35.1748 17.5868 35.1748C14.0754 35.1748 11.2229 38.0159 11.2229 41.5273C11.2229 45.0396 14.0754 47.8807 17.5868 47.8807C21.0982 47.8807 23.9498 45.0396 23.9498 41.5282V41.5273ZM37.7135 20.7627C37.4185 21.0583 37.253 21.4589 37.2534 21.8765C37.2537 22.2941 37.4198 22.6944 37.7153 22.9896L41.6064 26.8719C41.7516 27.0232 41.9256 27.1439 42.1181 27.227C42.3106 27.3101 42.5177 27.3539 42.7274 27.3559C42.937 27.3579 43.145 27.318 43.339 27.2386C43.5331 27.1592 43.7093 27.0418 43.8574 26.8934C44.0055 26.7449 44.1224 26.5684 44.2014 26.3742C44.2804 26.18 44.3198 25.9719 44.3173 25.7623C44.3148 25.5526 44.2705 25.3456 44.1869 25.1533C44.1033 24.961 43.9822 24.7873 43.8307 24.6424L39.9404 20.7601C39.6447 20.4652 39.244 20.2998 38.8264 20.3003C38.4088 20.3008 38.0085 20.4671 37.7135 20.7627ZM30.731 11.3748C30.731 10.9382 30.645 10.5058 30.4779 10.1024C30.3108 9.69897 30.0659 9.33243 29.7572 9.02367C29.1336 8.40012 28.2879 8.0498 27.406 8.0498H8.81228C8.37563 8.0498 7.94326 8.13581 7.53986 8.30291C7.13645 8.47 6.76991 8.71492 6.46115 9.02367C6.15239 9.33243 5.90747 9.69897 5.74038 10.1024C5.57328 10.5058 5.48728 10.9382 5.48728 11.3748V29.7498C5.48728 30.1675 5.65321 30.5681 5.94859 30.8635C6.24395 31.1589 6.64456 31.3248 7.06228 31.3248H27.406C28.2879 31.3248 29.1336 30.9745 29.7572 30.3509C30.3807 29.7274 30.731 28.8816 30.731 27.9998V11.3748ZM27.406 11.1998C27.4524 11.1998 27.497 11.2182 27.5298 11.2511C27.5626 11.2839 27.581 11.3284 27.581 11.3748V27.9998C27.581 28.0961 27.5023 28.1748 27.406 28.1748H8.63728V11.3748C8.63728 11.3284 8.65572 11.2839 8.68853 11.2511C8.72135 11.2182 8.76587 11.1998 8.81228 11.1998H27.406Z" fill="#FF6A00"/>
<path d="M18.6564 13.2998C18.2387 13.2998 17.8381 13.4657 17.5428 13.7611C17.2474 14.0565 17.0814 14.4571 17.0814 14.8748V19.5412H12.8228C12.4051 19.5412 12.0045 19.7071 11.7091 20.0025C11.4138 20.2979 11.2478 20.6985 11.2478 21.1162C11.2478 21.5339 11.4138 21.9345 11.7091 22.2299C12.0045 22.5252 12.4051 22.6912 12.8228 22.6912H18.6564C19.0742 22.6912 19.4748 22.5252 19.7701 22.2299C20.0655 21.9345 20.2314 21.5339 20.2314 21.1162V14.8748C20.2314 14.4571 20.0655 14.0565 19.7701 13.7611C19.4748 13.4657 19.0742 13.2998 18.6564 13.2998Z" fill="#FF6A00"/>
</svg>
