<svg width="28" height="28" viewBox="0 0 28 28" fill="none" xmlns="http://www.w3.org/2000/svg">
<g clip-path="url(#clip0_51_220)">
<path d="M11.6666 14C11.6666 14.6188 11.9125 15.2123 12.35 15.6499C12.7876 16.0875 13.3811 16.3333 14 16.3333C14.6188 16.3333 15.2123 16.0875 15.6499 15.6499C16.0875 15.2123 16.3333 14.6188 16.3333 14C16.3333 13.3811 16.0875 12.7876 15.6499 12.35C15.2123 11.9125 14.6188 11.6666 14 11.6666C13.3811 11.6666 12.7876 11.9125 12.35 12.35C11.9125 12.7876 11.6666 13.3811 11.6666 14Z" stroke="#666666" stroke-width="2" stroke-linecap="round" stroke-linejoin="round"/>
<path d="M24.5 14C21.7 18.6667 18.2 21 14 21C9.8 21 6.3 18.6667 3.5 14C6.3 9.33333 9.8 7 14 7C18.2 7 21.7 9.33333 24.5 14Z" stroke="#666666" stroke-width="2" stroke-linecap="round" stroke-linejoin="round"/>
</g>
<defs>
<clipPath id="clip0_51_220">
<rect width="28" height="28" fill="white"/>
</clipPath>
</defs>
</svg>
