<svg width="28" height="28" viewBox="0 0 28 28" fill="none" xmlns="http://www.w3.org/2000/svg">
<g clip-path="url(#clip0_678_4719)">
<path d="M22.1667 10.1617L15.9448 5.32233C15.3988 4.89755 14.7268 4.66693 14.035 4.66693C13.3432 4.66693 12.6712 4.89755 12.1252 5.32233L5.90217 10.1617C5.52819 10.4525 5.22561 10.8249 5.01755 11.2506C4.80949 11.6762 4.70144 12.1437 4.70167 12.6175V21.0175C4.70167 21.6363 4.9475 22.2298 5.38509 22.6674C5.82267 23.105 6.41616 23.3508 7.035 23.3508H21.035C21.6538 23.3508 22.2473 23.105 22.6849 22.6674C23.1225 22.2298 23.3683 21.6363 23.3683 21.0175V12.6175C23.3683 11.6573 22.925 10.7508 22.1667 10.1617Z" stroke="black" stroke-width="2" stroke-linecap="round" stroke-linejoin="round"/>
<path d="M18.6667 17.5C16.0883 19.0552 11.9093 19.0552 9.33333 17.5" stroke="black" stroke-width="2" stroke-linecap="round" stroke-linejoin="round"/>
</g>
<defs>
<clipPath id="clip0_678_4719">
<rect width="28" height="28" fill="white"/>
</clipPath>
</defs>
</svg>
