<svg xmlns="http://www.w3.org/2000/svg" xmlns:xlink="http://www.w3.org/1999/xlink" fill="none" version="1.1" width="18" height="18" viewBox="0 0 18 18"><path d="M2.159009665,8.159009665Q1.5,8.81801927,1.5,9.75L1.4999998799999998,14.999999500000001Q1.4999998799999998,15.9319801,2.159009606,16.5909901Q2.81801945,17.25,3.75,17.25L14.25,17.25Q15.181981,17.25,15.840991,16.5909901Q16.500000999999997,15.9319806,16.500000999999997,15.000000499999999L16.500000999999997,9.75Q16.500000999999997,8.81801939,15.840991,8.159009606Q15.181981,7.5,14.25,7.5L3.75,7.49999988Q2.81801945,7.49999988,2.159009665,8.159009665ZM2.99999988,14.999999500000001L3,9.75Q3,9.439339799999999,3.21966994,9.21966994Q3.4393399000000002,8.99999988,3.75,8.99999988L14.25,9Q14.560661,9,14.780332,9.21967Q15.000001,9.4393392,15.000001,9.75L15.000001,15.000000499999999Q15.000001,15.3106604,14.780332,15.5303297Q14.560661,15.749999500000001,14.25,15.749999500000001L3.75,15.749999500000001Q3.4393393000000003,15.749999500000001,3.21967,15.5303302Q2.99999988,15.310659900000001,2.99999988,14.999999500000001Z" fill-rule="evenodd" fill="#D1D5DB" fill-opacity="1"/><path d="M12,5.250000200000001L12,8.25L12.0001497,8.25Q12.0001493,8.3238535,12.014557400000001,8.3962879Q12.028965,8.4687223,12.0572281,8.536954399999999Q12.085490199999999,8.6051865,12.1265216,8.666593599999999Q12.1675525,8.7280006,12.2197752,8.7802238Q12.271997500000001,8.8324461,12.333404999999999,8.873477000000001Q12.3948116,8.9145079,12.4630437,8.942771Q12.5312757,8.971034,12.6037107,8.9854422Q12.6761456,8.9998503,12.75,8.9998503Q12.8238535,8.9998503,12.8962879,8.9854422Q12.9687223,8.971034,13.036954399999999,8.942771Q13.1051865,8.9145079,13.166593599999999,8.873477000000001Q13.2280006,8.8324461,13.2802238,8.7802238Q13.3324451,8.7280006,13.373476,8.666593599999999Q13.4145069,8.6051865,13.44277,8.536954399999999Q13.4710331,8.4687223,13.4854412,8.3962879Q13.4998493,8.3238535,13.4998503,8.25L13.500001,8.25L13.500001,5.250000200000001Q13.500001,3.3860402,12.1819811,2.06802028Q10.8639617,0.75000018,9.0000002,0.75Q7.1360387,0.75,5.81801999,2.06801975Q4.50000012,3.3860389,4.5,5.250000200000001L4.5,8.25L4.50014997,8.25Q4.50014997,8.3238535,4.5145582,8.3962879Q4.52896631,8.4687223,4.55722892,8.536954399999999Q4.58549154,8.6051865,4.62652254,8.666593599999999Q4.6675534800000005,8.7280006,4.71977597,8.7802238Q4.77199849,8.8324461,4.83340567,8.873477000000001Q4.89481282,8.9145079,4.96304482,8.942771Q5.03127682,8.971034,5.10371152,8.9854422Q5.176146217,8.9998503,5.25,8.9998503Q5.323853783,8.9998503,5.39628848,8.9854422Q5.46872318,8.971034,5.53695518,8.942771Q5.60518718,8.9145079,5.66659433,8.873477000000001Q5.72800151,8.8324461,5.78022403,8.7802238Q5.8324465199999995,8.7280006,5.87347746,8.666593599999999Q5.91450846,8.6051865,5.94277108,8.536954399999999Q5.97103369,8.4687223,5.9854418,8.3962879Q5.99985003,8.3238535,5.99985003,8.25L6,8.25L6,5.250000200000001Q6.00000024,4.0073593,6.8786806,3.1286795Q7.7573593,2.25,9.0000002,2.25Q10.242640999999999,2.25000006,11.1213207,3.1286803Q12,4.0073597,12,5.250000200000001Z" fill-rule="evenodd" fill="#D1D5DB" fill-opacity="1"/></svg>