<svg xmlns="http://www.w3.org/2000/svg" xmlns:xlink="http://www.w3.org/1999/xlink" fill="none" version="1.1" width="26" height="26" viewBox="0 0 26 26"><defs><clipPath id="master_svg0_18_19524"><rect x="-1.0833333730697632" y="-1.0833333730697632" width="28.166666746139526" height="28.166666746139526" rx="0"/></clipPath></defs><g clip-path="url(#master_svg0_18_19524)"><path d="" fill="#000000" fill-opacity="0" style="mix-blend-mode:passthrough"/><path d="M24.204815616607664,6.577251155026245L6.583054016607666,24.198868855026245Q5.881267116607666,24.920025855026246,4.874999516607666,24.920025855026246Q3.868731416607666,24.920025855026246,3.177300316607666,24.209366855026246L1.794595186607666,22.826637855026245Q1.0846072166076661,22.123937855026245,1.0846072166076661,21.125000855026244Q1.0846072166076661,20.126062855026245,1.7906342466076661,19.427301855026244L19.423361616607664,1.794595425026245Q20.126060616607667,1.0846074550262452,21.125000616607664,1.0846074550262452Q22.123936616607665,1.0846074550262452,22.822697616607666,1.7906339750262452L24.198868616607665,3.166945515026245Q24.920025616607667,3.868731955026245,24.920025616607667,4.8749999550262455Q24.920025616607667,5.877111455026245,24.204815616607664,6.577251155026245ZM22.753357616607666,4.8749999550262455Q22.753357616607666,4.966480455026245,22.687797616607664,5.0302791550262445L22.677301616607664,5.040634355026246L5.030278416607667,22.687797855026243Q4.966480016607666,22.753357855026245,4.874999516607666,22.753357855026245Q4.783520016607666,22.753357855026245,4.709366116607666,22.677301855026244L3.318738016607666,21.286692855026246Q3.251274016607666,21.219921855026247,3.251274016607666,21.125000855026244Q3.251274016607666,21.030077855026246,3.322698916607666,20.959366855026246L20.963306616607667,3.318738255026245Q21.030077616607667,3.251274255026245,21.125000616607664,3.251274255026245Q21.219921616607667,3.251274255026245,21.290634616607665,3.322699655026245L22.687797616607664,4.719721355026245Q22.753357616607666,4.783519955026245,22.753357616607666,4.8749999550262455Z" fill-rule="evenodd" fill="#6B7280" fill-opacity="1" style="mix-blend-mode:passthrough"/><path d="" fill="#000000" fill-opacity="0" style="mix-blend-mode:passthrough"/><path d="M14.440278234558106,8.389009412279053Q14.355664844558106,8.312722922279052,14.288746294558106,8.220522282279052Q14.221827744558105,8.128321702279052,14.175524054558105,8.024230362279052Q14.129220484558106,7.920138982279052,14.105552184558105,7.808699042279053Q14.081883884558106,7.697259102279053,14.081883884558106,7.583333492279053Q14.081883784558105,7.530041516279053,14.087107284558105,7.477006152279053Q14.092330784558106,7.423970792279053,14.102727684558106,7.371702822279053Q14.113124384558105,7.319434822279053,14.128594184558105,7.268437592279053Q14.144064084558105,7.217440362279053,14.164458184558105,7.168205022279053Q14.184852064558106,7.118969622279053,14.209973754558106,7.071970282279053Q14.235095444558105,7.024970952279053,14.264702914558105,6.980660322279053Q14.294310334558105,6.936349632279053,14.328118384558106,6.895154352279053Q14.361926434558105,6.853959082279053,14.399609564558105,6.816276072279052Q14.437292574558105,6.778592942279053,14.478487904558106,6.744784832279053Q14.519683124558105,6.710976842279052,14.563993874558106,6.681369422279053Q14.608304504558106,6.6517619522790525,14.655303774558105,6.626640262279053Q14.702303114558106,6.601518572279053,14.751538514558105,6.581124692279053Q14.800773854558106,6.560730592279053,14.851771084558106,6.545260692279053Q14.902768314558106,6.529790892279053,14.955036314558106,6.519394292279053Q15.007304284558105,6.508997392279053,15.060339644558105,6.503773792279053Q15.113375008558105,6.498550392279053,15.166666984558105,6.498550392279053Q15.280592594558106,6.498550392279053,15.392032534558105,6.522218692279052Q15.503472444558106,6.545886892279053,15.607563854558105,6.592190502279053Q15.711655194558105,6.638494132279053,15.803855774558105,6.705412742279052Q15.896056414558105,6.7723313522790525,15.972342904558106,6.856944682279053L19.143056584558106,10.027657992279053Q19.227669684558105,10.103944292279053,19.294588584558106,10.196145092279053Q19.361507384558106,10.288345792279053,19.407811184558106,10.392437192279052Q19.454114884558106,10.496528392279053,19.477783184558106,10.607968292279052Q19.501451484558103,10.719407992279052,19.501450984558105,10.833333992279053Q19.501451484558103,10.886625992279052,19.496227784558105,10.939661492279052Q19.491003984558105,10.992696792279052,19.480606984558104,11.044964592279053Q19.470210084558104,11.097232592279052,19.454740484558105,11.148229592279053Q19.439270484558104,11.199226892279054,19.418876184558105,11.248462192279053Q19.398482284558106,11.297697992279053,19.373360584558107,11.344697192279053Q19.348238984558105,11.391696692279053,19.318631684558106,11.436006992279053Q19.289024384558104,11.480318092279052,19.255216584558106,11.521512992279053Q19.221408384558107,11.562708392279053,19.183725384558105,11.600391392279054Q19.146042384558104,11.638074392279051,19.104846984558105,11.671882592279053Q19.063651784558104,11.705690892279053,19.019340784558104,11.735297692279053Q18.975030384558107,11.764905492279052,18.928030984558106,11.790027092279054Q18.881031484558104,11.815148792279054,18.831795884558105,11.835542692279052Q18.782560784558104,11.855936992279052,18.731563584558106,11.871406992279052Q18.680566284558104,11.886876592279052,18.628298284558106,11.897273092279054Q18.576030484558107,11.907670492279053,18.522995184558106,11.912893792279053Q18.469959984558106,11.918117092279052,18.416667984558106,11.918117092279052Q18.302743184558107,11.918117092279052,18.191303984558104,11.894449192279053Q18.079864984558107,11.870781392279053,17.975774084558104,11.824478192279052Q17.871683084558107,11.778174892279052,17.779482884558107,11.711257492279053Q17.687282584558105,11.644339592279053,17.610996284558105,11.559727392279052L14.440278234558106,8.389009412279053Z" fill-rule="evenodd" fill="#6B7280" fill-opacity="1" style="mix-blend-mode:passthrough"/><path d="" fill="#000000" fill-opacity="0" style="mix-blend-mode:passthrough"/><path d="M6.499999907720947,6.5560636Q6.501449607720947,6.528050544,6.501449607720947,6.5Q6.501449707720948,6.446708024,6.496226207720947,6.39367266Q6.491002707720948,6.3406373,6.480605807720947,6.28836933Q6.470209107720947,6.23610133,6.454739307720947,6.1851041Q6.439269407720947,6.13410687,6.418875307720947,6.08487153Q6.398481427720947,6.03563613,6.373359737720947,5.98863679Q6.3482380477209475,5.94163746,6.318630577720947,5.89732683Q6.289023157720948,5.85301614,6.2552151077209475,5.81182086Q6.221407057720947,5.77062559,6.183723927720948,5.73294258Q6.146040917720947,5.69525945,6.1048455877209475,5.66145134Q6.063650367720947,5.62764335,6.019339617720947,5.59803593Q5.975028987720947,5.56842846,5.928029717720947,5.54330677Q5.881030377720947,5.51818508,5.831794977720947,5.4977912Q5.782559637720947,5.4773971,5.731562407720947,5.4619272Q5.680565177720947,5.4464574,5.628297177720947,5.4360608Q5.576029207720947,5.4256639,5.522993847720947,5.4204403Q5.469958483720947,5.4152169,5.416666507720947,5.4152169Q5.363374531720948,5.4152169,5.310339167720947,5.4204403Q5.257303807720947,5.4256638,5.205035837720947,5.4360607000000005Q5.152767837720948,5.4464574,5.1017706077209475,5.4619272Q5.050773377720947,5.4773971,5.001538037720947,5.4977912Q4.952302637720948,5.51818508,4.905303297720947,5.54330677Q4.858303967720947,5.56842846,4.813993337720947,5.59803593Q4.7696826477209475,5.62764335,4.728487367720947,5.6614514Q4.687292097720947,5.69525945,4.649609087720947,5.73294258Q4.611925957720947,5.77062559,4.578117847720947,5.81182092Q4.544309857720947,5.85301614,4.514702437720947,5.89732689Q4.485094967720947,5.9416375200000004,4.459973277720947,5.98863679Q4.434851587720948,6.03563613,4.414457707720947,6.08487153Q4.394063607720947,6.13410687,4.378593707720947,6.1851041Q4.363123907720947,6.23610133,4.352727307720947,6.28836933Q4.342330407720947,6.3406373,4.337106807720947,6.39367266Q4.331883307720947,6.446708024,4.331883407720947,6.5Q4.331883407720947,6.528050544,4.333333107720947,6.5560636L4.333333107720947,10.7772703Q4.331883407720947,10.8052835,4.331883407720947,10.833334Q4.331883307720947,10.8866262,4.337106807720947,10.939661000000001Q4.342330307720947,10.9926963,4.352727207720948,11.0449638Q4.363123907720947,11.0972319,4.378593707720947,11.1482291Q4.394063607720947,11.1992264,4.414457707720947,11.2484617Q4.434851587720948,11.2976971,4.459973277720947,11.344697Q4.485094967720947,11.391696,4.514702437720947,11.436006500000001Q4.544309857720947,11.4803176,4.578117907720947,11.521512999999999Q4.611925957720947,11.5627084,4.649609087720947,11.6003914Q4.687292097720947,11.6380749,4.728487427720947,11.6718826Q4.7696826477209475,11.7056904,4.813993397720948,11.7352977Q4.858304027720948,11.764904999999999,4.905303297720947,11.7900267Q4.952302637720948,11.8151484,5.001538037720947,11.835542199999999Q5.050773377720947,11.855937,5.1017706077209475,11.8714066Q5.152767837720948,11.8868766,5.205035837720947,11.8972731Q5.257303807720947,11.90767,5.310339167720947,11.912893799999999Q5.363374531720948,11.918116999999999,5.416666507720947,11.918116999999999Q5.469958483720947,11.918116999999999,5.522993847720947,11.912893799999999Q5.576029207720947,11.90767,5.628297177720947,11.8972731Q5.680565177720947,11.8868771,5.731562407720947,11.8714066Q5.782559637720947,11.855937,5.831794977720947,11.835542700000001Q5.881030377720947,11.8151488,5.928029717720947,11.7900271Q5.975029047720947,11.764904999999999,6.019339677720947,11.7352977Q6.063650367720947,11.7056904,6.104845647720947,11.6718826Q6.146040917720947,11.6380749,6.183723927720948,11.6003914Q6.221407057720947,11.5627084,6.255215167720947,11.521512999999999Q6.289023157720948,11.4803176,6.318630577720947,11.436006500000001Q6.3482380477209475,11.391696,6.373359737720947,11.344697Q6.398481427720947,11.2976971,6.418875307720947,11.2484617Q6.439269407720947,11.1992264,6.454739307720947,11.1482291Q6.470209107720947,11.0972319,6.480605707720947,11.0449643Q6.491002607720947,10.992696800000001,6.496226207720947,10.939661000000001Q6.501449707720948,10.8866262,6.501449607720947,10.833334Q6.501449607720947,10.8052835,6.499999907720947,10.7772703L6.499999907720947,6.5560636Z" fill-rule="evenodd" fill="#6B7280" fill-opacity="1" style="mix-blend-mode:passthrough"/><path d="" fill="#000000" fill-opacity="0" style="mix-blend-mode:passthrough"/><path d="M21.66666736911621,15.222730584558105Q21.66811706911621,15.194717528558105,21.66811706911621,15.166666984558105Q21.66811716911621,15.113375008558105,21.66289366911621,15.060339644558105Q21.657670169116212,15.007304284558105,21.647273269116212,14.955036314558106Q21.63687656911621,14.902768314558106,21.62140676911621,14.851771084558106Q21.60593686911621,14.800773854558106,21.58554276911621,14.751538514558105Q21.565148889116212,14.702303114558106,21.54002719911621,14.655303774558105Q21.51490550911621,14.608304444558106,21.48529803911621,14.563993814558106Q21.45569061911621,14.519683124558105,21.42188256911621,14.478487844558105Q21.38807451911621,14.437292574558105,21.35039138911621,14.399609564558105Q21.31270837911621,14.361926434558105,21.271513049116212,14.328118324558105Q21.23031782911621,14.294310334558105,21.186007079116212,14.264702914558105Q21.14169644911621,14.235095444558105,21.09469717911621,14.209973754558106Q21.04769783911621,14.184852064558106,20.99846243911621,14.164458184558105Q20.94922709911621,14.144064084558105,20.89822986911621,14.128594184558105Q20.84723263911621,14.113124384558105,20.794964639116213,14.102727784558105Q20.74269666911621,14.092330884558105,20.68966130911621,14.087107284558105Q20.63662594511621,14.081883884558106,20.58333396911621,14.081883884558106Q20.53004199311621,14.081883884558106,20.47700662911621,14.087107284558105Q20.423971269116212,14.092330784558106,20.37170329911621,14.102727684558106Q20.31943529911621,14.113124384558105,20.26843806911621,14.128594184558105Q20.21744083911621,14.144064084558105,20.168205499116212,14.164458184558105Q20.11897009911621,14.184852064558106,20.071970759116212,14.209973754558106Q20.02497142911621,14.235095444558105,19.98066079911621,14.264702914558105Q19.936350109116212,14.294310334558105,19.895154829116212,14.328118384558106Q19.853959559116213,14.361926434558105,19.81627654911621,14.399609564558105Q19.778593419116213,14.437292574558105,19.74478530911621,14.478487904558106Q19.71097731911621,14.519683124558105,19.681369899116213,14.563993874558106Q19.65176242911621,14.608304504558106,19.626640739116212,14.655303774558105Q19.60151904911621,14.702303114558106,19.581125169116213,14.751538514558105Q19.560731069116212,14.800773854558106,19.545261169116213,14.851771084558106Q19.52979136911621,14.902768314558106,19.51939476911621,14.955036314558106Q19.50899786911621,15.007304284558105,19.50377426911621,15.060339644558105Q19.49855076911621,15.113375008558105,19.49855086911621,15.166666984558105Q19.49855086911621,15.194717528558105,19.50000056911621,15.222730584558105L19.50000056911621,19.443937284558103Q19.49855086911621,19.471950484558107,19.49855086911621,19.500000984558106Q19.49855076911621,19.553293184558107,19.50377426911621,19.606327984558106Q19.50899776911621,19.659363284558104,19.51939466911621,19.711630784558103Q19.52979136911621,19.763898884558106,19.545261169116213,19.814896084558107Q19.560731069116212,19.865893384558106,19.581125169116213,19.915128684558105Q19.60151904911621,19.964364084558106,19.626640739116212,20.011363984558105Q19.65176242911621,20.058362984558105,19.681369899116213,20.102673484558107Q19.71097731911621,20.146984584558105,19.74478536911621,20.188179984558104Q19.778593419116213,20.229375384558104,19.81627654911621,20.267058384558105Q19.853959559116213,20.304741884558105,19.89515488911621,20.338549584558105Q19.936350109116212,20.372357384558107,19.98066085911621,20.401964684558106Q20.02497148911621,20.431571984558104,20.071970759116212,20.456693684558104Q20.11897009911621,20.481815384558104,20.168205499116212,20.502209184558104Q20.21744083911621,20.522603984558106,20.26843806911621,20.538073584558106Q20.31943529911621,20.553543584558106,20.37170329911621,20.563940084558105Q20.423971269116212,20.574336984558105,20.47700662911621,20.579560784558105Q20.53004199311621,20.584783984558104,20.58333396911621,20.584783984558104Q20.63662594511621,20.584783984558104,20.68966130911621,20.579560784558105Q20.74269666911621,20.574336984558105,20.794964639116213,20.563940084558105Q20.84723263911621,20.553544084558105,20.89822986911621,20.538073584558106Q20.94922709911621,20.522603984558106,20.99846243911621,20.502209684558107Q21.04769783911621,20.481815784558105,21.09469717911621,20.456694084558105Q21.141696509116212,20.431571984558104,21.18600713911621,20.401964684558106Q21.23031782911621,20.372357384558107,21.27151310911621,20.338549584558105Q21.31270837911621,20.304741884558105,21.35039138911621,20.267058384558105Q21.38807451911621,20.229375384558104,21.42188262911621,20.188179984558104Q21.45569061911621,20.146984584558105,21.48529803911621,20.102673484558107Q21.51490550911621,20.058362984558105,21.54002719911621,20.011363984558105Q21.565148889116212,19.964364084558106,21.58554276911621,19.915128684558105Q21.60593686911621,19.865893384558106,21.62140676911621,19.814896084558107Q21.63687656911621,19.763898884558106,21.64727316911621,19.711631284558106Q21.65767006911621,19.659363784558106,21.66289366911621,19.606327984558106Q21.66811716911621,19.553293184558107,21.66811706911621,19.500000984558106Q21.66811706911621,19.471950484558107,21.66666736911621,19.443937284558103L21.66666736911621,15.222730584558105Z" fill-rule="evenodd" fill="#6B7280" fill-opacity="1" style="mix-blend-mode:passthrough"/><path d="" fill="#000000" fill-opacity="0" style="mix-blend-mode:passthrough"/><path d="M11.916666415441895,2.2227303461395262Q11.918116115441894,2.1947172901395264,11.918116115441894,2.1666667461395264Q11.918116215441895,2.1133747701395262,11.912892715441895,2.0603394061395264Q11.907669215441894,2.0073040461395264,11.897272315441894,1.9550360761395265Q11.886875615441895,1.9027680761395263,11.871405815441895,1.8517708461395264Q11.855935915441895,1.8007736161395265,11.835541815441895,1.7515382761395264Q11.815147935441894,1.7023028761395262,11.790026245441894,1.6553035361395265Q11.764904555441895,1.6083042061395263,11.735297085441895,1.5639935761395263Q11.705689665441895,1.5196828861395264,11.671881615441894,1.4784876061395265Q11.638073565441895,1.4372923361395262,11.600390435441895,1.3996093261395264Q11.562707425441895,1.3619261961395264,11.521512095441894,1.3281180861395265Q11.480316875441895,1.2943100961395264,11.436006125441894,1.2647026761395264Q11.391695495441894,1.2350952061395264,11.344696225441895,1.2099735161395264Q11.297696885441894,1.1848518261395262,11.248461485441895,1.1644579461395264Q11.199226145441894,1.1440638461395263,11.148228915441894,1.1285939461395265Q11.097231685441894,1.1131241461395263,11.044963685441894,1.1027275461395263Q10.992695715441895,1.0923306461395264,10.939660355441895,1.0871070461395265Q10.886624991441895,1.0818836461395265,10.833333015441895,1.0818836461395265Q10.780041039441894,1.0818836461395265,10.727005675441895,1.0871070461395265Q10.673970315441894,1.0923305461395263,10.621702345441895,1.1027274461395264Q10.569434345441895,1.1131241461395263,10.518437115441895,1.1285939461395265Q10.467439885441895,1.1440638461395263,10.418204545441894,1.1644579461395264Q10.368969145441895,1.1848518261395262,10.321969805441894,1.2099735161395264Q10.274970475441895,1.2350952061395264,10.230659845441895,1.2647026761395264Q10.186349155441894,1.2943100961395264,10.145153875441894,1.3281181461395264Q10.103958605441894,1.3619261961395264,10.066275595441894,1.3996093261395264Q10.028592465441895,1.4372923361395262,9.994784355441894,1.4784876661395263Q9.960976365441894,1.5196828861395264,9.931368945441895,1.5639936361395264Q9.901761475441894,1.6083042661395264,9.876639785441895,1.6553035361395265Q9.851518095441895,1.7023028761395262,9.831124215441895,1.7515382761395264Q9.810730115441894,1.8007736161395265,9.795260215441894,1.8517708461395264Q9.779790415441894,1.9027680761395263,9.769393815441894,1.9550360761395265Q9.758996915441895,2.0073040461395264,9.753773315441894,2.0603394061395264Q9.748549815441894,2.1133747701395262,9.748549915441895,2.1666667461395264Q9.748549915441895,2.1947172901395264,9.749999615441894,2.2227303461395262L9.749999615441894,4.277269846139527Q9.748549915441895,4.3052828461395265,9.748549915441895,4.333333446139527Q9.748549815441894,4.386625546139527,9.753773315441894,4.439660746139527Q9.758996815441895,4.492696246139527,9.769393715441895,4.544964046139526Q9.779790415441894,4.597232146139526,9.795260215441894,4.6482293461395265Q9.810730115441894,4.699226646139526,9.831124215441895,4.748461746139526Q9.851518095441895,4.797697346139526,9.876639785441895,4.844696746139526Q9.901761475441894,4.8916957461395265,9.931368945441895,4.936006346139527Q9.960976365441894,4.980317146139527,9.994784415441895,5.021512546139526Q10.028592465441895,5.062707646139526,10.066275595441894,5.100390646139527Q10.103958605441894,5.138073946139526,10.145153935441895,5.171881946139527Q10.186349155441894,5.205690146139526,10.230659905441895,5.235297446139526Q10.274970535441895,5.264904946139526,10.321969805441894,5.290026446139526Q10.368969145441895,5.315148146139526,10.418204545441894,5.335541946139527Q10.467439885441895,5.355936246139526,10.518437115441895,5.371405846139526Q10.569434345441895,5.386875846139526,10.621702345441895,5.397272546139527Q10.673970315441894,5.407669346139526,10.727005675441895,5.412893046139526Q10.780041039441894,5.418116546139526,10.833333015441895,5.418116546139526Q10.886624991441895,5.418116546139526,10.939660355441895,5.412893046139526Q10.992695715441895,5.407669346139526,11.044963685441894,5.397272546139527Q11.097231685441894,5.386875846139526,11.148228915441894,5.371406346139526Q11.199226145441894,5.355936246139526,11.248461485441895,5.335542246139527Q11.297696885441894,5.315148546139526,11.344696225441895,5.290026946139527Q11.391695555441894,5.264905246139526,11.436006185441894,5.235297446139526Q11.480316875441895,5.205690146139526,11.521512155441895,5.171882146139526Q11.562707425441895,5.138073946139526,11.600390435441895,5.100390646139527Q11.638073565441895,5.062707646139526,11.671881675441895,5.021512246139526Q11.705689665441895,4.980316846139527,11.735297085441895,4.936006046139527Q11.764904555441895,4.8916957461395265,11.790026245441894,4.844696246139526Q11.815147935441894,4.797697046139526,11.835541815441895,4.748461446139526Q11.855935915441895,4.699226646139526,11.871405815441895,4.6482293461395265Q11.886875615441895,4.597232146139526,11.897272215441895,4.544964046139526Q11.907669115441895,4.492696246139527,11.912892715441895,4.439660746139527Q11.918116215441895,4.386625546139527,11.918116115441894,4.333333446139527Q11.918116115441894,4.3052828461395265,11.916666415441895,4.277269846139527L11.916666415441895,2.2227303461395262Z" fill-rule="evenodd" fill="#6B7280" fill-opacity="1" style="mix-blend-mode:passthrough"/><path d="" fill="#000000" fill-opacity="0" style="mix-blend-mode:passthrough"/><path d="M3.3060636,9.750000384558106Q3.278050544,9.751450084558105,3.25,9.751450084558105Q3.196708024,9.751450084558105,3.14367266,9.746226684558106Q3.0906373,9.741003184558105,3.03836933,9.730606284558105Q2.98610133,9.720209584558106,2.9351041,9.704739784558106Q2.88410687,9.689269884558106,2.83487153,9.668875784558105Q2.78563613,9.648481904558105,2.73863679,9.623360214558105Q2.69163746,9.598238524558106,2.64732683,9.568631054558105Q2.6030161400000003,9.539023634558106,2.56182086,9.505215584558105Q2.52062559,9.471407534558105,2.48294258,9.433724404558106Q2.44525945,9.396041394558106,2.41145134,9.354846064558105Q2.37764335,9.313650844558106,2.34803593,9.269340094558105Q2.31842846,9.225029464558105,2.29330677,9.178030194558106Q2.26818508,9.131030854558105,2.2477912,9.081795454558106Q2.2273971,9.032560114558105,2.2119272,8.981562884558105Q2.1964574,8.930565654558105,2.1860608,8.878297654558105Q2.1756639,8.826029684558106,2.1704403,8.772994324558105Q2.1652168,8.719958960558106,2.1652169,8.666666984558105Q2.1652168,8.613375008558105,2.1704403,8.560339644558105Q2.1756637999999997,8.507304284558105,2.1860607,8.455036314558106Q2.1964574,8.402768314558106,2.2119272,8.351771084558106Q2.2273971,8.300773854558106,2.2477912,8.251538514558105Q2.26818508,8.202303114558106,2.29330677,8.155303774558105Q2.31842846,8.108304444558106,2.34803593,8.063993814558106Q2.37764335,8.019683124558105,2.4114514,7.978487844558106Q2.44525945,7.937292574558105,2.48294258,7.899609564558105Q2.52062559,7.8619264345581055,2.5618209199999997,7.828118324558106Q2.6030161400000003,7.794310334558105,2.64732689,7.7647029145581055Q2.69163752,7.735095444558105,2.73863679,7.7099737545581055Q2.78563613,7.684852064558106,2.83487153,7.6644581845581055Q2.88410687,7.644064084558106,2.9351041,7.628594184558105Q2.98610133,7.613124384558105,3.03836933,7.602727784558105Q3.0906373,7.5923308845581055,3.14367266,7.587107284558106Q3.196708024,7.581883884558105,3.25,7.581883884558105Q3.278050544,7.581883884558105,3.3060636,7.583333584558106L7.5272698,7.583333584558106Q7.5552831,7.581883884558105,7.5833335,7.581883884558105Q7.6366253,7.581883884558105,7.689661,7.587107284558106Q7.7426958,7.592330784558105,7.7949638,7.602727684558106Q7.8472319,7.613124384558105,7.8982291,7.628594184558105Q7.9492264,7.644064084558106,7.9984617,7.6644581845581055Q8.0476971,7.684852064558106,8.094696500000001,7.7099737545581055Q8.141696,7.735095444558105,8.1860061,7.7647029145581055Q8.2303171,7.794310334558105,8.271512000000001,7.828118384558105Q8.3127079,7.8619264345581055,8.3503904,7.899609564558105Q8.3880739,7.937292574558105,8.4218817,7.978487904558105Q8.4556899,8.019683124558105,8.4852972,8.063993874558106Q8.514904999999999,8.108304504558106,8.5400267,8.155303774558105Q8.5651484,8.202303114558106,8.5855417,8.251538514558105Q8.605936100000001,8.300773854558106,8.6214061,8.351771084558106Q8.6368761,8.402768314558106,8.6472726,8.455036314558106Q8.65767,8.507304284558105,8.6628933,8.560339644558105Q8.668116999999999,8.613375008558105,8.668116600000001,8.666666984558105Q8.668116999999999,8.719958960558106,8.662893799999999,8.772994324558105Q8.65767,8.826029684558106,8.6472731,8.878297654558105Q8.6368761,8.930565654558105,8.6214066,8.981562884558105Q8.605936100000001,9.032560114558105,8.5855417,9.081795454558106Q8.5651484,9.131030854558105,8.5400267,9.178030194558106Q8.514904999999999,9.225029524558105,8.4852972,9.269340154558105Q8.4556899,9.313650844558106,8.4218817,9.354846124558106Q8.3880739,9.396041394558106,8.3503904,9.433724404558106Q8.3127079,9.471407534558105,8.2715125,9.505215644558106Q8.2303171,9.539023634558106,8.1860061,9.568631054558105Q8.141696,9.598238524558106,8.094696500000001,9.623360214558105Q8.0476971,9.648481904558105,7.9984617,9.668875784558105Q7.9492264,9.689269884558106,7.8982291,9.704739784558106Q7.8472319,9.720209584558106,7.7949638,9.730606184558106Q7.7426958,9.741003084558105,7.689661,9.746226684558106Q7.6366253,9.751450084558105,7.5833335,9.751450084558105Q7.5552831,9.751450084558105,7.5272698,9.750000384558106L3.3060636,9.750000384558106Z" fill-rule="evenodd" fill="#6B7280" fill-opacity="1" style="mix-blend-mode:passthrough"/><path d="" fill="#000000" fill-opacity="0" style="mix-blend-mode:passthrough"/><path d="M18.47272963088379,18.41666736911621Q18.44471657488379,18.41811706911621,18.41666603088379,18.41811706911621Q18.36337405488379,18.41811706911621,18.31033869088379,18.41289366911621Q18.25730333088379,18.407670169116212,18.205035360883787,18.397273269116212Q18.15276736088379,18.38687656911621,18.10177013088379,18.37140676911621Q18.05077290088379,18.35593686911621,18.00153756088379,18.33554276911621Q17.95230216088379,18.315148889116212,17.90530282088379,18.29002719911621Q17.858303490883788,18.26490550911621,17.81399286088379,18.23529803911621Q17.76968217088379,18.20569061911621,17.72848689088379,18.17188256911621Q17.68729162088379,18.13807451911621,17.64960861088379,18.10039138911621Q17.61192548088379,18.06270837911621,17.57811737088379,18.021513049116212Q17.54430938088379,17.98031782911621,17.51470196088379,17.936007079116212Q17.48509449088379,17.89169644911621,17.45997280088379,17.84469717911621Q17.434851110883788,17.79769783911621,17.41445723088379,17.74846243911621Q17.39406313088379,17.69922709911621,17.37859323088379,17.64822986911621Q17.36312343088379,17.59723263911621,17.35272683088379,17.544964639116213Q17.34232993088379,17.49269666911621,17.33710633088379,17.43966130911621Q17.33188283088379,17.38662594511621,17.33188293088379,17.33333396911621Q17.33188283088379,17.28004199311621,17.33710633088379,17.22700662911621Q17.342329830883788,17.173971269116212,17.352726730883788,17.12170329911621Q17.36312343088379,17.06943529911621,17.37859323088379,17.01843806911621Q17.39406313088379,16.96744083911621,17.41445723088379,16.918205499116212Q17.434851110883788,16.86897009911621,17.45997280088379,16.821970759116212Q17.48509449088379,16.77497142911621,17.51470196088379,16.73066079911621Q17.54430938088379,16.686350109116212,17.57811743088379,16.645154829116212Q17.61192548088379,16.603959559116213,17.64960861088379,16.56627654911621Q17.68729162088379,16.528593419116213,17.728486950883788,16.49478530911621Q17.76968217088379,16.46097731911621,17.813992920883788,16.431369899116213Q17.85830355088379,16.40176242911621,17.90530282088379,16.376640739116212Q17.95230216088379,16.35151904911621,18.00153756088379,16.331125169116213Q18.05077290088379,16.310731069116212,18.10177013088379,16.295261169116213Q18.15276736088379,16.27979136911621,18.205035360883787,16.26939476911621Q18.25730333088379,16.25899786911621,18.31033869088379,16.25377426911621Q18.36337405488379,16.24855086911621,18.41666603088379,16.24855086911621Q18.44471657488379,16.24855086911621,18.47272963088379,16.25000056911621L22.693935830883788,16.25000056911621Q22.72194913088379,16.24855086911621,22.74999953088379,16.24855086911621Q22.803291330883788,16.24855086911621,22.85632703088379,16.25377426911621Q22.90936183088379,16.25899776911621,22.961629830883787,16.26939466911621Q23.01389793088379,16.27979136911621,23.06489513088379,16.295261169116213Q23.11589243088379,16.310731069116212,23.16512773088379,16.331125169116213Q23.21436313088379,16.35151904911621,23.26136253088379,16.376640739116212Q23.30836203088379,16.40176242911621,23.35267213088379,16.431369899116213Q23.39698313088379,16.46097731911621,23.43817803088379,16.49478536911621Q23.47937393088379,16.528593419116213,23.51705643088379,16.56627654911621Q23.55473993088379,16.603959559116213,23.58854773088379,16.64515488911621Q23.62235593088379,16.686350109116212,23.651963230883787,16.73066085911621Q23.681571030883788,16.77497148911621,23.706692730883788,16.821970759116212Q23.731814430883787,16.86897009911621,23.75220773088379,16.918205499116212Q23.77260213088379,16.96744083911621,23.78807213088379,17.01843806911621Q23.80354213088379,17.06943529911621,23.81393863088379,17.12170329911621Q23.82433603088379,17.173971269116212,23.82955933088379,17.22700662911621Q23.834783030883788,17.28004199311621,23.83478263088379,17.33333396911621Q23.834783030883788,17.38662594511621,23.829559830883788,17.43966130911621Q23.82433603088379,17.49269666911621,23.81393913088379,17.544964639116213Q23.80354213088379,17.59723263911621,23.78807263088379,17.64822986911621Q23.77260213088379,17.69922709911621,23.75220773088379,17.74846243911621Q23.731814430883787,17.79769783911621,23.706692730883788,17.84469717911621Q23.681571030883788,17.891696509116212,23.651963230883787,17.93600713911621Q23.62235593088379,17.98031782911621,23.58854773088379,18.02151310911621Q23.55473993088379,18.06270837911621,23.51705643088379,18.10039138911621Q23.47937393088379,18.13807451911621,23.43817853088379,18.17188262911621Q23.39698313088379,18.20569061911621,23.35267213088379,18.23529803911621Q23.30836203088379,18.26490550911621,23.26136253088379,18.29002719911621Q23.21436313088379,18.315148889116212,23.16512773088379,18.33554276911621Q23.11589243088379,18.35593686911621,23.06489513088379,18.37140676911621Q23.01389793088379,18.38687656911621,22.961629830883787,18.39727316911621Q22.90936183088379,18.40767006911621,22.85632703088379,18.41289366911621Q22.803291330883788,18.41811706911621,22.74999953088379,18.41811706911621Q22.72194913088379,18.41811706911621,22.693935830883788,18.41666736911621L18.47272963088379,18.41666736911621Z" fill-rule="evenodd" fill="#6B7280" fill-opacity="1" style="mix-blend-mode:passthrough"/><path d="" fill="#000000" fill-opacity="0" style="mix-blend-mode:passthrough"/><path d="M9.8060636,2.1666666Q9.778050544,2.1652169,9.75,2.1652169Q9.696708024,2.1652169,9.64367266,2.1704403Q9.5906373,2.1756637999999997,9.53836933,2.1860607Q9.48610133,2.1964574,9.4351041,2.2119272Q9.38410687,2.2273971,9.33487153,2.2477912Q9.28563613,2.26818508,9.23863679,2.29330677Q9.19163746,2.31842846,9.14732683,2.34803593Q9.10301614,2.37764335,9.06182086,2.4114514Q9.02062559,2.44525945,8.98294258,2.48294258Q8.94525945,2.52062559,8.91145134,2.5618209199999997Q8.87764335,2.6030161400000003,8.84803593,2.64732689Q8.81842846,2.69163752,8.793306770000001,2.73863679Q8.76818508,2.78563613,8.7477912,2.83487153Q8.7273971,2.88410687,8.7119272,2.9351041Q8.6964574,2.98610133,8.6860608,3.03836933Q8.6756639,3.0906373,8.6704403,3.14367266Q8.6652168,3.196708024,8.6652169,3.25Q8.6652168,3.303291976,8.6704403,3.35632734Q8.6756638,3.4093627,8.6860607,3.46163067Q8.6964574,3.51389867,8.7119272,3.5648959Q8.7273971,3.61589313,8.7477912,3.66512847Q8.76818508,3.71436387,8.793306770000001,3.76136321Q8.81842846,3.80836254,8.84803593,3.85267317Q8.87764335,3.8969838599999997,8.9114514,3.93817914Q8.94525945,3.97937441,8.98294258,4.01705742Q9.02062559,4.05474055,9.06182092,4.08854866Q9.10301614,4.12235665,9.14732689,4.15196407Q9.19163752,4.18157154,9.23863679,4.20669323Q9.28563613,4.23181492,9.33487153,4.2522088Q9.38410687,4.2726029,9.4351041,4.2880728Q9.48610133,4.3035426,9.53836933,4.3139392Q9.5906373,4.3243361,9.64367266,4.3295597Q9.696708024,4.3347831,9.75,4.3347831Q9.778050544,4.3347831,9.8060636,4.3333334L11.860603300000001,4.3333334Q11.888616299999999,4.3347831,11.916667,4.3347831Q11.9699588,4.3347831,12.0229943,4.3295597Q12.0760298,4.3243362,12.1282976,4.3139392999999995Q12.1805658,4.3035426,12.231563099999999,4.2880728Q12.2825601,4.2726029,12.3317952,4.2522088Q12.381031,4.23181492,12.4280303,4.20669323Q12.4750295,4.18157154,12.51934,4.15196407Q12.5636508,4.12235665,12.604846,4.0885486Q12.6460414,4.05474055,12.6837244,4.01705742Q12.7214077,3.97937441,12.7552159,3.9381790800000003Q12.7890239,3.8969838599999997,12.8186309,3.85267311Q12.8482385,3.80836248,12.8733604,3.76136321Q12.898481799999999,3.71436387,12.918875700000001,3.66512847Q12.9392698,3.61589313,12.9547396,3.5648959Q12.9702094,3.51389867,12.9806061,3.46163067Q12.991003,3.4093627,12.9962265,3.35632734Q13.0014501,3.303291976,13.0014501,3.25Q13.0014501,3.196708024,12.9962268,3.14367266Q12.991003,3.0906373,12.9806061,3.03836933Q12.9702094,2.98610133,12.9547396,2.9351041Q12.9392695,2.88410687,12.9188755,2.83487153Q12.898481799999999,2.78563613,12.8733602,2.73863679Q12.8482385,2.69163746,12.8186309,2.64732683Q12.7890239,2.6030161400000003,12.7552156,2.56182086Q12.7214077,2.52062559,12.6837244,2.48294258Q12.6460414,2.44525945,12.604846,2.41145134Q12.5636508,2.37764335,12.51934,2.34803593Q12.4750295,2.31842846,12.42803,2.29330677Q12.381031,2.26818508,12.3317952,2.2477912Q12.2825601,2.2273971,12.2315629,2.2119272Q12.1805658,2.1964574,12.1282976,2.1860608Q12.0760298,2.1756639,12.0229943,2.1704403Q11.9699588,2.1652169,11.916667,2.1652169Q11.888616299999999,2.1652169,11.860603300000001,2.1666666L9.8060636,2.1666666Z" fill-rule="evenodd" fill="#6B7280" fill-opacity="1" style="mix-blend-mode:passthrough"/></g></svg>