<svg xmlns="http://www.w3.org/2000/svg" xmlns:xlink="http://www.w3.org/1999/xlink" fill="none" version="1.1" width="26" height="26" viewBox="0 0 26 26"><defs><clipPath id="master_svg0_18_9441"><rect x="-1.0833333730697632" y="-1.0833333730697632" width="28.166666746139526" height="28.166666746139526" rx="0"/></clipPath></defs><g clip-path="url(#master_svg0_18_9441)"><path d="" fill="#000000" fill-opacity="0" style="mix-blend-mode:passthrough"/><path d="M9.716023710055541,17.062011571563723L11.428772710055542,23.70825957156372L11.434581510055542,23.72987457156372Q11.766786310055542,24.91693557156372,12.999457510055542,24.91693557156372Q14.232126510055542,24.91693557156372,14.570099510055542,23.70842257156372L16.283906510055544,17.06228057156372Q16.443527510055542,16.443529571563722,17.062010510055543,16.28397657156372L23.72597551005554,14.566499571563721Q24.918886510055543,14.237458571563721,24.918886510055543,12.99999857156372Q24.918886510055543,11.76253557156372,23.708260510055542,11.428774371563721L17.062282510055542,9.71609497156372Q16.443528510055543,9.556470371563721,16.28397551005554,8.93798877156372L14.565416510055542,2.2701214615637206Q14.233208510055542,1.0830641715637208,13.000540510055542,1.0830641715637208Q11.767877310055542,1.0830640715637208,11.429898010055542,2.291578621563721L9.716243510055541,8.93713717156372Q9.556351910055543,9.555510471563721,8.937667110055543,9.71502397156372L2.291418280055542,11.42993977156372Q2.278805520055542,11.43319467156372,2.266274773055542,11.43675087156372Q1.084985110055542,11.772048471563721,1.084985110055542,13.00000057156372Q1.084985110055542,14.227952571563721,2.266274750055542,14.563249571563722Q2.278885280055542,14.56682857156372,2.291578720055542,14.57010357156372L8.93771771005554,16.28390557156372Q9.556469710055541,16.443529571563722,9.716023710055541,17.062011571563723ZM12.999624510055542,21.12153257156372L14.185926510055541,16.52105357156372Q14.664793510055542,14.664794571563721,16.52132251005554,14.185857571563721L21.12320551005554,13.000054571563721L16.521051510055543,11.814072171563721Q14.664794510055541,11.33519987156372,14.185856510055542,9.47867777156372L13.000457510055542,4.8781435715637205L11.813922610055542,9.47952987156372Q11.334248310055543,11.334645771563721,9.478997910055542,11.812976371563721L4.879269810055542,12.999833571563721L9.478947410055543,14.18592757156372Q11.335199110055543,14.66479757156372,11.814142010055543,16.521322571563722L12.999624510055542,21.12153257156372Z" fill-rule="evenodd" fill="#6B7280" fill-opacity="1" style="mix-blend-mode:passthrough"/><path d="" fill="#000000" fill-opacity="0" style="mix-blend-mode:passthrough"/><path d="M22.74999943088379,3.3060636Q22.75144913088379,3.278050544,22.75144913088379,3.25Q22.75144923088379,3.196708024,22.74622573088379,3.14367266Q22.74100223088379,3.0906373,22.73060533088379,3.03836933Q22.72020863088379,2.98610133,22.704738830883787,2.9351041Q22.689268930883788,2.88410687,22.668874830883787,2.83487153Q22.64848095088379,2.78563613,22.623359260883788,2.73863679Q22.59823757088379,2.69163746,22.568630100883787,2.64732683Q22.53902268088379,2.6030161400000003,22.50521463088379,2.56182086Q22.471406580883787,2.52062559,22.43372345088379,2.48294258Q22.396040440883787,2.44525945,22.35484511088379,2.41145134Q22.313649890883788,2.37764335,22.26933914088379,2.34803593Q22.22502851088379,2.31842846,22.178029240883788,2.29330677Q22.13102990088379,2.26818508,22.081794500883788,2.2477912Q22.03255916088379,2.2273971,21.98156193088379,2.2119272Q21.93056470088379,2.1964574,21.87829670088379,2.1860608Q21.826028730883788,2.1756639,21.77299337088379,2.1704403Q21.71995800688379,2.1652169,21.66666603088379,2.1652169Q21.61337405488379,2.1652169,21.56033869088379,2.1704403Q21.50730333088379,2.1756637999999997,21.455035360883787,2.1860607Q21.40276736088379,2.1964574,21.35177013088379,2.2119272Q21.30077290088379,2.2273971,21.25153756088379,2.2477912Q21.20230216088379,2.26818508,21.15530282088379,2.29330677Q21.108303490883788,2.31842846,21.06399286088379,2.34803593Q21.01968217088379,2.37764335,20.97848689088379,2.4114514Q20.93729162088379,2.44525945,20.89960861088379,2.48294258Q20.86192548088379,2.52062559,20.82811737088379,2.5618209199999997Q20.79430938088379,2.6030161400000003,20.76470196088379,2.64732689Q20.73509449088379,2.69163752,20.70997280088379,2.73863679Q20.684851110883788,2.78563613,20.66445723088379,2.83487153Q20.64406313088379,2.88410687,20.62859323088379,2.9351041Q20.61312343088379,2.98610133,20.60272683088379,3.03836933Q20.59232993088379,3.0906373,20.58710633088379,3.14367266Q20.58188283088379,3.196708024,20.58188293088379,3.25Q20.58188293088379,3.278050544,20.58333263088379,3.3060636L20.58333263088379,7.5272703Q20.58188293088379,7.5552835,20.58188293088379,7.583334Q20.58188283088379,7.6366262,20.58710633088379,7.689661Q20.592329830883788,7.7426963,20.602726730883788,7.7949638Q20.61312343088379,7.8472319,20.62859323088379,7.8982291Q20.64406313088379,7.9492264,20.66445723088379,7.9984617Q20.684851110883788,8.0476971,20.70997280088379,8.094697Q20.73509449088379,8.141696,20.76470196088379,8.186006500000001Q20.79430938088379,8.2303176,20.82811743088379,8.271512999999999Q20.86192548088379,8.3127084,20.89960861088379,8.3503914Q20.93729162088379,8.3880749,20.978486950883788,8.4218826Q21.01968217088379,8.4556904,21.063992920883788,8.4852977Q21.10830355088379,8.514904999999999,21.15530282088379,8.5400267Q21.20230216088379,8.5651484,21.25153756088379,8.585542199999999Q21.30077290088379,8.605937,21.35177013088379,8.6214066Q21.40276736088379,8.6368766,21.455035360883787,8.6472731Q21.50730333088379,8.65767,21.56033869088379,8.662893799999999Q21.61337405488379,8.668116999999999,21.66666603088379,8.668116999999999Q21.71995800688379,8.668116999999999,21.77299337088379,8.662893799999999Q21.826028730883788,8.65767,21.87829670088379,8.6472731Q21.93056470088379,8.6368771,21.98156193088379,8.6214066Q22.03255916088379,8.605937,22.081794500883788,8.585542700000001Q22.13102990088379,8.5651488,22.178029240883788,8.5400271Q22.22502857088379,8.514904999999999,22.26933920088379,8.4852977Q22.313649890883788,8.4556904,22.354845170883788,8.4218826Q22.396040440883787,8.3880749,22.43372345088379,8.3503914Q22.471406580883787,8.3127084,22.50521469088379,8.271512999999999Q22.53902268088379,8.2303176,22.568630100883787,8.186006500000001Q22.59823757088379,8.141696,22.623359260883788,8.094697Q22.64848095088379,8.0476971,22.668874830883787,7.9984617Q22.689268930883788,7.9492264,22.704738830883787,7.8982291Q22.72020863088379,7.8472319,22.73060523088379,7.7949643Q22.74100213088379,7.7426968,22.74622573088379,7.689661Q22.75144923088379,7.6366262,22.75144913088379,7.583334Q22.75144913088379,7.5552835,22.74999943088379,7.5272703L22.74999943088379,3.3060636Z" fill-rule="evenodd" fill="#6B7280" fill-opacity="1" style="mix-blend-mode:passthrough"/><path d="" fill="#000000" fill-opacity="0" style="mix-blend-mode:passthrough"/><path d="M19.5560636,6.499999907720947Q19.528050544,6.501449607720947,19.5,6.501449607720947Q19.446708024,6.501449607720947,19.39367266,6.496226207720947Q19.3406373,6.491002707720948,19.28836933,6.480605807720947Q19.23610133,6.470209107720947,19.1851041,6.454739307720947Q19.13410687,6.439269407720947,19.08487153,6.418875307720947Q19.03563613,6.398481427720947,18.98863679,6.373359737720947Q18.94163746,6.3482380477209475,18.89732683,6.318630577720947Q18.85301614,6.289023157720948,18.81182086,6.2552151077209475Q18.77062559,6.221407057720947,18.73294258,6.183723927720948Q18.695259450000002,6.146040917720947,18.66145134,6.1048455877209475Q18.62764335,6.063650367720947,18.59803593,6.019339617720947Q18.56842846,5.975028987720947,18.54330677,5.928029717720947Q18.51818508,5.881030377720947,18.4977912,5.831794977720947Q18.4773971,5.782559637720947,18.4619272,5.731562407720947Q18.4464574,5.680565177720947,18.4360608,5.628297177720947Q18.4256639,5.576029207720947,18.4204403,5.522993847720947Q18.4152168,5.469958483720947,18.4152169,5.416666507720947Q18.4152168,5.363374531720948,18.4204403,5.310339167720947Q18.4256638,5.257303807720947,18.4360607,5.205035837720947Q18.4464574,5.152767837720948,18.4619272,5.1017706077209475Q18.4773971,5.050773377720947,18.4977912,5.001538037720947Q18.51818508,4.952302637720948,18.54330677,4.905303297720947Q18.56842846,4.858303967720947,18.59803593,4.813993337720947Q18.62764335,4.7696826477209475,18.6614514,4.728487367720947Q18.695259450000002,4.687292097720947,18.73294258,4.649609087720947Q18.77062559,4.611925957720947,18.81182092,4.578117847720947Q18.85301614,4.544309857720947,18.89732689,4.514702437720947Q18.94163752,4.485094967720947,18.98863679,4.459973277720947Q19.03563613,4.434851587720948,19.08487153,4.414457707720947Q19.13410687,4.394063607720947,19.1851041,4.378593707720947Q19.23610133,4.363123907720947,19.28836933,4.352727307720947Q19.3406373,4.342330407720947,19.39367266,4.337106807720947Q19.446708024,4.331883407720947,19.5,4.331883407720947Q19.528050544,4.331883407720947,19.5560636,4.333333107720947L23.7772698,4.333333107720947Q23.8052831,4.331883407720947,23.833333500000002,4.331883407720947Q23.8866253,4.331883407720947,23.939661,4.337106807720947Q23.9926958,4.342330307720947,24.044963799999998,4.352727207720948Q24.0972319,4.363123907720947,24.148229100000002,4.378593707720947Q24.1992264,4.394063607720947,24.2484617,4.414457707720947Q24.2976971,4.434851587720948,24.3446965,4.459973277720947Q24.391696,4.485094967720947,24.4360061,4.514702437720947Q24.4803171,4.544309857720947,24.521512,4.578117907720947Q24.5627079,4.611925957720947,24.600390400000002,4.649609087720947Q24.638073900000002,4.687292097720947,24.6718817,4.728487427720947Q24.7056899,4.7696826477209475,24.735297199999998,4.813993397720948Q24.764905,4.858304027720948,24.7900267,4.905303297720947Q24.815148399999998,4.952302637720948,24.8355417,5.001538037720947Q24.8559361,5.050773377720947,24.8714061,5.1017706077209475Q24.886876100000002,5.152767837720948,24.8972726,5.205035837720947Q24.90767,5.257303807720947,24.9128933,5.310339167720947Q24.918117,5.363374531720948,24.9181166,5.416666507720947Q24.918117,5.469958483720947,24.9128938,5.522993847720947Q24.90767,5.576029207720947,24.8972731,5.628297177720947Q24.886876100000002,5.680565177720947,24.8714066,5.731562407720947Q24.8559361,5.782559637720947,24.8355417,5.831794977720947Q24.815148399999998,5.881030377720947,24.7900267,5.928029717720947Q24.764905,5.975029047720947,24.735297199999998,6.019339677720947Q24.7056899,6.063650367720947,24.6718817,6.104845647720947Q24.638073900000002,6.146040917720947,24.600390400000002,6.183723927720948Q24.5627079,6.221407057720947,24.5215125,6.255215167720947Q24.4803171,6.289023157720948,24.4360061,6.318630577720947Q24.391696,6.3482380477209475,24.3446965,6.373359737720947Q24.2976971,6.398481427720947,24.2484617,6.418875307720947Q24.1992264,6.439269407720947,24.148229100000002,6.454739307720947Q24.0972319,6.470209107720947,24.044963799999998,6.480605707720947Q23.9926958,6.491002607720947,23.939661,6.496226207720947Q23.8866253,6.501449607720947,23.833333500000002,6.501449607720947Q23.8052831,6.501449607720947,23.7772698,6.499999907720947L19.5560636,6.499999907720947Z" fill-rule="evenodd" fill="#6B7280" fill-opacity="1" style="mix-blend-mode:passthrough"/><path d="" fill="#000000" fill-opacity="0" style="mix-blend-mode:passthrough"/><path d="M5.416666892279053,18.47272963088379Q5.418116592279053,18.44471657488379,5.418116592279053,18.41666603088379Q5.418116692279053,18.36337405488379,5.412893192279053,18.31033869088379Q5.407669692279053,18.25730333088379,5.397272792279052,18.205035360883787Q5.386876092279053,18.15276736088379,5.371406292279053,18.10177013088379Q5.355936392279053,18.05077290088379,5.335542292279053,18.00153756088379Q5.315148412279052,17.95230216088379,5.290026722279053,17.90530282088379Q5.264905032279053,17.858303490883788,5.235297562279053,17.81399286088379Q5.205690142279053,17.76968217088379,5.171882092279053,17.72848689088379Q5.138074042279053,17.68729162088379,5.100390912279053,17.64960861088379Q5.062707902279053,17.61192548088379,5.021512572279053,17.57811737088379Q4.9803173522790525,17.54430938088379,4.936006602279052,17.51470196088379Q4.891695972279052,17.48509449088379,4.844696702279053,17.45997280088379Q4.797697362279052,17.434851110883788,4.748461962279053,17.41445723088379Q4.699226622279053,17.39406313088379,4.6482293922790525,17.37859323088379Q4.597232162279052,17.36312343088379,4.544964162279053,17.35272683088379Q4.492696192279053,17.34232993088379,4.439660832279053,17.33710633088379Q4.386625468279052,17.33188293088379,4.333333492279053,17.33188293088379Q4.280041516279053,17.33188293088379,4.227006152279053,17.33710633088379Q4.173970792279053,17.342329830883788,4.121702822279053,17.352726730883788Q4.069434822279053,17.36312343088379,4.018437592279053,17.37859323088379Q3.967440362279053,17.39406313088379,3.9182050222790528,17.41445723088379Q3.8689696222790526,17.434851110883788,3.821970282279053,17.45997280088379Q3.7749709522790527,17.48509449088379,3.7306603222790526,17.51470196088379Q3.686349632279053,17.54430938088379,3.645154352279053,17.57811743088379Q3.6039590822790526,17.61192548088379,3.5662760722790527,17.64960861088379Q3.5285929422790527,17.68729162088379,3.494784832279053,17.728486950883788Q3.460976842279053,17.76968217088379,3.4313694222790527,17.813992920883788Q3.4017619522790525,17.85830355088379,3.376640262279053,17.90530282088379Q3.3515185722790526,17.95230216088379,3.3311246922790527,18.00153756088379Q3.310730592279053,18.05077290088379,3.2952606922790526,18.10177013088379Q3.2797908922790526,18.15276736088379,3.2693942922790526,18.205035360883787Q3.2589973922790527,18.25730333088379,3.253773792279053,18.31033869088379Q3.248550292279053,18.36337405488379,3.2485503922790526,18.41666603088379Q3.2485503922790526,18.44471657488379,3.250000092279053,18.47272963088379L3.250000092279053,20.527269130883788Q3.2485503922790526,20.55528213088379,3.2485503922790526,20.58333273088379Q3.248550292279053,20.63662483088379,3.253773792279053,20.68966003088379Q3.2589972922790524,20.74269553088379,3.269394192279053,20.79496333088379Q3.2797908922790526,20.847231430883788,3.2952606922790526,20.89822863088379Q3.310730592279053,20.949225930883788,3.3311246922790527,20.99846103088379Q3.3515185722790526,21.047696630883788,3.376640262279053,21.09469603088379Q3.4017619522790525,21.14169503088379,3.4313694222790527,21.186005630883788Q3.460976842279053,21.23031643088379,3.4947848922790525,21.27151183088379Q3.5285929422790527,21.312706930883788,3.5662760722790527,21.35038993088379Q3.6039590822790526,21.38807323088379,3.6451544122790525,21.421881230883788Q3.686349632279053,21.45568943088379,3.7306603822790527,21.48529673088379Q3.7749710122790527,21.51490423088379,3.821970282279053,21.54002573088379Q3.8689696222790526,21.56514743088379,3.9182050222790528,21.585541230883788Q3.967440362279053,21.60593553088379,4.018437592279053,21.62140513088379Q4.069434822279053,21.636875130883787,4.121702822279053,21.64727183088379Q4.173970792279053,21.65766863088379,4.227006152279053,21.66289233088379Q4.280041516279053,21.66811583088379,4.333333492279053,21.66811583088379Q4.386625468279052,21.66811583088379,4.439660832279053,21.66289233088379Q4.492696192279053,21.65766863088379,4.544964162279053,21.64727183088379Q4.597232162279052,21.636875130883787,4.6482293922790525,21.62140563088379Q4.699226622279053,21.60593553088379,4.748461962279053,21.585541530883788Q4.797697362279052,21.565147830883788,4.844696702279053,21.54002623088379Q4.891696032279053,21.51490453088379,4.936006662279053,21.48529673088379Q4.9803173522790525,21.45568943088379,5.021512632279053,21.42188143088379Q5.062707902279053,21.38807323088379,5.100390912279053,21.35038993088379Q5.138074042279053,21.312706930883788,5.171882152279053,21.27151153088379Q5.205690142279053,21.23031613088379,5.235297562279053,21.186005330883788Q5.264905032279053,21.14169503088379,5.290026722279053,21.09469553088379Q5.315148412279052,21.047696330883788,5.335542292279053,20.99846073088379Q5.355936392279053,20.949225930883788,5.371406292279053,20.89822863088379Q5.386876092279053,20.847231430883788,5.397272692279053,20.79496333088379Q5.407669592279053,20.74269553088379,5.412893192279053,20.68966003088379Q5.418116692279053,20.63662483088379,5.418116592279053,20.58333273088379Q5.418116592279053,20.55528213088379,5.416666892279053,20.527269130883788L5.416666892279053,18.47272963088379Z" fill-rule="evenodd" fill="#6B7280" fill-opacity="1" style="mix-blend-mode:passthrough"/><path d="" fill="#000000" fill-opacity="0" style="mix-blend-mode:passthrough"/><path d="M3.3060636,18.4166666Q3.278050544,18.4152169,3.25,18.4152169Q3.196708024,18.4152169,3.14367266,18.4204403Q3.0906373,18.4256638,3.03836933,18.4360607Q2.98610133,18.4464574,2.9351041,18.4619272Q2.88410687,18.4773971,2.83487153,18.4977912Q2.78563613,18.51818508,2.73863679,18.54330677Q2.69163746,18.56842846,2.64732683,18.59803593Q2.6030161400000003,18.62764335,2.56182086,18.6614514Q2.52062559,18.695259450000002,2.48294258,18.73294258Q2.44525945,18.77062559,2.41145134,18.81182092Q2.37764335,18.85301614,2.34803593,18.89732689Q2.31842846,18.94163752,2.29330677,18.98863679Q2.26818508,19.03563613,2.2477912,19.08487153Q2.2273971,19.13410687,2.2119272,19.1851041Q2.1964574,19.23610133,2.1860608,19.28836933Q2.1756639,19.3406373,2.1704403,19.39367266Q2.1652168,19.446708024,2.1652169,19.5Q2.1652168,19.553291976,2.1704403,19.60632734Q2.1756637999999997,19.6593627,2.1860607,19.71163067Q2.1964574,19.76389867,2.2119272,19.8148959Q2.2273971,19.86589313,2.2477912,19.91512847Q2.26818508,19.96436387,2.29330677,20.01136321Q2.31842846,20.05836254,2.34803593,20.10267317Q2.37764335,20.14698386,2.4114514,20.18817914Q2.44525945,20.22937441,2.48294258,20.26705742Q2.52062559,20.304740549999998,2.5618209199999997,20.33854866Q2.6030161400000003,20.37235665,2.64732689,20.40196407Q2.69163752,20.43157154,2.73863679,20.45669323Q2.78563613,20.48181492,2.83487153,20.5022088Q2.88410687,20.5226029,2.9351041,20.5380728Q2.98610133,20.5535426,3.03836933,20.5639392Q3.0906373,20.5743361,3.14367266,20.5795597Q3.196708024,20.5847831,3.25,20.5847831Q3.278050544,20.5847831,3.3060636,20.5833334L5.3606033,20.5833334Q5.3886163,20.5847831,5.416667,20.5847831Q5.469958800000001,20.5847831,5.522994300000001,20.5795597Q5.576029800000001,20.5743362,5.6282976,20.5639393Q5.6805658,20.5535426,5.7315631,20.5380728Q5.7825600999999995,20.5226029,5.8317952,20.5022088Q5.881031,20.48181492,5.9280303,20.45669323Q5.9750295,20.43157154,6.01934,20.40196407Q6.0636508,20.37235665,6.104846,20.3385486Q6.1460414,20.304740549999998,6.1837244,20.26705742Q6.2214077,20.22937441,6.2552159,20.18817908Q6.2890239,20.14698386,6.3186309000000005,20.10267311Q6.3482385,20.05836248,6.3733604,20.01136321Q6.3984818,19.96436387,6.4188757,19.91512847Q6.4392698,19.86589313,6.4547396,19.8148959Q6.4702094,19.76389867,6.4806061,19.71163067Q6.491003,19.6593627,6.496226500000001,19.60632734Q6.5014501,19.553291976,6.5014501,19.5Q6.5014501,19.446708024,6.4962268000000005,19.39367266Q6.491003,19.3406373,6.4806061,19.28836933Q6.4702094,19.23610133,6.4547396,19.1851041Q6.4392695,19.13410687,6.4188755,19.08487153Q6.3984818,19.03563613,6.3733602000000005,18.98863679Q6.3482385,18.94163746,6.3186309000000005,18.89732683Q6.2890239,18.85301614,6.2552156,18.81182086Q6.2214077,18.77062559,6.1837244,18.73294258Q6.1460414,18.695259450000002,6.104846,18.66145134Q6.0636508,18.62764335,6.01934,18.59803593Q5.9750295,18.56842846,5.92803,18.54330677Q5.881031,18.51818508,5.8317952,18.4977912Q5.7825600999999995,18.4773971,5.7315629,18.4619272Q5.6805658,18.4464574,5.6282976,18.4360608Q5.576029800000001,18.4256639,5.522994300000001,18.4204403Q5.469958800000001,18.4152169,5.416667,18.4152169Q5.3886163,18.4152169,5.3606033,18.4166666L3.3060636,18.4166666Z" fill-rule="evenodd" fill="#6B7280" fill-opacity="1" style="mix-blend-mode:passthrough"/></g></svg>