<svg width="14" height="14" viewBox="0 0 14 14" fill="none" xmlns="http://www.w3.org/2000/svg">
<path d="M3.928 11.1723C3.96789 11.3514 4.06161 11.5141 4.19661 11.6385C4.3316 11.7629 4.50141 11.8431 4.68326 11.8682C4.8651 11.8934 5.05028 11.8623 5.21396 11.7792C5.37764 11.6961 5.512 11.5649 5.599 11.4033L7.1665 9.0835L10.8468 12.7638C10.9211 12.8381 11.0093 12.897 11.1064 12.9372C11.2035 12.9775 11.3075 12.9982 11.4126 12.9982C11.5177 12.9982 11.6218 12.9775 11.7189 12.9372C11.816 12.897 11.9042 12.8381 11.9785 12.7638L12.7638 11.9785C12.8381 11.9042 12.897 11.816 12.9372 11.7189C12.9775 11.6218 12.9982 11.5177 12.9982 11.4126C12.9982 11.3075 12.9775 11.2035 12.9372 11.1064C12.897 11.0093 12.8381 10.9211 12.7638 10.8468L9.0835 7.1665L11.4183 5.599C11.5799 5.51194 11.711 5.37753 11.7941 5.21379C11.8772 5.05006 11.9082 4.86484 11.883 4.68298C11.8577 4.50112 11.7775 4.33133 11.653 4.19638C11.5285 4.06143 11.3657 3.96778 11.1865 3.928L1 1L3.928 11.1723Z" stroke="white" stroke-width="1.28571" stroke-linecap="round" stroke-linejoin="round"/>
</svg>
