<svg width="33" height="33" viewBox="0 0 33 33" fill="none" xmlns="http://www.w3.org/2000/svg">
<g id="photo" clip-path="url(#clip0_163_628)">
<path id="Vector" d="M20.5 11.167H20.5133" stroke="black" stroke-width="2.28571" stroke-linecap="round" stroke-linejoin="round"/>
<path id="Vector_2" d="M4.5 8.5C4.5 7.43913 4.92143 6.42172 5.67157 5.67157C6.42172 4.92143 7.43913 4.5 8.5 4.5H24.5C25.5609 4.5 26.5783 4.92143 27.3284 5.67157C28.0786 6.42172 28.5 7.43913 28.5 8.5V24.5C28.5 25.5609 28.0786 26.5783 27.3284 27.3284C26.5783 28.0786 25.5609 28.5 24.5 28.5H8.5C7.43913 28.5 6.42172 28.0786 5.67157 27.3284C4.92143 26.5783 4.5 25.5609 4.5 24.5V8.5Z" stroke="black" stroke-width="2.28571" stroke-linecap="round" stroke-linejoin="round"/>
<path id="Vector_3" d="M4.5 21.8331L11.1667 15.1664C12.404 13.9758 13.9293 13.9758 15.1667 15.1664L21.8333 21.8331" stroke="black" stroke-width="2.28571" stroke-linecap="round" stroke-linejoin="round"/>
<path id="Vector_4" d="M19.1667 19.1668L20.5 17.8334C21.7373 16.6428 23.2627 16.6428 24.5 17.8334L28.5 21.8334" stroke="black" stroke-width="2.28571" stroke-linecap="round" stroke-linejoin="round"/>
</g>
<defs>
<clipPath id="clip0_163_628">
<rect width="32" height="32" fill="white" transform="translate(0.5 0.5)"/>
</clipPath>
</defs>
</svg>
