<svg width="57" height="56" viewBox="0 0 57 56" fill="none" xmlns="http://www.w3.org/2000/svg">
<g clip-path="url(#clip0_544_3817)">
<path d="M7.5 28C7.5 30.7578 8.04318 33.4885 9.09853 36.0364C10.1539 38.5842 11.7007 40.8992 13.6508 42.8492C15.6008 44.7993 17.9158 46.3461 20.4636 47.4015C23.0115 48.4568 25.7422 49 28.5 49C31.2578 49 33.9885 48.4568 36.5364 47.4015C39.0842 46.3461 41.3992 44.7993 43.3492 42.8492C45.2993 40.8992 46.8461 38.5842 47.9015 36.0364C48.9568 33.4885 49.5 30.7578 49.5 28C49.5 25.2422 48.9568 22.5115 47.9015 19.9636C46.8461 17.4158 45.2993 15.1008 43.3492 13.1508C41.3992 11.2007 39.0842 9.65388 36.5364 8.59853C33.9885 7.54318 31.2578 7 28.5 7C25.7422 7 23.0115 7.54318 20.4636 8.59853C17.9158 9.65388 15.6008 11.2007 13.6508 13.1508C11.7007 15.1008 10.1539 17.4158 9.09853 19.9636C8.04318 22.5115 7.5 25.2422 7.5 28Z" stroke="#FF6A00" stroke-width="4" stroke-linecap="round" stroke-linejoin="round"/>
<path d="M21.5 28.0007L26.1667 32.6673L35.5 23.334" stroke="#FF6A00" stroke-width="4" stroke-linecap="round" stroke-linejoin="round"/>
</g>
<defs>
<clipPath id="clip0_544_3817">
<rect width="56" height="56" fill="white" transform="translate(0.5)"/>
</clipPath>
</defs>
</svg>
