<svg width="61" height="56" viewBox="0 0 61 56" fill="none" xmlns="http://www.w3.org/2000/svg">
<g clip-path="url(#clip0_544_4217)">
<path d="M21.9315 16.5932H27.1201C27.3915 17.4677 27.7231 18.1311 28.5674 19.5483L33.0324 27.2117L37.4994 19.5785C38.3438 18.1612 38.7056 17.4074 38.9468 16.5932H44.1656C43.7736 17.1058 42.5674 18.8246 42.0247 19.6991L37.8613 26.3372H39.5499C40.9068 26.3372 41.7231 26.2769 42.7182 26.096V29.5357C41.693 29.3548 40.8767 29.2945 39.5499 29.2945H36.0198L35.0247 30.8625V31.7369H39.4896C40.8465 31.7369 41.6025 31.6766 42.6579 31.4957V34.9354C41.6327 34.7545 40.8164 34.6942 39.4896 34.6942H35.0247V36.7468C35.0247 38.4655 35.085 39.4003 35.2659 40.6086H30.801C30.9518 39.4305 31.0422 38.2243 31.0422 36.7468V34.6942H26.4868C25.1299 34.6942 24.3438 34.7545 23.3185 34.9354V31.4957C24.3739 31.6766 25.0998 31.7369 26.4868 31.7369H31.0422V30.8323L30.0471 29.2945H26.5471C25.1601 29.2945 24.4041 29.3548 23.3788 29.5357V26.096C24.3739 26.2769 25.1601 26.3372 26.5471 26.3372H28.2358L24.0422 19.6991C23.1678 18.3422 22.3838 17.1662 21.9315 16.5932ZM32.6598 56C24.3567 56 16.9195 52.3643 11.7933 46.6243L15.1985 43.9729C19.5299 48.7071 25.7395 51.6923 32.6598 51.6923C45.7444 51.6923 56.3521 41.0846 56.3521 28C56.3521 14.9154 45.7444 4.30769 32.6598 4.30769C21.9853 4.30769 12.9822 11.3766 10.0228 21.084L13.5982 17.3105C14.3607 16.5071 15.5776 16.4877 16.3164 17.2674C17.053 18.0471 17.0336 19.3308 16.2711 20.1342L9.37022 27.4163C8.83822 27.9785 8.08653 28.1314 7.4296 27.9225C6.6413 28.0905 5.80991 27.7437 5.3856 26.9618L0.565297 18.0988C0.0332967 17.1188 0.347758 15.8674 1.27176 15.3009C2.1936 14.7366 3.37176 15.0726 3.90376 16.0505L5.91114 19.7422C9.43699 8.31169 20.0727 0 32.6598 0C48.1244 0 60.6598 12.5354 60.6598 28C60.6598 43.4646 48.1244 56 32.6598 56Z" fill="#FF6A00"/>
</g>
<defs>
<clipPath id="clip0_544_4217">
<rect width="60.4297" height="56" fill="white" transform="translate(0.285156)"/>
</clipPath>
</defs>
</svg>
