<svg width="16" height="20" viewBox="0 0 16 20" fill="none" xmlns="http://www.w3.org/2000/svg">
<path d="M16 8C16 12.4183 10.0183 19.2 8 19.2C5.98172 19.2 0 12.4183 0 8C0 3.58172 3.58172 0 8 0C12.4183 0 16 3.58172 16 8Z" fill="#CCCCCC"/>
<path d="M7.72156 4.6639C8.51356 4.6639 9.16156 4.8919 9.67756 5.3479C10.1816 5.8039 10.4456 6.4159 10.4456 7.1599C10.4456 7.9039 10.1576 8.5759 9.60556 9.1759C9.30556 9.4879 8.71756 9.9559 7.82956 10.5559C6.73756 11.2879 6.11356 11.9479 5.95756 12.5239H10.4576V13.3999H4.74556C4.74556 12.6199 5.02156 11.9119 5.59756 11.2759C5.93356 10.8919 6.54556 10.3759 7.45756 9.7519C8.12956 9.2719 8.57356 8.9239 8.80156 8.6839C9.23356 8.2159 9.46156 7.6999 9.46156 7.1479C9.46156 6.6199 9.30556 6.2239 8.99356 5.9359C8.68156 5.6479 8.23756 5.5039 7.68556 5.5039C7.09756 5.5039 6.64156 5.6959 6.32956 6.1039C5.99356 6.4879 5.81356 7.0639 5.80156 7.8199H4.81756C4.81756 6.8599 5.09356 6.0919 5.62156 5.5279C6.14956 4.9519 6.85756 4.6639 7.72156 4.6639Z" fill="white"/>
</svg>
