<svg width="28" height="28" viewBox="0 0 28 28" fill="none" xmlns="http://www.w3.org/2000/svg">
<g clip-path="url(#clip0_678_2150)">
<path d="M18.6667 21.0001C19.2855 21.0001 19.879 21.2459 20.3166 21.6835C20.7542 22.1211 21 22.7146 21 23.3334C21 22.7146 21.2458 22.1211 21.6834 21.6835C22.121 21.2459 22.7145 21.0001 23.3333 21.0001C22.7145 21.0001 22.121 20.7542 21.6834 20.3167C21.2458 19.8791 21 19.2856 21 18.6667C21 19.2856 20.7542 19.8791 20.3166 20.3167C19.879 20.7542 19.2855 21.0001 18.6667 21.0001ZM18.6667 7.00008C19.2855 7.00008 19.879 7.24591 20.3166 7.6835C20.7542 8.12108 21 8.71458 21 9.33341C21 8.71458 21.2458 8.12108 21.6834 7.6835C22.121 7.24591 22.7145 7.00008 23.3333 7.00008C22.7145 7.00008 22.121 6.75425 21.6834 6.31666C21.2458 5.87908 21 5.28559 21 4.66675C21 5.28559 20.7542 5.87908 20.3166 6.31666C19.879 6.75425 19.2855 7.00008 18.6667 7.00008ZM10.5 21.0001C10.5 19.1436 11.2375 17.3631 12.5503 16.0503C13.863 14.7376 15.6435 14.0001 17.5 14.0001C15.6435 14.0001 13.863 13.2626 12.5503 11.9498C11.2375 10.6371 10.5 8.8566 10.5 7.00008C10.5 8.8566 9.7625 10.6371 8.44975 11.9498C7.13699 13.2626 5.35652 14.0001 3.5 14.0001C5.35652 14.0001 7.13699 14.7376 8.44975 16.0503C9.7625 17.3631 10.5 19.1436 10.5 21.0001Z" stroke="black" stroke-width="2" stroke-linecap="round" stroke-linejoin="round"/>
</g>
<defs>
<clipPath id="clip0_678_2150">
<rect width="28" height="28" fill="white"/>
</clipPath>
</defs>
</svg>
