<svg width="18" height="18" viewBox="0 0 18 18" fill="none" xmlns="http://www.w3.org/2000/svg">
<g clip-path="url(#clip0_1285_9388)">
<path d="M13.2426 9.00525C13.0675 9.02326 12.8998 9.08532 12.7552 9.18565C12.6105 9.28597 12.4936 9.4213 12.4154 9.579L11.7741 10.8712L10.3439 11.079C9.95388 11.133 9.62388 11.409 9.50088 11.787L9.47238 11.892C9.39738 12.2408 9.50688 12.6075 9.76713 12.8595L10.7999 13.8622L10.5554 15.2812C10.5233 15.4729 10.5453 15.6696 10.6189 15.8494C10.6925 16.0292 10.8148 16.185 10.972 16.2991C11.1293 16.4132 11.3152 16.4813 11.5089 16.4956C11.7027 16.5099 11.8966 16.4698 12.0689 16.38L13.3499 15.7087L14.6309 16.3807C14.8028 16.4712 14.9966 16.5118 15.1904 16.4979C15.3841 16.484 15.5702 16.4161 15.7274 16.302L15.8114 16.2345C15.9429 16.1166 16.0424 15.9672 16.1004 15.8003C16.1584 15.6335 16.173 15.4546 16.1429 15.2805L15.8991 13.8622L16.9341 12.858C17.2191 12.5797 17.3211 12.165 17.1981 11.7878L17.1599 11.6873C17.0881 11.5262 16.9766 11.386 16.8358 11.2797C16.6951 11.1735 16.5297 11.1047 16.3551 11.0797L14.9249 10.8712L14.2851 9.57975C14.1986 9.40567 14.0652 9.25919 13.9 9.15677C13.7348 9.05435 13.5443 9.00006 13.3499 9L13.2426 9.00525Z" fill="white"/>
<path d="M4.54341 9.00525C4.36829 9.02326 4.20059 9.08532 4.05593 9.18565C3.91128 9.28597 3.79439 9.4213 3.71616 9.579L3.07491 10.8712L1.64466 11.079C1.25466 11.133 0.924657 11.409 0.801657 11.787L0.773157 11.892C0.698157 12.2408 0.807657 12.6075 1.06791 12.8595L2.10066 13.8622L1.85616 15.2812C1.8241 15.4729 1.84611 15.6696 1.91971 15.8494C1.99331 16.0292 2.1156 16.185 2.27282 16.2991C2.43004 16.4132 2.61597 16.4813 2.80973 16.4956C3.00349 16.5099 3.19739 16.4698 3.36966 16.38L4.65066 15.7087L5.93166 16.3807C6.10357 16.4712 6.29737 16.5118 6.49115 16.4979C6.68493 16.484 6.87094 16.4161 7.02816 16.302L7.11216 16.2345C7.24372 16.1166 7.34316 15.9672 7.40115 15.8003C7.45913 15.6335 7.47376 15.4546 7.44366 15.2805L7.20066 13.8622L8.23566 12.858C8.52066 12.5797 8.62266 12.165 8.49966 11.7878L8.46141 11.6873C8.3896 11.5262 8.27811 11.386 8.13736 11.2797C7.99662 11.1735 7.83123 11.1047 7.65666 11.0797L6.22566 10.8705L5.58591 9.579C5.49928 9.40506 5.36587 9.25873 5.20065 9.15645C5.03544 9.05417 4.84497 8.99999 4.65066 9L4.54341 9.00525Z" fill="white"/>
<path d="M8.89302 1.50525C8.7179 1.52326 8.5502 1.58532 8.40554 1.68565C8.26089 1.78597 8.144 1.9213 8.06577 2.079L7.42452 3.37125L5.99427 3.579C5.60427 3.633 5.27427 3.909 5.15127 4.287L5.12277 4.392C5.04777 4.74075 5.15727 5.1075 5.41752 5.3595L6.45027 6.36225L6.20577 7.78125C6.17371 7.97287 6.19572 8.16963 6.26932 8.34944C6.34292 8.52924 6.4652 8.68495 6.62243 8.79909C6.77965 8.91323 6.96558 8.98127 7.15934 8.99556C7.3531 9.00985 7.547 8.96983 7.71927 8.88L9.00027 8.2095L10.282 8.8815C10.4539 8.972 10.6477 9.01258 10.8415 8.99867C11.0353 8.98475 11.2213 8.91689 11.3785 8.80275L11.4625 8.73525C11.5941 8.61735 11.6935 8.46795 11.7515 8.30107C11.8095 8.1342 11.8241 7.95533 11.794 7.78125L11.5503 6.36225L12.5853 5.358C12.8703 5.07975 12.9723 4.665 12.8493 4.28775L12.811 4.18725C12.7392 4.02619 12.6277 3.88598 12.487 3.77974C12.3462 3.67349 12.1808 3.60468 12.0063 3.57975L10.5753 3.3705L9.93552 2.079C9.84889 1.90506 9.71548 1.75873 9.55026 1.65645C9.38505 1.55417 9.19458 1.49999 9.00027 1.5L8.89302 1.50525Z" fill="white"/>
</g>
<defs>
<clipPath id="clip0_1285_9388">
<rect width="18" height="18" fill="white"/>
</clipPath>
</defs>
</svg>
