<svg width="21" height="20" viewBox="0 0 21 20" fill="none" xmlns="http://www.w3.org/2000/svg">
<g clip-path="url(#clip0_481_31449)">
<path d="M7.36922 6.1166L2.05255 6.88744L1.95838 6.9066C1.81583 6.94445 1.68588 7.01944 1.58179 7.12394C1.47771 7.22843 1.40322 7.35868 1.36593 7.50137C1.32865 7.64407 1.32991 7.79411 1.36957 7.93616C1.40924 8.07822 1.4859 8.2072 1.59172 8.30994L5.44338 12.0591L4.53505 17.3549L4.52422 17.4466C4.51549 17.594 4.5461 17.7411 4.61292 17.8729C4.67974 18.0046 4.78037 18.1162 4.9045 18.1962C5.02862 18.2762 5.17179 18.3218 5.31934 18.3284C5.46689 18.3349 5.61352 18.3021 5.74422 18.2333L10.4992 15.7333L15.2434 18.2333L15.3267 18.2716C15.4643 18.3258 15.6138 18.3424 15.7598 18.3197C15.9059 18.2971 16.0434 18.236 16.158 18.1427C16.2727 18.0494 16.3605 17.9272 16.4124 17.7888C16.4643 17.6504 16.4784 17.5006 16.4534 17.3549L15.5442 12.0591L19.3975 8.3091L19.4625 8.23827C19.5554 8.12391 19.6163 7.98698 19.639 7.84143C19.6617 7.69588 19.6454 7.54692 19.5918 7.40971C19.5382 7.2725 19.4492 7.15196 19.3338 7.06036C19.2184 6.96876 19.0808 6.90938 18.935 6.88827L13.6184 6.1166L11.2417 1.29994C11.1729 1.16038 11.0665 1.04286 10.9344 0.960689C10.8023 0.878514 10.6498 0.834961 10.4942 0.834961C10.3386 0.834961 10.1862 0.878514 10.0541 0.960689C9.92195 1.04286 9.81549 1.16038 9.74671 1.29994L7.36922 6.1166Z" fill="#FF6A00"/>
</g>
<defs>
<clipPath id="clip0_481_31449">
<rect width="20" height="20" fill="white" transform="translate(0.5)"/>
</clipPath>
</defs>
</svg>
