<svg width="16" height="16" viewBox="0 0 16 16" fill="none" xmlns="http://www.w3.org/2000/svg">
<g id="PromptFill">
<path id="icon" fill-rule="evenodd" clip-rule="evenodd" d="M8.00065 1.3335C4.31875 1.3335 1.33398 4.31826 1.33398 8.00016C1.33398 11.6821 4.31875 14.6668 8.00065 14.6668C11.6825 14.6668 14.6673 11.6821 14.6673 8.00016C14.6673 4.31826 11.6825 1.3335 8.00065 1.3335ZM8.66732 5.50016C8.66732 5.86835 8.36884 6.16683 8.00065 6.16683C7.63246 6.16683 7.33398 5.86835 7.33398 5.50016C7.33398 5.13197 7.63246 4.8335 8.00065 4.8335C8.36884 4.8335 8.66732 5.13197 8.66732 5.50016ZM7.33398 7.16683V11.1668H8.66732V7.16683H7.33398Z" fill="#4688FA"/>
</g>
</svg>
