<svg xmlns="http://www.w3.org/2000/svg" xmlns:xlink="http://www.w3.org/1999/xlink" fill="none" version="1.1" width="18" height="18" viewBox="0 0 18 18"><path d="M11.999999500000001,6L11.999999500000001,12.749999500000001L12.0001497,12.749999500000001Q12.0001493,12.823853,12.014557400000001,12.8962874Q12.028965,12.9687223,12.0572281,13.036954399999999Q12.085490199999999,13.1051865,12.1265216,13.166593599999999Q12.1675525,13.2280006,12.2197752,13.2802238Q12.271997500000001,13.3324451,12.333404999999999,13.373476Q12.3948116,13.4145069,12.4630437,13.44277Q12.5312757,13.4710331,12.6037107,13.4854412Q12.6761456,13.4998493,12.75,13.4998503Q12.8238535,13.4998493,12.8962879,13.4854412Q12.9687223,13.4710331,13.036954399999999,13.44277Q13.1051865,13.4145069,13.166593599999999,13.373476Q13.2280006,13.3324451,13.2802238,13.2802238Q13.3324451,13.2280006,13.373476,13.166593599999999Q13.4145069,13.1051865,13.44277,13.036954399999999Q13.4710331,12.9687223,13.4854412,12.8962879Q13.4998493,12.8238535,13.4998503,12.75L13.5,12.749999500000001L13.5,5.25Q13.5,5.176131457,13.485589,5.10368228Q13.4711781,5.03123312,13.4429092,4.96298748Q13.4146404,4.89474183,13.3736019,4.83332238Q13.3325624,4.77190292,13.2803297,4.71966994Q13.228097,4.66743702,13.166676500000001,4.62639785Q13.105257,4.58535868,13.0370116,4.5570904Q12.968766200000001,4.52882212,12.896317,4.51441109Q12.8238678,4.5,12.749999500000001,4.5L5.25,4.5L5.25,4.50014997Q5.176146217,4.50014997,5.10371152,4.5145582Q5.03127682,4.52896631,4.96304482,4.55722892Q4.89481282,4.58549154,4.83340567,4.62652254Q4.77199849,4.6675534800000005,4.71977597,4.71977597Q4.6675534800000005,4.77199849,4.62652254,4.83340567Q4.58549154,4.89481282,4.55722892,4.96304482Q4.52896631,5.03127682,4.5145582,5.10371152Q4.50014997,5.176146217,4.50014997,5.25Q4.50014997,5.323853783,4.5145582,5.39628848Q4.52896631,5.46872318,4.55722892,5.53695518Q4.58549154,5.60518718,4.62652254,5.66659433Q4.6675534800000005,5.72800151,4.71977597,5.78022403Q4.77199849,5.8324465199999995,4.83340567,5.87347746Q4.89481282,5.91450846,4.96304482,5.94277108Q5.03127682,5.97103369,5.10371152,5.9854418Q5.176146217,5.99985003,5.25,5.99985003L5.25,6L11.999999500000001,6Z" fill-rule="evenodd" fill="#111111" fill-opacity="1"/><path d="M13.2802238,5.78022432Q13.3856916,5.67475617,13.442771,5.53695536Q13.4998503,5.39915454,13.4998503,5.25Q13.4998493,5.176146217,13.4854412,5.10371152Q13.4710331,5.03127682,13.44277,4.96304482Q13.4145069,4.89481282,13.373476,4.83340567Q13.3324451,4.77199849,13.2802238,4.71977597Q13.2280006,4.6675534800000005,13.166593599999999,4.62652254Q13.1051865,4.58549154,13.036954399999999,4.55722892Q12.9687223,4.52896631,12.8962879,4.5145582Q12.8238535,4.50014997,12.75,4.50014997Q12.6008453,4.5001500199999995,12.4630446,4.55722892Q12.3252435,4.61430788,12.2197757,4.71977592L12.2196698,4.71966994L4.71966994,12.2196698L4.71977592,12.2197757Q4.61430788,12.3252435,4.55722892,12.463044199999999Q4.5001500199999995,12.6008453,4.50014997,12.75Q4.50014997,12.8238535,4.5145582,12.8962879Q4.52896631,12.9687223,4.55722892,13.036954399999999Q4.58549154,13.1051865,4.62652254,13.166593599999999Q4.6675534800000005,13.2280006,4.71977597,13.2802238Q4.77199849,13.3324451,4.83340567,13.373476Q4.89481282,13.4145069,4.96304482,13.44277Q5.03127682,13.4710331,5.10371152,13.4854412Q5.176146217,13.4998493,5.25,13.4998503Q5.39915454,13.4998503,5.53695536,13.442771Q5.67475617,13.3856916,5.78022432,13.2802238L5.78033006,13.2803297L13.2803297,5.78033006L13.2802238,5.78022432Z" fill-rule="evenodd" fill="#111111" fill-opacity="1"/></svg>