<svg xmlns="http://www.w3.org/2000/svg" xmlns:xlink="http://www.w3.org/1999/xlink" fill="none" version="1.1" width="24" height="24" viewBox="0 0 24 24"><path d="M3.05545634,3.055456281Q2.25,3.86091256,2.25,5L2.24999976,19Q2.24999994,20.139088,3.05545634,20.944544Q3.86091292,21.75,5,21.75L19,21.75Q20.139088,21.75,20.944544,20.944544Q21.75,20.139088,21.75,19L21.75,5Q21.75,3.8609128,20.944544,3.0554564Q20.139088,2.25,19,2.25L4.9999999,2.24999976Q3.86091268,2.24999994,3.05545634,3.055456281ZM3.74999976,19L3.75,5Q3.75,3.75,5,3.74999976L19,3.75Q20.25,3.75,20.25,5L20.25,19Q20.25,20.25,19,20.25L5,20.25Q3.75,20.25,3.74999976,19Z" fill-rule="evenodd" fill="#111111" fill-opacity="1"/><path d="M10.9445438,7.05545634Q10.139087400000001,6.25,9,6.25Q7.86091268,6.24999994,7.05545634,7.055456281Q6.25,7.86091256,6.24999976,9Q6.24999994,10.139087400000001,7.055456281,10.9445438Q7.86091256,11.75,9,11.75Q10.139087700000001,11.75,10.9445438,10.9445438Q11.75,10.139087400000001,11.75,9Q11.75,7.8609124999999995,10.9445438,7.05545634ZM8.1161165,8.1161164Q8.482233,7.74999982,9,7.74999976Q9.517767,7.75,9.8838835,8.1161165Q10.25,8.482233,10.25,9Q10.25,9.517767,9.8838835,9.8838835Q9.517767,10.25,9,10.25Q8.4822329,10.25,8.1161164,9.8838835Q7.74999982,9.517767,7.74999976,8.9999999Q7.75,8.4822329,8.1161165,8.1161164Z" fill-rule="evenodd" fill="#111111" fill-opacity="1"/><path d="M14.5556698,11.383669450758301L5.46966994,20.4696693147583L5.4697761499999995,20.4697752147583Q5.364308,20.5752430147583,5.30722898,20.7130442147583Q5.25014997,20.8508444147583,5.25014997,21.0000000147583Q5.25014997,21.0738535147583,5.2645582,21.1462879147583Q5.27896631,21.218722314758303,5.30722892,21.2869539147583Q5.33549154,21.3551853147583,5.37652254,21.4165923147583Q5.4175534800000005,21.4779993147583,5.46977597,21.530223314758302Q5.52199849,21.582445314758303,5.58340567,21.6234763147583Q5.64481282,21.6645083147583,5.71304482,21.6927703147583Q5.78127682,21.7210333147583,5.85371152,21.735442314758302Q5.926146217,21.7498503147583,6,21.7498503147583Q6.14915454,21.7498503147583,6.28695536,21.6927713147583Q6.42475617,21.6356913147583,6.53022432,21.5302243147583L6.53033006,21.5303293147583L15.6163301,12.444329614758301Q15.9823427,12.0784273147583,16.5,12.078427254758301Q17.017657,12.0784273147583,17.383749,12.444409614758301L20.469669,15.5303297147583L20.469775,15.530223814758301Q20.575243,15.6356916147583,20.713043,15.6927709147583Q20.850844000000002,15.749850314758302,21,15.749850314758302Q21.073853,15.749850314758302,21.146287,15.7354421147583Q21.218721000000002,15.7210340147583,21.286953,15.6927709147583Q21.355185,15.6645079147583,21.416594,15.6234770147583Q21.478001,15.582446114758302,21.530224,15.530223814758301Q21.582445999999997,15.4780011147583,21.623477,15.416594014758301Q21.664507,15.3551864147583,21.69277,15.2869546147583Q21.721032,15.218722814758301,21.735441,15.1462881147583Q21.749848999999998,15.073853514758301,21.749850000000002,15.000000014758301Q21.749848999999998,14.8508453147583,21.69277,14.7130444147583Q21.635691,14.5752435147583,21.530224,14.4697757147583L21.53033,14.469669814758301L18.44425,11.3835894687583Q17.638844,10.5784273147583,16.5,10.578427254758301Q15.3611555,10.5784273147583,14.5556698,11.383669450758301Z" fill-rule="evenodd" fill="#111111" fill-opacity="1"/></svg>