<svg xmlns="http://www.w3.org/2000/svg" xmlns:xlink="http://www.w3.org/1999/xlink" fill="none" version="1.1" width="24" height="24" viewBox="0 0 24 24"><path d="M22.75310164201355,4.50000004201355Q22.75310164201355,4.10521604201355,22.59954764201355,3.74152274201355Q22.44599364201355,3.37783574201355,22.16306364201355,3.10250234201355L20.89033164201355,1.82967007201355Q20.61695964201355,1.5534495120135499,20.25472664201355,1.4023120420135498Q19.89249664201355,1.2511756420135498,19.50000064201355,1.2511756420135498Q19.10750464201355,1.2511756420135498,18.74527464201355,1.4023120420135498Q18.38304164201355,1.5534495120135499,18.10694164201355,1.8324123020135499L1.8296698320135498,18.10966964201355Q1.5534495120135499,18.38304164201355,1.4023120420135498,18.74527464201355Q1.2511756420135498,19.10750464201355,1.2511756420135498,19.50000064201355Q1.2511756420135498,19.89249664201355,1.4023120420135498,20.25472664201355Q1.5534495120135499,20.61695964201355,1.8324123020135499,20.89305964201355L3.10967024201355,22.17033064201355Q3.3778358420135497,22.44599364201355,3.74152274201355,22.59954764201355Q4.10521604201355,22.75310164201355,4.50000004201355,22.75310164201355Q4.89478394201355,22.75310164201355,5.25847724201355,22.59954764201355Q5.62216444201355,22.44599364201355,5.897497942013549,22.16306364201355L22.17033064201355,5.89033004201355Q22.44599364201355,5.62216444201355,22.59954764201355,5.25847724201355Q22.75310164201355,4.89478394201355,22.75310164201355,4.50000004201355ZM21.11693664201355,4.177497842013549Q21.18223064201355,4.24103804201355,21.21766564201355,4.324966442013549Q21.25310164201355,4.4088976420135495,21.25310164201355,4.50000004201355Q21.25310164201355,4.591102342013549,21.21766564201355,4.67503354201355Q21.18223064201355,4.75896214201355,21.10966964201355,4.8296701420135495L4.82250234201355,21.11693664201355Q4.75896214201355,21.18223064201355,4.67503354201355,21.21766564201355Q4.591102342013549,21.25310164201355,4.50000004201355,21.25310164201355Q4.4088976420135495,21.25310164201355,4.324966442013549,21.21766564201355Q4.24103804201355,21.18223064201355,4.170329842013549,21.10966964201355L2.88758749201355,19.82694364201355Q2.82211888201355,19.76214664201355,2.7866461320135496,19.67712864201355Q2.75117564201355,19.59211564201355,2.75117564201355,19.50000064201355Q2.75117564201355,19.40788564201355,2.7866461320135496,19.32287264201355Q2.82211888201355,19.23785464201355,2.8903299520135497,19.17033064201355L19.17305864201355,2.88758749201355Q19.23785464201355,2.82211888201355,19.32287264201355,2.7866461320135496Q19.40788564201355,2.75117564201355,19.50000064201355,2.75117564201355Q19.59211564201355,2.75117564201355,19.67712864201355,2.7866461320135496Q19.76214664201355,2.82211888201355,19.82967064201355,2.8903297220135498L21.11693664201355,4.177497842013549Z" fill-rule="evenodd" fill="#111111" fill-opacity="1"/><path d="M13.46977597,7.53022403Q13.36430788,7.42475593,13.30722892,7.28695518Q13.25014997,7.14915444,13.25014997,7Q13.25014997,6.926146217,13.2645582,6.85371152Q13.27896631,6.78127682,13.30722892,6.71304482Q13.33549154,6.64481282,13.37652254,6.58340567Q13.41755348,6.52199849,13.46977597,6.46977597Q13.52199849,6.4175534800000005,13.58340567,6.37652254Q13.64481282,6.33549154,13.71304482,6.30722892Q13.78127682,6.27896631,13.85371152,6.2645582Q13.926146217,6.25014997,14,6.25014997Q14.14915444,6.25014997,14.28695518,6.30722886Q14.42475593,6.36430788,14.53022403,6.46977597L14.53033006,6.46966994L17.530329899999998,9.4696698L17.5302238,9.4697759Q17.6356921,9.5752439,17.692771,9.7130446Q17.74985,9.8508456,17.74985,10Q17.7498498,10.0738535,17.7354417,10.1462882Q17.7210336,10.2187228,17.6927707,10.2869549Q17.6645081,10.3551869,17.623477,10.416594Q17.5824461,10.4780011,17.5302238,10.5302238Q17.4780011,10.5824461,17.416594,10.623477Q17.3551869,10.6645079,17.2869549,10.6927705Q17.218722800000002,10.7210333,17.1462882,10.7354414Q17.0738535,10.7498498,17,10.74985Q16.8508456,10.74985,16.7130446,10.692771Q16.5752439,10.6356921,16.469775900000002,10.5302238L16.4696698,10.5303299L13.46966994,7.53033006L13.46977597,7.53022403Z" fill-rule="evenodd" fill="#111111" fill-opacity="1"/><path d="M4.25014997,6Q4.25014997,5.926146217,4.2645582,5.85371152Q4.27896631,5.78127682,4.30722892,5.71304482Q4.33549154,5.64481282,4.37652254,5.58340567Q4.4175534800000005,5.52199849,4.46977597,5.46977597Q4.52199849,5.4175534800000005,4.58340567,5.37652254Q4.64481282,5.33549154,4.71304482,5.30722892Q4.78127682,5.27896631,4.85371152,5.2645582Q4.926146217,5.25014997,5,5.25014997Q5.073853783,5.25014997,5.14628848,5.2645582Q5.21872318,5.27896631,5.28695518,5.30722892Q5.35518718,5.33549154,5.41659433,5.37652254Q5.47800151,5.4175534800000005,5.53022403,5.46977597Q5.5824465199999995,5.52199849,5.62347746,5.58340567Q5.66450846,5.64481282,5.69277108,5.71304482Q5.72103369,5.78127682,5.7354418,5.85371152Q5.74985003,5.926146217,5.74985003,6L5.75,6L5.75,10L5.74985003,10Q5.74985003,10.0738535,5.7354418,10.1462884Q5.72103369,10.2187233,5.69277108,10.2869549Q5.66450846,10.3551869,5.62347746,10.416594Q5.5824465199999995,10.478001599999999,5.53022403,10.5302238Q5.47800151,10.5824461,5.41659433,10.623477000000001Q5.35518718,10.6645079,5.28695518,10.692771Q5.21872318,10.7210336,5.14628848,10.7354422Q5.073853783,10.7498503,5,10.7498503Q4.926146217,10.7498503,4.85371152,10.735441699999999Q4.78127682,10.7210336,4.71304482,10.692771Q4.64481282,10.6645079,4.58340567,10.623477000000001Q4.52199849,10.5824461,4.46977597,10.5302238Q4.4175534800000005,10.478001599999999,4.37652254,10.416594Q4.33549154,10.3551869,4.30722892,10.2869549Q4.27896631,10.2187233,4.2645582,10.1462884Q4.25014997,10.0738535,4.25014997,10L4.25,10L4.25,6L4.25014997,6Z" fill-rule="evenodd" fill="#111111" fill-opacity="1"/><path d="M18.25014997,14Q18.25014997,13.926146217,18.2645582,13.85371152Q18.27896631,13.78127682,18.30722892,13.71304482Q18.33549154,13.64481282,18.37652254,13.58340567Q18.41755348,13.52199849,18.46977597,13.46977597Q18.52199849,13.41755348,18.58340567,13.37652254Q18.64481282,13.33549154,18.71304482,13.30722892Q18.78127682,13.27896631,18.85371152,13.2645582Q18.926146217,13.25014997,19,13.25014997Q19.073853783,13.25014997,19.14628848,13.2645582Q19.21872318,13.27896631,19.28695518,13.30722892Q19.35518718,13.33549154,19.41659433,13.37652254Q19.47800151,13.41755348,19.53022403,13.46977597Q19.58244652,13.52199849,19.62347746,13.58340567Q19.66450846,13.64481282,19.69277108,13.71304482Q19.72103369,13.78127682,19.7354418,13.85371152Q19.74985003,13.926146217,19.74985003,14L19.75,14L19.75,18L19.74985003,18Q19.74985003,18.0738535,19.7354418,18.1462884Q19.72103369,18.2187233,19.69277108,18.286954899999998Q19.66450846,18.3551869,19.62347746,18.416594Q19.58244652,18.4780016,19.53022403,18.5302238Q19.47800151,18.5824461,19.41659433,18.623477Q19.35518718,18.6645079,19.28695518,18.692771Q19.21872318,18.7210336,19.14628848,18.7354422Q19.073853783,18.7498503,19,18.7498503Q18.926146217,18.7498503,18.85371152,18.7354417Q18.78127682,18.7210336,18.71304482,18.692771Q18.64481282,18.6645079,18.58340567,18.623477Q18.52199849,18.5824461,18.46977597,18.5302238Q18.41755348,18.4780016,18.37652254,18.416594Q18.33549154,18.3551869,18.30722892,18.286954899999998Q18.27896631,18.2187233,18.2645582,18.1462884Q18.25014997,18.0738535,18.25014997,18L18.25,18L18.25,14L18.25014997,14Z" fill-rule="evenodd" fill="#111111" fill-opacity="1"/><path d="M9.25014997,2Q9.25014997,1.9261462169999999,9.2645582,1.85371152Q9.27896631,1.78127682,9.30722892,1.71304482Q9.33549154,1.64481282,9.37652254,1.5834056699999999Q9.41755348,1.52199849,9.46977597,1.4697759700000002Q9.52199849,1.41755348,9.58340567,1.3765225399999999Q9.64481282,1.33549154,9.71304482,1.30722892Q9.78127682,1.27896631,9.85371152,1.2645582Q9.926146217,1.25014997,10,1.25014997Q10.073853783,1.25014997,10.14628848,1.2645582Q10.21872318,1.27896631,10.28695518,1.30722892Q10.35518718,1.33549154,10.41659433,1.3765225399999999Q10.47800151,1.41755348,10.53022403,1.4697759700000002Q10.58244652,1.52199849,10.62347746,1.5834056699999999Q10.66450846,1.64481282,10.69277108,1.71304482Q10.72103369,1.78127682,10.7354418,1.85371152Q10.74985003,1.9261462169999999,10.74985003,2L10.75,2L10.75,4L10.74985003,4Q10.74985003,4.0738535,10.7354418,4.1462882Q10.72103369,4.2187228,10.69277108,4.2869549Q10.66450846,4.3551869,10.62347746,4.416594Q10.58244652,4.4780011,10.53022403,4.5302238Q10.47800151,4.5824463,10.41659433,4.6234772Q10.35518718,4.6645083,10.28695518,4.6927710000000005Q10.21872318,4.7210336,10.14628848,4.7354417Q10.073853783,4.7498498,10,4.74985Q9.926146217,4.7498498,9.85371152,4.7354417Q9.78127682,4.7210336,9.71304482,4.6927710000000005Q9.64481282,4.6645083,9.58340567,4.6234775Q9.52199849,4.5824463,9.46977597,4.5302238Q9.41755348,4.4780011,9.37652254,4.416594Q9.33549154,4.3551869,9.30722892,4.2869549Q9.27896631,4.2187228,9.2645582,4.1462883999999995Q9.25014997,4.0738535,9.25014997,4L9.25,4L9.25,2L9.25014997,2Z" fill-rule="evenodd" fill="#111111" fill-opacity="1"/><path d="M7,7.25L3,7.25L3,7.25014997Q2.926146217,7.25014997,2.85371152,7.2645582Q2.78127682,7.27896631,2.71304482,7.30722892Q2.64481282,7.33549154,2.58340567,7.37652254Q2.52199849,7.4175534800000005,2.46977597,7.46977597Q2.41755348,7.52199849,2.37652254,7.58340567Q2.33549154,7.64481282,2.30722892,7.71304482Q2.27896631,7.78127682,2.2645581999999997,7.85371152Q2.25014997,7.926146217,2.25014997,8Q2.25014997,8.073853783,2.2645581999999997,8.14628848Q2.27896631,8.21872318,2.30722892,8.28695518Q2.33549154,8.35518718,2.37652254,8.41659433Q2.41755348,8.47800151,2.46977597,8.53022403Q2.52199849,8.58244652,2.58340567,8.62347746Q2.64481282,8.66450846,2.71304482,8.69277108Q2.78127682,8.72103369,2.85371152,8.7354418Q2.926146217,8.74985003,3,8.74985003L3,8.75L7,8.75L7,8.74985003Q7.0738535,8.74985003,7.1462884,8.7354418Q7.2187233,8.72103369,7.2869549,8.69277108Q7.3551869,8.66450846,7.416594,8.62347746Q7.4780016,8.58244652,7.5302238,8.53022403Q7.5824461,8.47800151,7.623477,8.41659433Q7.6645079,8.35518718,7.692771,8.28695518Q7.7210336,8.21872318,7.7354422,8.14628848Q7.7498503,8.073853783,7.7498503,8Q7.7498503,7.926146217,7.7354417,7.85371152Q7.7210336,7.78127682,7.692771,7.71304482Q7.6645079,7.64481282,7.623477,7.58340567Q7.5824461,7.52199849,7.5302238,7.46977597Q7.4780016,7.4175534800000005,7.416594,7.37652254Q7.3551869,7.33549154,7.2869549,7.30722892Q7.2187233,7.27896631,7.1462884,7.2645582Q7.0738535,7.25014997,7,7.25014997L7,7.25Z" fill-rule="evenodd" fill="#111111" fill-opacity="1"/><path d="M21,15.25L17,15.25L17,15.25014997Q16.926146217,15.25014997,16.85371152,15.2645582Q16.78127682,15.27896631,16.71304482,15.30722892Q16.64481282,15.33549154,16.58340567,15.37652254Q16.52199849,15.41755348,16.46977597,15.46977597Q16.41755348,15.52199849,16.37652254,15.58340567Q16.33549154,15.64481282,16.30722892,15.71304482Q16.27896631,15.78127682,16.2645582,15.85371152Q16.25014997,15.926146217,16.25014997,16Q16.25014997,16.073853783,16.2645582,16.14628848Q16.27896631,16.21872318,16.30722892,16.28695518Q16.33549154,16.35518718,16.37652254,16.41659433Q16.41755348,16.47800151,16.46977597,16.53022403Q16.52199849,16.58244652,16.58340567,16.62347746Q16.64481282,16.66450846,16.71304482,16.69277108Q16.78127682,16.72103369,16.85371152,16.7354418Q16.926146217,16.74985003,17,16.74985003L17,16.75L21,16.75L21,16.74985003Q21.0738535,16.74985003,21.1462884,16.7354418Q21.2187233,16.72103369,21.286954899999998,16.69277108Q21.3551869,16.66450846,21.416594,16.62347746Q21.4780016,16.58244652,21.5302238,16.53022403Q21.5824461,16.47800151,21.623477,16.41659433Q21.6645079,16.35518718,21.692771,16.28695518Q21.7210336,16.21872318,21.7354422,16.14628848Q21.7498503,16.073853783,21.7498503,16Q21.7498503,15.926146217,21.7354417,15.85371152Q21.7210336,15.78127682,21.692771,15.71304482Q21.6645079,15.64481282,21.623477,15.58340567Q21.5824461,15.52199849,21.5302238,15.46977597Q21.4780016,15.41755348,21.416594,15.37652254Q21.3551869,15.33549154,21.286954899999998,15.30722892Q21.2187233,15.27896631,21.1462884,15.2645582Q21.0738535,15.25014997,21,15.25014997L21,15.25Z" fill-rule="evenodd" fill="#111111" fill-opacity="1"/><path d="M11,2.25L9,2.25L9,2.25014997Q8.926146217,2.25014997,8.85371152,2.2645581999999997Q8.78127682,2.27896631,8.71304482,2.30722892Q8.64481282,2.33549154,8.58340567,2.37652254Q8.52199849,2.41755348,8.46977597,2.46977597Q8.41755348,2.52199849,8.37652254,2.58340567Q8.33549154,2.64481282,8.30722892,2.71304482Q8.27896631,2.78127682,8.2645582,2.85371152Q8.25014997,2.926146217,8.25014997,3Q8.25014997,3.073853783,8.2645582,3.14628848Q8.27896631,3.21872318,8.30722892,3.28695518Q8.33549154,3.35518718,8.37652254,3.41659433Q8.41755348,3.47800151,8.46977597,3.53022403Q8.52199849,3.58244652,8.58340567,3.62347746Q8.64481282,3.66450846,8.71304482,3.69277108Q8.78127682,3.72103369,8.85371152,3.7354418000000003Q8.926146217,3.74985003,9,3.74985003L9,3.75L11,3.75L11,3.74985003Q11.0738535,3.74985003,11.1462882,3.7354418000000003Q11.2187228,3.72103369,11.2869549,3.69277108Q11.3551869,3.66450846,11.416594,3.62347746Q11.4780011,3.58244652,11.5302238,3.53022403Q11.5824463,3.47800151,11.6234772,3.41659433Q11.6645083,3.35518718,11.692771,3.28695518Q11.7210336,3.21872318,11.735441699999999,3.14628848Q11.7498498,3.073853783,11.74985,3Q11.7498498,2.926146217,11.735441699999999,2.85371152Q11.7210336,2.78127682,11.692771,2.71304482Q11.6645083,2.64481282,11.6234775,2.58340567Q11.5824463,2.52199849,11.5302238,2.46977597Q11.4780011,2.41755348,11.416594,2.37652254Q11.3551869,2.33549154,11.2869549,2.30722892Q11.2187228,2.27896631,11.1462884,2.2645581999999997Q11.0738535,2.25014997,11,2.25014997L11,2.25Z" fill-rule="evenodd" fill="#111111" fill-opacity="1"/></svg>