<svg xmlns="http://www.w3.org/2000/svg" xmlns:xlink="http://www.w3.org/1999/xlink" fill="none" version="1.1" width="24" height="24" viewBox="0 0 24 24"><path d="M20.6516504,12.34834963Q19.5533009,11.25,18,11.25Q16.4466994,11.25000018,15.34834963,12.34834975Q14.25,13.4466994,14.25000018,15Q14.25000018,16.5533009,15.34834975,17.6516504Q16.4466994,18.75,18,18.75Q19.5533009,18.75,20.6516504,17.6516504Q21.75,16.5533009,21.75,15Q21.75,13.4466991,20.6516504,12.34834963ZM16.4090098,13.409009900000001Q17.0680196,12.75000018,18,12.75000018Q18.9319806,12.75,19.5909905,13.4090098Q20.25,14.0680194,20.25,15Q20.25,15.9319811,19.5909905,16.5909905Q18.9319811,17.25,18,17.25Q17.0680194,17.25,16.4090099,16.5909905Q15.75000018,15.9319806,15.75000018,15Q15.75,14.0680196,16.4090098,13.409009900000001Z" fill-rule="evenodd" fill="#111111" fill-opacity="1"/><path d="M12.3587575,3.64124274Q10.967514999999999,2.25,9,2.25Q7.0324857000000005,2.24999964,5.64124274,3.64124262Q4.25,5.0324852,4.24999952,7Q4.24999964,8.9675145,5.64124262,10.3587575Q7.032484800000001,11.75,9,11.75Q10.967514999999999,11.75,12.3587575,10.3587575Q13.75,8.967514999999999,13.75,7Q13.75,5.0324852,12.3587575,3.64124274ZM6.7019029,4.7019027Q7.6538056999999995,3.74999976,9,3.7499995200000003Q10.3461943,3.75,11.2980971,4.7019029Q12.25,5.6538056999999995,12.25,7Q12.25,8.3461943,11.2980971,9.2980971Q10.3461943,10.25,9,10.25Q7.6538056999999995,10.25,6.7019027,9.2980971Q5.74999976,8.3461943,5.74999952,7Q5.75,5.6538056999999995,6.7019029,4.7019027Z" fill-rule="evenodd" fill="#111111" fill-opacity="1"/><path d="M1.25,19L1.25,21L1.25014997,21Q1.25014997,21.0738535,1.2645582,21.1462879Q1.27896631,21.2187223,1.30722892,21.2869544Q1.33549154,21.355186500000002,1.3765225399999999,21.4165936Q1.41755348,21.4780011,1.4697759700000002,21.5302238Q1.52199849,21.5824461,1.5834056699999999,21.623477Q1.64481282,21.6645079,1.71304482,21.692771Q1.78127682,21.7210331,1.85371152,21.7354412Q1.9261462169999999,21.7498503,2,21.7498503Q2.073853783,21.7498503,2.14628848,21.7354417Q2.21872318,21.7210331,2.28695518,21.6927705Q2.35518718,21.6645079,2.41659433,21.623477Q2.47800151,21.5824461,2.53022403,21.5302238Q2.58244652,21.4780011,2.62347746,21.416594Q2.66450846,21.355186500000002,2.69277108,21.286954899999998Q2.72103369,21.218722800000002,2.7354418000000003,21.1462879Q2.74985003,21.0738535,2.74985003,21L2.75,21L2.75,19Q2.75,17.6538069,3.7019031,16.7019036Q4.6538067000000005,15.75,6,15.75L10,15.75L10,15.74985003Q10.0738535,15.74985003,10.1462879,15.7354418Q10.2187233,15.72103369,10.2869549,15.69277108Q10.3551865,15.66450846,10.4165936,15.62347746Q10.4780006,15.58244652,10.5302238,15.53022403Q10.5824451,15.47800151,10.623477,15.41659433Q10.6645069,15.35518718,10.69277,15.28695518Q10.7210331,15.21872318,10.7354412,15.14628848Q10.7498493,15.073853783,10.7498503,15Q10.7498493,14.926146217,10.7354412,14.85371152Q10.7210331,14.78127682,10.69277,14.71304482Q10.6645069,14.64481282,10.623477,14.58340567Q10.5824451,14.52199849,10.5302238,14.46977597Q10.4780006,14.41755348,10.4165936,14.37652254Q10.3551865,14.33549154,10.2869549,14.30722892Q10.2187233,14.27896631,10.1462879,14.2645582Q10.0738535,14.25014997,10,14.25014997L10,14.25L6,14.25Q4.0324860000000005,14.25000012,2.64124292,15.64124346Q1.25,17.0324864,1.25,19Z" fill-rule="evenodd" fill="#111111" fill-opacity="1"/><path d="M21.037121747060546,15.388629851469727Q20.921682667060548,15.350150351469727,20.799999237060547,15.350150351469727Q20.726145454060546,15.350150351469727,20.653710757060548,15.364558581469726Q20.581276057060546,15.378966691469726,20.513044057060547,15.407229301469727Q20.444812057060545,15.435491921469726,20.383404907060548,15.476522921469726Q20.32199772706055,15.517553861469727,20.269775207060547,15.569776351469727Q20.217552717060546,15.621998871469726,20.176521777060547,15.683406051469726Q20.135490777060546,15.744813201469727,20.107228157060547,15.813045201469727Q20.078965547060548,15.881277201469727,20.064557437060547,15.953711901469726Q20.050149207060546,16.026146598469726,20.050149207060546,16.100000381469727Q20.050149207060546,16.158656951469727,20.05927014706055,16.216600041469725Q20.068391147060545,16.274543131469727,20.086411117060546,16.330363151469726Q20.104431157060546,16.386183141469726,20.130911827060547,16.438522101469726Q20.157392497060545,16.490861061469726,20.191689547060548,16.538445771469725Q20.225986717060547,16.586030421469726,20.267265977060546,16.627703191469728Q20.308545177060548,16.669375891469727,20.355802297060546,16.704123021469726Q20.403059427060548,16.738870021469726,20.455144827060547,16.765846011469726Q20.507230227060546,16.792822121469726,20.562876727060548,16.811370911469727L20.562829297060546,16.811513181469728L21.462830777060546,17.111512381469726L21.462878227060546,17.111370081469726Q21.578317347060548,17.149849681469725,21.700000767060548,17.149849681469725Q21.773854497060547,17.149849681469725,21.84628913706055,17.135441581469728Q21.918723837060547,17.121033381469726,21.986955737060548,17.092770691469727Q22.055187737060546,17.064508081469725,22.116594937060547,17.023477081469725Q22.178002137060545,16.982446071469727,22.230224637060548,16.930223581469726Q22.282447137060547,16.878001091469727,22.323477937060545,16.816593881469725Q22.364508937060545,16.755186741469725,22.392771737060546,16.686954741469727Q22.421034337060547,16.61872274146973,22.435442437060548,16.546288071469725Q22.449850637060546,16.473853381469727,22.44985083706055,16.399999621469725Q22.449850637060546,16.341343041469727,22.440729737060547,16.283399951469725Q22.431608837060548,16.225456861469727,22.413588837060548,16.169636853469726Q22.395568837060548,16.113816846469728,22.369088037060546,16.061477873469727Q22.342607537060548,16.009138897469725,22.30831043706055,15.961554231469727Q22.274013237060547,15.913969571469726,22.232733937060548,15.872296841469726Q22.191454737060546,15.830624101469727,22.144197737060548,15.795877041469726Q22.096940537060547,15.761129971469726,22.044855137060548,15.734153951469727Q21.99276973706055,15.707177911469726,21.937123337060548,15.688629121469727L21.937170737060548,15.688486841469727L21.037169177060548,15.388487581469727L21.037121747060546,15.388629851469727Z" fill-rule="evenodd" fill="#111111" fill-opacity="1"/><path d="M14.537122700734864,12.888629851469727Q14.421683620734862,12.850150351469727,14.300000190734863,12.850150351469727Q14.226146407734863,12.850150351469727,14.153711710734862,12.864558581469726Q14.081277010734864,12.878966691469726,14.013045010734864,12.907229301469727Q13.944813010734864,12.935491921469726,13.883405860734863,12.976522921469726Q13.821998680734863,13.017553861469727,13.769776160734864,13.069776351469727Q13.717553670734864,13.121998871469726,13.676522730734863,13.183406051469726Q13.635491730734863,13.244813201469727,13.607229110734863,13.313045201469727Q13.578966500734863,13.381277201469727,13.564558390734863,13.453711901469726Q13.550150160734864,13.526146598469726,13.550150160734864,13.600000381469727Q13.550150160734864,13.658656951469727,13.559271100734863,13.716600041469727Q13.568392100734863,13.774543131469727,13.586412070734863,13.830363151469726Q13.604432110734864,13.886183141469726,13.630912780734864,13.938522101469726Q13.657393450734864,13.990861061469726,13.691690500734863,14.038445771469727Q13.725987670734863,14.086030421469726,13.767266930734863,14.127703191469726Q13.808546130734863,14.169375891469727,13.855803250734864,14.204123021469726Q13.903060380734864,14.238870021469726,13.955145780734863,14.265846011469726Q14.007231180734863,14.292822121469726,14.062877680734863,14.311370911469727L14.062830250734864,14.311513181469726L14.962831730734862,14.611512381469726L14.962879180734863,14.611370081469726Q15.078318300734864,14.649849681469727,15.200001720734864,14.649849681469727Q15.273855450734864,14.649849681469727,15.346290090734863,14.635441581469726Q15.418724790734863,14.621033381469726,15.486956690734864,14.592770691469727Q15.555188690734862,14.564508081469727,15.616595890734864,14.523477081469727Q15.678003090734864,14.482446071469727,15.730225590734863,14.430223581469727Q15.782448090734864,14.378001091469727,15.823478890734863,14.316593881469727Q15.864509890734864,14.255186741469727,15.892772690734864,14.186954741469727Q15.921035290734864,14.118722741469727,15.935443390734864,14.046288071469727Q15.949851590734863,13.973853381469727,15.949851790734863,13.899999621469727Q15.949851590734863,13.841343041469727,15.940730690734863,13.783399951469727Q15.931609790734864,13.725456861469727,15.913589790734864,13.669636853469726Q15.895569790734863,13.613816846469726,15.869088990734863,13.561477873469727Q15.842608490734863,13.509138897469727,15.808311390734863,13.461554231469727Q15.774014190734864,13.413969571469726,15.732734890734863,13.372296841469726Q15.691455690734863,13.330624101469727,15.644198690734864,13.295877041469726Q15.596941490734864,13.261129971469726,15.544856090734863,13.234153951469727Q15.492770690734863,13.207177911469726,15.437124290734863,13.188629121469727L15.437171690734864,13.188486841469727L14.537170130734863,12.888487581469727L14.537122700734864,12.888629851469727Z" fill-rule="evenodd" fill="#111111" fill-opacity="1"/><path d="M17.611370081469726,18.037121747060546Q17.649849681469725,17.921682667060548,17.649849681469725,17.799999237060547Q17.649849681469725,17.726145454060546,17.635441581469728,17.653710757060548Q17.621033381469726,17.581276057060546,17.592770691469727,17.513044057060547Q17.564508081469725,17.444812057060545,17.523477081469725,17.383404907060548Q17.482446071469727,17.32199772706055,17.430223581469726,17.269775207060547Q17.378001091469727,17.217552717060546,17.316593881469725,17.176521777060547Q17.255186741469725,17.135490777060546,17.186954741469727,17.107228157060547Q17.11872274146973,17.078965547060548,17.046288071469725,17.064557437060547Q16.973853381469727,17.050149207060546,16.899999621469725,17.050149207060546Q16.841343031469727,17.050149207060546,16.783399941469728,17.05927014706055Q16.725456851469726,17.068391147060545,16.669636845469725,17.086411117060546Q16.613816835469727,17.104431157060546,16.561477862469726,17.130911827060547Q16.509138882469728,17.157392497060545,16.461554211469725,17.191689547060548Q16.413969551469727,17.225986717060547,16.372296811469727,17.267265977060546Q16.330624041469726,17.308545177060548,16.295877011469727,17.355802297060546Q16.261129971469728,17.403059427060548,16.234153921469726,17.455144827060547Q16.207177911469728,17.507230227060546,16.188629121469727,17.562876727060548L16.188486841469725,17.562829297060546L15.888487581469727,18.462830777060546L15.888629911469726,18.462878227060546Q15.850150351469727,18.578317347060548,15.850150351469727,18.700000767060548Q15.850150351469727,18.773854497060547,15.864558581469726,18.84628913706055Q15.878966691469726,18.918723837060547,15.907229301469727,18.986955737060548Q15.935491921469726,19.055187737060546,15.976522921469726,19.116594937060547Q16.017553861469725,19.178002137060545,16.069776351469727,19.230224637060548Q16.121998871469728,19.282447137060547,16.183406051469728,19.323477937060545Q16.244813201469725,19.364508937060545,16.313045201469727,19.392771737060546Q16.381277201469725,19.421034337060547,16.453711901469728,19.435442437060548Q16.526146598469726,19.449850637060546,16.600000381469727,19.44985083706055Q16.658656951469727,19.449850637060546,16.716600041469725,19.440729737060547Q16.774543131469727,19.431608837060548,16.830363151469726,19.413588837060548Q16.886183141469726,19.395568837060548,16.938522101469726,19.369088037060546Q16.990861061469726,19.342607537060548,17.038445771469725,19.30831043706055Q17.086030421469726,19.274013237060547,17.127703191469728,19.232733937060548Q17.169375891469727,19.191454737060546,17.204122961469725,19.144197737060548Q17.238869901469727,19.096940537060547,17.265845951469725,19.044855137060548Q17.292822001469727,18.99276973706055,17.311370851469725,18.937123337060548L17.311513181469728,18.937170737060548L17.611512381469726,18.037169177060548L17.611370081469726,18.037121747060546Z" fill-rule="evenodd" fill="#111111" fill-opacity="1"/><path d="M20.111370081469726,11.537122700734864Q20.149849681469725,11.421683620734862,20.149849681469725,11.300000190734863Q20.149849681469725,11.226146407734863,20.135441581469728,11.153711710734862Q20.121033381469726,11.081277010734864,20.092770691469727,11.013045010734864Q20.064508081469725,10.944813010734864,20.023477081469725,10.883405860734863Q19.982446071469727,10.821998680734863,19.930223581469726,10.769776160734864Q19.878001091469727,10.717553670734864,19.816593881469725,10.676522730734863Q19.755186741469725,10.635491730734863,19.686954741469727,10.607229110734863Q19.61872274146973,10.578966500734863,19.546288071469725,10.564558390734863Q19.473853381469727,10.550150160734864,19.399999621469725,10.550150160734864Q19.341343031469727,10.550150160734864,19.283399941469728,10.559271100734863Q19.225456851469726,10.568392100734863,19.169636845469725,10.586412070734863Q19.113816835469727,10.604432110734864,19.061477862469726,10.630912780734864Q19.009138882469728,10.657393450734864,18.961554211469725,10.691690500734863Q18.913969551469727,10.725987670734863,18.872296811469727,10.767266930734863Q18.830624041469726,10.808546130734863,18.795877011469727,10.855803250734864Q18.761129971469728,10.903060380734864,18.734153921469726,10.955145780734863Q18.707177911469728,11.007231180734863,18.688629121469727,11.062877680734863L18.688486841469725,11.062830250734864L18.388487581469725,11.962831730734862L18.388629911469728,11.962879180734863Q18.350150351469726,12.078318300734864,18.350150351469726,12.200001720734864Q18.350150351469726,12.273855450734864,18.364558581469726,12.346290090734863Q18.378966691469728,12.418724790734863,18.407229301469727,12.486956690734864Q18.435491921469726,12.555188690734862,18.476522921469726,12.616595890734864Q18.517553861469725,12.678003090734864,18.569776351469727,12.730225590734863Q18.621998871469728,12.782448090734864,18.683406051469728,12.823478890734863Q18.744813201469725,12.864509890734864,18.813045201469727,12.892772690734864Q18.881277201469725,12.921035290734864,18.953711901469728,12.935443390734864Q19.026146598469726,12.949851590734863,19.100000381469727,12.949851790734863Q19.158656951469727,12.949851590734863,19.216600041469725,12.940730690734863Q19.274543131469727,12.931609790734864,19.330363151469726,12.913589790734864Q19.386183141469726,12.895569790734863,19.438522101469726,12.869088990734863Q19.490861061469726,12.842608490734863,19.538445771469725,12.808311390734863Q19.586030421469726,12.774014190734864,19.627703191469728,12.732734890734863Q19.669375891469727,12.691455690734863,19.704122961469725,12.644198690734864Q19.738869901469727,12.596941490734864,19.765845951469725,12.544856090734863Q19.792822001469727,12.492770690734863,19.811370851469725,12.437124290734863L19.811513181469728,12.437171690734864L20.111512381469726,11.537170130734863L20.111370081469726,11.537122700734864Z" fill-rule="evenodd" fill="#111111" fill-opacity="1"/><path d="M18.503782392939453,17.978487852939452Q18.450150732939452,17.844408552939452,18.450150732939452,17.700000762939453Q18.450150732939452,17.626146979939453,18.464558962939453,17.553712282939454Q18.478967072939454,17.48127758293945,18.507229682939453,17.413045582939453Q18.535492302939453,17.34481358293945,18.576523302939453,17.283406432939454Q18.617554242939452,17.221999252939455,18.669776732939454,17.169776732939454Q18.721999252939455,17.117554242939452,18.783406432939454,17.076523302939453Q18.84481358293945,17.035492302939453,18.913045582939453,17.007229682939453Q18.98127758293945,16.978967072939454,19.053712282939454,16.964558962939453Q19.126146979939453,16.950150732939452,19.200000762939453,16.950150732939452Q19.312398782939454,16.950150732939452,19.419857022939453,16.983105892939452Q19.527315292939452,17.016061062939453,19.620388392939454,17.07907462293945Q19.713461522939454,17.142088172939452,19.783968512939452,17.229621472939453Q19.85447555293945,17.317154702939455,19.896219132939454,17.421513672939454L19.896358372939453,17.421457972939454L20.296357962939453,18.421458002939453L20.296218762939453,18.421513672939454Q20.349850462939454,18.555592952939453,20.349850462939454,18.700000762939453Q20.349850462939454,18.773854462939454,20.335442162939454,18.846289162939453Q20.321033962939453,18.91872386293945,20.292771362939455,18.986955762939452Q20.264508762939453,19.055187662939453,20.223477762939453,19.116594762939453Q20.182446832939455,19.178001962939454,20.130224342939453,19.230224562939455Q20.078001852939455,19.282447062939454,20.016594652939453,19.323478062939454Q19.955187502939452,19.364508962939453,19.886955502939454,19.39277156293945Q19.818723562939454,19.42103436293945,19.746288832939452,19.435442462939452Q19.673854142939454,19.449850662939454,19.600000382939452,19.44985076293945Q19.487602382939453,19.44985076293945,19.380144132939453,19.416895662939453Q19.272685899939454,19.383940562939454,19.17961279293945,19.320927062939454Q19.086539682939453,19.257913462939452,19.016032632939453,19.170380262939453Q18.945525582939453,19.082846862939455,18.903782042939454,18.978487962939454L18.90364280293945,18.978543662939455L18.503643152939453,17.978543552939453L18.503782392939453,17.978487852939452Z" fill-rule="evenodd" fill="#111111" fill-opacity="1"/><path d="M15.703781248530273,11.578487280734864Q15.650149588530274,11.444407980734864,15.650149588530274,11.300000190734863Q15.650149588530274,11.226146407734863,15.664557818530273,11.153711710734862Q15.678965928530273,11.081277010734864,15.707228538530273,11.013045010734864Q15.735491158530273,10.944813010734864,15.776522158530273,10.883405860734863Q15.817553098530274,10.821998680734863,15.869775588530274,10.769776160734864Q15.921998108530273,10.717553670734864,15.983405288530273,10.676522730734863Q16.044812438530272,10.635491730734863,16.113044438530274,10.607229110734863Q16.181276438530272,10.578966500734863,16.253711138530274,10.564558390734863Q16.326145835530273,10.550150160734864,16.399999618530273,10.550150160734864Q16.512397638530274,10.550150160734864,16.619855878530274,10.583105320734862Q16.727314148530272,10.616060490734863,16.820387248530274,10.679074050734863Q16.913460378530274,10.742087600734862,16.983967368530273,10.829620900734863Q17.05447440853027,10.917154130734863,17.096217988530274,11.021513100734863L17.096357228530273,11.021457400734864L17.496356818530273,12.021457430734863L17.496217618530274,12.021513100734863Q17.549849318530274,12.155592380734863,17.549849318530274,12.300000190734863Q17.549849318530274,12.373853890734864,17.535441018530275,12.446288590734863Q17.521032818530273,12.518723290734863,17.492770218530275,12.586955190734864Q17.464507618530273,12.655187090734863,17.423476618530273,12.716594190734863Q17.382445688530275,12.778001390734863,17.330223198530273,12.830223990734863Q17.278000708530275,12.882446490734864,17.216593508530273,12.923477490734863Q17.155186358530273,12.964508390734863,17.086954358530274,12.992770990734863Q17.018722418530274,13.021033790734863,16.946287688530273,13.035441890734862Q16.873852998530275,13.049850090734864,16.799999238530273,13.049850190734864Q16.687601238530274,13.049850190734864,16.580142988530273,13.016895090734863Q16.472684755530274,12.983939990734864,16.379611648530272,12.920926490734864Q16.286538538530273,12.857912890734863,16.216031488530273,12.770379690734863Q16.145524438530273,12.682846290734863,16.103780898530275,12.578487390734864L16.10364165853027,12.578543090734863L15.703642008530274,11.578542980734863L15.703781248530273,11.578487280734864Z" fill-rule="evenodd" fill="#111111" fill-opacity="1"/><path d="M15.578487390734864,16.896219072939452Q15.682846290734863,16.854475502939454,15.770379590734864,16.783968512939452Q15.857912890734863,16.713461522939454,15.920926490734864,16.620388392939454Q15.983939990734864,16.527315292939452,16.016895190734864,16.419857022939453Q16.049850190734862,16.312398782939454,16.049850190734862,16.200000762939453Q16.049850090734864,16.126146979939453,16.035441990734864,16.053712282939454Q16.02103379073486,15.981277582939454,15.992771190734864,15.913045582939453Q15.964508490734863,15.844813582939453,15.923477390734863,15.783406432939453Q15.882446490734864,15.721999252939453,15.830223990734863,15.669776732939454Q15.778001390734863,15.617554242939454,15.716594190734863,15.576523302939453Q15.655187090734863,15.535492302939453,15.586955190734864,15.507229682939453Q15.518723290734863,15.478967072939453,15.446288590734863,15.464558962939453Q15.373853890734864,15.450150732939454,15.300000190734863,15.450150732939454Q15.155592380734863,15.450150732939454,15.021513100734863,15.503782392939453L15.021457430734863,15.503643152939453L14.021457400734864,15.903642802939453L14.021513100734863,15.903782012939454Q13.917154130734863,15.945525552939452,13.829620900734863,16.016032602939454Q13.742087600734862,16.086539652939454,13.679074050734863,16.179612755939452Q13.616060490734863,16.272685862939454,13.583105320734862,16.380144102939454Q13.550150160734864,16.487602352939454,13.550150160734864,16.600000382939452Q13.550150160734864,16.673854142939454,13.564558390734863,16.746288832939452Q13.578966500734863,16.818723562939454,13.607229110734863,16.886955502939454Q13.635491730734863,16.955187502939452,13.676522730734863,17.016594652939453Q13.717553670734864,17.078001852939455,13.769776160734864,17.130224342939453Q13.821998680734863,17.182446832939455,13.883405860734863,17.223477862939454Q13.944813010734864,17.264508762939453,14.013045010734864,17.292771362939455Q14.081277010734864,17.321033962939453,14.153711710734862,17.335442062939453Q14.226146407734863,17.349850462939454,14.300000190734863,17.349850462939454Q14.444407980734864,17.349850462939454,14.578487280734864,17.296218762939453L14.578542980734863,17.296357962939453L15.578543090734863,16.896358372939453L15.578487390734864,16.896219072939452Z" fill-rule="evenodd" fill="#111111" fill-opacity="1"/><path d="M21.978487962939454,14.096217928530274Q22.082846862939455,14.054474358530273,22.170380162939452,13.983967368530273Q22.257913462939452,13.913460378530273,22.320927062939454,13.820387248530274Q22.383940562939454,13.727314148530274,22.416895762939454,13.619855878530274Q22.44985076293945,13.512397638530274,22.44985076293945,13.399999618530273Q22.449850662939454,13.326145835530273,22.435442562939453,13.253711138530273Q22.42103436293945,13.181276438530274,22.392771762939454,13.113044438530274Q22.364509062939455,13.044812438530274,22.323477962939453,12.983405288530273Q22.282447062939454,12.921998108530273,22.230224562939455,12.869775588530274Q22.178001962939454,12.817553098530274,22.116594762939453,12.776522158530273Q22.055187662939453,12.735491158530273,21.986955762939452,12.707228538530273Q21.91872386293945,12.678965928530273,21.846289162939453,12.664557818530273Q21.773854462939454,12.650149588530274,21.700000762939453,12.650149588530274Q21.555592952939453,12.650149588530274,21.421513672939454,12.703781248530273L21.421458002939453,12.703642008530274L20.421457972939454,13.103641658530274L20.421513672939454,13.103780868530274Q20.317154702939455,13.145524408530273,20.229621472939453,13.216031458530274Q20.142088172939452,13.286538508530274,20.07907462293945,13.379611611530274Q20.016061062939453,13.472684718530273,19.983105892939452,13.580142958530274Q19.950150732939452,13.687601208530273,19.950150732939452,13.799999238530273Q19.950150732939452,13.873852998530273,19.964558962939453,13.946287688530273Q19.978967072939454,14.018722418530274,20.007229682939453,14.086954358530274Q20.035492302939453,14.155186358530273,20.076523302939453,14.216593508530273Q20.117554242939452,14.278000708530273,20.169776732939454,14.330223198530273Q20.221999252939455,14.382445688530273,20.283406432939454,14.423476718530274Q20.34481358293945,14.464507618530273,20.413045582939453,14.492770218530273Q20.48127758293945,14.521032818530273,20.553712282939454,14.535440918530274Q20.626146979939453,14.549849318530274,20.700000762939453,14.549849318530274Q20.844408552939452,14.549849318530274,20.978487852939452,14.496217618530274L20.978543552939453,14.496356818530273L21.978543662939455,14.096357228530273L21.978487962939454,14.096217928530274Z" fill-rule="evenodd" fill="#111111" fill-opacity="1"/></svg>