<svg xmlns="http://www.w3.org/2000/svg" xmlns:xlink="http://www.w3.org/1999/xlink" fill="none" version="1.1" width="24" height="24" viewBox="0 0 24 24"><path d="M22.482493731536866,6.049237748968506Q22.199834731536864,5.615675248968506,21.727162731536865,5.405773848968506L13.140710731536865,1.4973885989685058Q12.597568731536866,1.2496428489685059,11.999999531536865,1.2496428489685059Q11.402431931536865,1.2496428489685059,10.858749831536866,1.497633518968506L2.289347651536865,5.397361248968506Q1.8215339315368653,5.603579048968506,1.5374935615368652,6.039248948968506Q1.2534537315368652,6.4749174489685055,1.2534537315368652,6.994999848968506Q1.2534537315368652,7.515082348968506,1.537493471536865,7.950751348968506Q1.8215334815368651,8.386420748968506,2.297409681536865,8.596250048968507L10.868988531536866,12.502474848968506Q11.412432231536865,12.750357848968505,12.009999731536865,12.750357848968505Q12.607565731536866,12.750357848968505,13.151250731536866,12.502365848968505L21.730351731536864,8.602775048968507Q22.198464731536866,8.396421448968507,22.482506731536866,7.960752948968506Q22.766545731536866,7.525084448968506,22.766545731536866,7.004999648968506Q22.766545731536866,6.484906648968506,22.482493731536866,6.049237748968506ZM12.519287731536865,2.8626115889685058L21.109288731536864,6.772611648968506L21.117408731536866,6.776250348968506Q21.185393731536866,6.806227248968506,21.225972731536864,6.868475448968506Q21.266545731536866,6.930705548968506,21.266545731536866,7.004999648968506Q21.266545731536866,7.079299448968506,21.225970731536865,7.141534848968506Q21.185391731536864,7.203773448968506,21.109647731536864,7.237225548968506L12.528749731536866,11.137633848968505Q12.281619731536866,11.250358148968505,12.009999731536865,11.250358148968505Q11.738380931536865,11.250358148968505,11.491011131536865,11.137524148968506L2.902590091536865,7.223750148968506Q2.834608431536865,7.193774748968506,2.794031321536865,7.131536448968506Q2.7534537315368652,7.069296848968506,2.7534537315368652,6.994999848968506Q2.7534537315368652,6.920702948968506,2.7940312015368653,6.858464248968506Q2.834608431536865,6.796225548968506,2.9106521615368655,6.762638548968506L11.481248331536865,2.862366618968506Q11.728377831536866,2.749642848968506,11.999999531536865,2.749642848968506Q12.271620731536865,2.749642848968506,12.519287731536865,2.8626115889685058Z" fill-rule="evenodd" fill="#111111" fill-opacity="1"/><path d="M2.749847650558472,12.0018554017L2.7498499705584716,12Q2.7498499105584715,11.926146217,2.7354418005584717,11.85371152Q2.721033570558472,11.78127682,2.6927709605584718,11.71304482Q2.6645083405584717,11.64481282,2.6234774005584716,11.58340567Q2.582446460558472,11.52199849,2.5302239705584717,11.46977597Q2.4780014205584715,11.41755348,2.4165942705584715,11.37652254Q2.3551871205584716,11.33549154,2.2869551205584715,11.30722892Q2.218723120558472,11.27896631,2.146288410558472,11.2645582Q2.0738537235584715,11.25014997,1.9999999403953717,11.25014997Q1.9262632725584716,11.25014997,1.8539389805584716,11.26451296Q1.7816146905584718,11.27887595,1.7134734405584717,11.30705154Q1.6453321605584716,11.335227249999999,1.5839843705584717,11.37613624Q1.5226365605584717,11.41704524,1.4704323405584718,11.46912032Q1.4182282105584716,11.5211955,1.3771675805584715,11.5824419Q1.3361069005584718,11.64368826,1.3077626805584717,11.7117596Q1.2794185305584715,11.77983093,1.2648766605584716,11.85211946Q1.2503347405584717,11.924407996,1.2501522305584718,11.9981444492L1.2500023205584716,11.9981440783Q1.2487338205584717,12.51076841,1.5242575405584717,12.94305557Q1.7997810405584718,13.375342400000001,2.2695878705584716,13.5927476L10.870624300558472,17.5032177Q11.411384300558472,17.748085,12.004998900558471,17.748085Q12.598615900558471,17.748085,13.140350900558472,17.5027747L21.71747490055847,13.604075Q22.19218290055847,13.3907049,22.47313790055847,12.9526031Q22.754089900558473,12.51450121,22.749973900558473,11.9940684098L22.74982690055847,11.9940695758Q22.749243900558472,11.920592338,22.73440990055847,11.84862563Q22.71957490055847,11.77665891,22.69105590055847,11.70894063Q22.662533900558472,11.64122242,22.621406900558473,11.58032894Q22.58028490055847,11.51943547,22.528122900558472,11.46768343Q22.475956900558472,11.41593146,22.414739900558473,11.375289800000001Q22.35352390055847,11.33464813,22.28558390055847,11.30666298Q22.21764090055847,11.27867794,22.14555990055847,11.26441395Q22.07347990055847,11.250150080000001,22.000000900558472,11.25014997Q21.926147900558473,11.25014997,21.85371090055847,11.2645582Q21.78127790055847,11.27896631,21.71304390055847,11.30722892Q21.644811900558473,11.33549154,21.58340490055847,11.37652254Q21.521999900558473,11.41755348,21.46977690055847,11.46977597Q21.41755390055847,11.52199849,21.37652290055847,11.58340567Q21.335491900558473,11.64481282,21.30722890055847,11.71304482Q21.27896590055847,11.78127682,21.264557900558472,11.85371152Q21.250149900558473,11.926146217,21.25015090055847,12L21.250173900558472,12.005930379L21.250021900558473,12.0059315902Q21.250608900558472,12.080277525,21.21047490055847,12.1428635Q21.17033990055847,12.20544371,21.10252490055847,12.23592523L12.519646900558472,16.1372247Q12.274823900558472,16.248085,12.004998900558471,16.248085Q11.735176800558472,16.248085,11.489375800558472,16.1367817L2.890411850558472,12.2272522Q2.828537640558472,12.198598520000001,2.7891771205584717,12.13684326Q2.7498164205584716,12.075087719,2.7499976205584717,12.0018557727L2.749847650558472,12.0018554017Z" fill-rule="evenodd" fill="#111111" fill-opacity="1"/><path d="M2.749847650558472,17.0018554017L2.7498499705584716,17Q2.7498499105584715,16.926146217,2.7354418005584717,16.85371152Q2.721033570558472,16.78127682,2.6927709605584718,16.71304482Q2.6645083405584717,16.64481282,2.6234774005584716,16.58340567Q2.582446460558472,16.52199849,2.5302239705584717,16.46977597Q2.4780014205584715,16.41755348,2.4165942705584715,16.37652254Q2.3551871205584716,16.33549154,2.2869551205584715,16.30722892Q2.218723120558472,16.27896631,2.146288410558472,16.2645582Q2.0738537235584715,16.25014997,1.9999999403953717,16.25014997Q1.9262632725584716,16.25014997,1.8539389805584716,16.26451296Q1.7816146905584718,16.27887595,1.7134734405584717,16.30705154Q1.6453321605584716,16.33522725,1.5839843705584717,16.37613624Q1.5226365605584717,16.41704524,1.4704323405584718,16.469120320000002Q1.4182282105584716,16.5211955,1.3771675805584715,16.5824419Q1.3361069005584718,16.64368826,1.3077626805584717,16.7117596Q1.2794185305584715,16.77983093,1.2648766605584716,16.85211946Q1.2503347405584717,16.924407996,1.2501522305584718,16.9981444492L1.2500023205584716,16.9981440783Q1.2487338205584717,17.51076841,1.5242575405584717,17.94305557Q1.7997810405584718,18.3753424,2.2695878705584716,18.5927476L10.870624300558472,22.5032177Q11.411384300558472,22.748085,12.004998900558471,22.748085Q12.598615900558471,22.748085,13.140350900558472,22.5027747L21.71747490055847,18.604075Q22.19218290055847,18.3907049,22.47313790055847,17.9526031Q22.754089900558473,17.51450121,22.749973900558473,16.9940684098L22.74982690055847,16.9940695758Q22.749243900558472,16.920592338,22.73440990055847,16.84862563Q22.71957490055847,16.77665891,22.69105590055847,16.70894063Q22.662533900558472,16.64122242,22.621406900558473,16.58032894Q22.58028490055847,16.51943547,22.528122900558472,16.46768343Q22.475956900558472,16.41593146,22.414739900558473,16.3752898Q22.35352390055847,16.33464813,22.28558390055847,16.30666298Q22.21764090055847,16.27867794,22.14555990055847,16.26441395Q22.07347990055847,16.25015008,22.000000900558472,16.25014997Q21.926147900558473,16.25014997,21.85371090055847,16.2645582Q21.78127790055847,16.27896631,21.71304390055847,16.30722892Q21.644811900558473,16.33549154,21.58340490055847,16.37652254Q21.521999900558473,16.41755348,21.46977690055847,16.46977597Q21.41755390055847,16.52199849,21.37652290055847,16.58340567Q21.335491900558473,16.64481282,21.30722890055847,16.71304482Q21.27896590055847,16.78127682,21.264557900558472,16.85371152Q21.250149900558473,16.926146217,21.25015090055847,17L21.250173900558472,17.005930379L21.250021900558473,17.0059315902Q21.250608900558472,17.080277525,21.21047490055847,17.1428635Q21.17033990055847,17.20544371,21.10252490055847,17.23592523L12.519646900558472,21.1372247Q12.274823900558472,21.248085,12.004998900558471,21.248085Q11.735176800558472,21.248085,11.489375800558472,21.1367817L2.890411850558472,17.2272522Q2.828537640558472,17.19859852,2.7891771205584717,17.13684326Q2.7498164205584716,17.075087719,2.7499976205584717,17.0018557727L2.749847650558472,17.0018554017Z" fill-rule="evenodd" fill="#111111" fill-opacity="1"/></svg>