<svg xmlns="http://www.w3.org/2000/svg" xmlns:xlink="http://www.w3.org/1999/xlink" fill="none" version="1.1" width="24" height="24" viewBox="0 0 24 24"><path d="M11.25014997,2Q11.25014997,1.9261462169999999,11.2645582,1.85371152Q11.27896631,1.78127682,11.30722892,1.71304482Q11.33549154,1.64481282,11.37652254,1.5834056699999999Q11.41755348,1.52199849,11.46977597,1.4697759700000002Q11.52199849,1.41755348,11.58340567,1.3765225399999999Q11.64481282,1.33549154,11.71304482,1.30722892Q11.78127682,1.27896631,11.85371152,1.2645582Q11.926146217,1.25014997,12,1.25014997Q12.073853783,1.25014997,12.14628848,1.2645582Q12.21872318,1.27896631,12.28695518,1.30722892Q12.35518718,1.33549154,12.41659433,1.3765225399999999Q12.47800151,1.41755348,12.53022403,1.4697759700000002Q12.58244652,1.52199849,12.62347746,1.5834056699999999Q12.66450846,1.64481282,12.69277108,1.71304482Q12.72103369,1.78127682,12.7354418,1.85371152Q12.74985003,1.9261462169999999,12.74985003,2L12.75,2L12.75,22L12.74985003,22Q12.74985003,22.073853,12.7354418,22.146288Q12.72103369,22.218721,12.69277108,22.286953Q12.66450846,22.355185,12.62347746,22.416592Q12.58244652,22.477999,12.53022403,22.530222Q12.47800151,22.582443,12.41659433,22.623474Q12.35518718,22.664505,12.28695518,22.692768Q12.21872318,22.721031,12.14628848,22.735439Q12.073853783,22.749847,12,22.749849Q11.926146217,22.749847,11.85371152,22.735439Q11.78127682,22.721031,11.71304482,22.692768Q11.64481282,22.664505,11.58340567,22.623474Q11.52199849,22.582443,11.46977597,22.530222Q11.41755348,22.477999,11.37652254,22.416592Q11.33549154,22.355185,11.30722892,22.286953Q11.27896631,22.218721,11.2645582,22.146286Q11.25014997,22.073853,11.25014997,22L11.25,22L11.25,2L11.25014997,2Z" fill-rule="evenodd" fill="#111111" fill-opacity="1"/><path d="M8.46977597,19.53022403Q8.36430788,19.42475593,8.30722892,19.28695518Q8.25014997,19.14915444,8.25014997,19Q8.25014997,18.926146217,8.2645582,18.85371152Q8.27896631,18.78127682,8.30722892,18.71304482Q8.33549154,18.64481282,8.37652254,18.58340567Q8.41755348,18.52199849,8.46977597,18.46977597Q8.52199849,18.41755348,8.58340567,18.37652254Q8.64481282,18.33549154,8.71304482,18.30722892Q8.78127682,18.27896631,8.85371152,18.2645582Q8.926146217,18.25014997,9,18.25014997Q9.14915444,18.25014997,9.28695518,18.30722886Q9.42475593,18.36430788,9.53022403,18.46977597L9.53033006,18.46966994L12,20.9393398L14.4696703,18.46966994L14.4697762,18.46977568Q14.5752439,18.3643077,14.7130446,18.30722886Q14.8508453,18.25014997,15,18.25014997Q15.0738535,18.25014997,15.1462879,18.2645582Q15.2187223,18.27896631,15.286954399999999,18.30722892Q15.3551865,18.33549154,15.416593599999999,18.37652254Q15.4780011,18.41755348,15.5302238,18.46977597Q15.5824461,18.52199849,15.623477000000001,18.58340567Q15.6645079,18.64481282,15.692771,18.71304482Q15.7210331,18.78127682,15.7354412,18.85371152Q15.7498503,18.926146217,15.7498503,19Q15.7498503,19.14915453,15.692771,19.28695536Q15.635691600000001,19.42475617,15.5302238,19.53022432L15.5303297,19.53033006L12.5303299,22.530329899999998Q12.4248407,22.635819,12.2870126,22.6929095Q12.1491842,22.75,12.0000002,22.7500002Q11.850816,22.75,11.7129874,22.6929097Q11.5751591,22.6358192,11.4696698,22.530329899999998L8.46966994,19.53033006L8.46977597,19.53022403Z" fill-rule="evenodd" fill="#111111" fill-opacity="1"/><path d="M18.46977597,9.53022403Q18.36430788,9.42475593,18.30722892,9.28695518Q18.25014997,9.14915444,18.25014997,9Q18.25014997,8.926146217,18.2645582,8.85371152Q18.27896631,8.78127682,18.30722892,8.71304482Q18.33549154,8.64481282,18.37652254,8.58340567Q18.41755348,8.52199849,18.46977597,8.46977597Q18.52199849,8.41755348,18.58340567,8.37652254Q18.64481282,8.33549154,18.71304482,8.30722892Q18.78127682,8.27896631,18.85371152,8.2645582Q18.926146217,8.25014997,19,8.25014997Q19.14915444,8.25014997,19.28695518,8.30722886Q19.42475593,8.36430788,19.53022403,8.46977597L19.53033006,8.46966994L22.530329899999998,11.4696698Q22.6358192,11.5751591,22.6929097,11.7129872Q22.75,11.8508153,22.75,11.9999998Q22.75,12.1491842,22.6929097,12.2870126Q22.6358192,12.4248409,22.530329899999998,12.5303299L19.53033006,15.5303297L19.53022432,15.5302238Q19.42475617,15.635691600000001,19.28695536,15.692771Q19.14915453,15.7498503,19,15.7498503Q18.926146217,15.7498503,18.85371152,15.735441699999999Q18.78127682,15.7210331,18.71304482,15.6927705Q18.64481282,15.6645079,18.58340567,15.623477000000001Q18.52199849,15.5824461,18.46977597,15.5302238Q18.41755348,15.4780011,18.37652254,15.416594Q18.33549154,15.3551865,18.30722892,15.2869549Q18.27896631,15.2187228,18.2645582,15.1462879Q18.25014997,15.0738535,18.25014997,15Q18.25014997,14.8508453,18.3072288,14.7130446Q18.3643077,14.5752439,18.46977568,14.4697762L18.46966994,14.4696703L20.9393398,12L18.46966994,9.53033006L18.46977597,9.53022403Z" fill-rule="evenodd" fill="#111111" fill-opacity="1"/><path d="M2,12.75L22,12.75L22,12.74985003Q22.073853,12.74985003,22.146288,12.7354418Q22.218721,12.72103369,22.286953,12.69277108Q22.355185,12.66450846,22.416592,12.62347746Q22.477999,12.58244652,22.530222,12.53022403Q22.582443,12.47800151,22.623474,12.41659433Q22.664505,12.35518718,22.692768,12.28695518Q22.721031,12.21872318,22.735439,12.14628848Q22.749847,12.073853783,22.749849,12Q22.749847,11.926146217,22.735439,11.85371152Q22.721031,11.78127682,22.692768,11.71304482Q22.664505,11.64481282,22.623474,11.58340567Q22.582443,11.52199849,22.530222,11.46977597Q22.477999,11.41755348,22.416592,11.37652254Q22.355185,11.33549154,22.286953,11.30722892Q22.218721,11.27896631,22.146286,11.2645582Q22.073853,11.25014997,22,11.25014997L22,11.25L2,11.25L2,11.25014997Q1.9261462169999999,11.25014997,1.85371152,11.2645582Q1.78127682,11.27896631,1.71304482,11.30722892Q1.64481282,11.33549154,1.5834056699999999,11.37652254Q1.52199849,11.41755348,1.4697759700000002,11.46977597Q1.41755348,11.52199849,1.3765225399999999,11.58340567Q1.33549154,11.64481282,1.30722892,11.71304482Q1.27896631,11.78127682,1.2645582,11.85371152Q1.25014997,11.926146217,1.25014997,12Q1.25014997,12.073853783,1.2645582,12.14628848Q1.27896631,12.21872318,1.30722892,12.28695518Q1.33549154,12.35518718,1.3765225399999999,12.41659433Q1.41755348,12.47800151,1.4697759700000002,12.53022403Q1.52199849,12.58244652,1.5834056699999999,12.62347746Q1.64481282,12.66450846,1.71304482,12.69277108Q1.78127682,12.72103369,1.85371152,12.7354418Q1.9261462169999999,12.74985003,2,12.74985003L2,12.75Z" fill-rule="evenodd" fill="#111111" fill-opacity="1"/><path d="M5.5302241,9.53022408Q5.6356921,9.42475599,5.6927712,9.28695524Q5.74985,9.14915447,5.74985,9Q5.7498498,8.926146217,5.7354417,8.85371152Q5.7210336,8.78127682,5.6927707000000005,8.71304482Q5.6645081,8.64481282,5.623476999999999,8.58340567Q5.5824461,8.52199849,5.5302238,8.46977597Q5.4780011,8.41755348,5.416594,8.37652254Q5.3551869,8.33549154,5.2869549,8.30722892Q5.2187228,8.27896631,5.1462882,8.2645582Q5.0738535,8.25014997,5,8.25014997Q4.8508455999999995,8.25014997,4.7130446,8.30722892Q4.5752439,8.36430788,4.4697759,8.46977603L4.4696698,8.46966994L1.46966994,11.4696698Q1.41743702,11.5219026,1.37639785,11.583321999999999Q1.3353586800000001,11.6447415,1.3070903999999999,11.7129872Q1.2788221800000001,11.7812328,1.26441115,11.8536818Q1.2500001200000002,11.9261312,1.25000006,11.9999998Q1.2500001200000002,12.0738683,1.2644110899999998,12.1463172Q1.2788221800000001,12.218766500000001,1.3070903999999999,12.2870121Q1.3353586800000001,12.355258,1.37639785,12.4166775Q1.41743702,12.478097,1.46966994,12.5303299L4.4696698,15.5303297L4.4697757,15.5302238Q4.5752435,15.635691600000001,4.7130446,15.692771Q4.8508453,15.7498498,5,15.7498503Q5.0738535,15.7498503,5.1462882,15.735441699999999Q5.2187228,15.7210331,5.2869549,15.6927705Q5.3551869,15.6645079,5.416594,15.623477000000001Q5.4780011,15.5824461,5.5302238,15.5302238Q5.5824461,15.4780011,5.623476999999999,15.416594Q5.6645079,15.3551865,5.6927705,15.2869549Q5.7210333,15.2187228,5.7354414,15.1462879Q5.7498498,15.0738535,5.74985,15Q5.7498498,14.8508453,5.6927710000000005,14.7130446Q5.6356921,14.5752439,5.5302243,14.4697762L5.5303299,14.4696703L3.0606600999999998,12L5.5303299,9.53033006L5.5302241,9.53022408Z" fill-rule="evenodd" fill="#111111" fill-opacity="1"/><path d="M12,3.0606600999999998L14.4696703,5.5303299L14.4697762,5.5302243Q14.5752439,5.6356921,14.7130446,5.6927710000000005Q14.8508453,5.7498498,15,5.74985Q15.0738535,5.7498498,15.1462879,5.7354417Q15.2187223,5.7210336,15.286954399999999,5.6927707000000005Q15.3551865,5.6645081,15.416593599999999,5.623476999999999Q15.4780011,5.5824461,15.5302238,5.5302238Q15.5824461,5.4780011,15.623477000000001,5.416594Q15.6645079,5.3551869,15.692771,5.2869549Q15.7210331,5.2187228,15.7354412,5.1462882Q15.7498503,5.0738535,15.7498503,5Q15.7498498,4.8508453,15.6927705,4.7130446Q15.635691600000001,4.5752435,15.5302238,4.4697757L15.5303297,4.4696698L12.5303299,1.46966994Q12.478097,1.41743702,12.4166775,1.37639785Q12.355258,1.3353586800000001,12.2870121,1.3070903999999999Q12.2187667,1.2788221800000001,12.1463175,1.26441115Q12.0738683,1.2500001200000002,12,1.25000006Q11.9261312,1.2500001200000002,11.853682,1.2644110899999998Q11.7812326,1.2788221800000001,11.7129869,1.3070903999999999Q11.6447415,1.3353586800000001,11.583321999999999,1.37639785Q11.5219026,1.41743702,11.4696698,1.46966994L8.46966994,4.4696698L8.46977603,4.4697759Q8.36430788,4.5752439,8.30722892,4.7130446Q8.25014997,4.8508455999999995,8.25014997,5Q8.25014997,5.0738535,8.2645582,5.1462882Q8.27896631,5.2187228,8.30722892,5.2869549Q8.33549154,5.3551869,8.37652254,5.416594Q8.41755348,5.4780011,8.46977597,5.5302238Q8.52199849,5.5824461,8.58340567,5.623476999999999Q8.64481282,5.6645079,8.71304482,5.6927705Q8.78127682,5.7210333,8.85371152,5.7354414Q8.926146217,5.7498498,9,5.74985Q9.14915447,5.74985,9.28695524,5.6927712Q9.42475599,5.6356921,9.53022408,5.5302241L9.53033006,5.5303299L12,3.0606600999999998Z" fill-rule="evenodd" fill="#111111" fill-opacity="1"/></svg>