<svg width="24" height="24" viewBox="0 0 24 24" fill="none" xmlns="http://www.w3.org/2000/svg">
<path d="M9.00083 12L5.41483 12C5.21708 12 5.02378 11.9413 4.85937 11.8314C4.69496 11.7215 4.56682 11.5654 4.49115 11.3827C4.41548 11.2 4.39567 10.9989 4.43424 10.805C4.47281 10.611 4.56802 10.4329 4.70783 10.293L11.2938 3.707C11.4814 3.51953 11.7357 3.41421 12.0008 3.41421C12.266 3.41421 12.5203 3.51953 12.7078 3.707L19.2938 10.293C19.4336 10.4329 19.5288 10.611 19.5674 10.805C19.606 10.9989 19.5862 11.2 19.5105 11.3827C19.4348 11.5654 19.3067 11.7215 19.1423 11.8314C18.9779 11.9413 18.7846 12 18.5868 12L15.0008 12L15.0008 15L9.00083 15L9.00083 12Z" stroke="white" stroke-width="1.71429" stroke-linecap="round" stroke-linejoin="round"/>
<path d="M9 21L15 21" stroke="white" stroke-width="1.71429" stroke-linecap="round" stroke-linejoin="round"/>
<path d="M9 18L15 18" stroke="white" stroke-width="1.71429" stroke-linecap="round" stroke-linejoin="round"/>
</svg>
