<svg xmlns="http://www.w3.org/2000/svg" xmlns:xlink="http://www.w3.org/1999/xlink" fill="none" version="1.1" width="18" height="18" viewBox="0 0 18 18"><path d="M3,14.25L3,15.75L3.00014997,15.75Q3.00014997,15.8238535,3.0145581999999997,15.8962884Q3.02896631,15.9687228,3.05722892,16.036954899999998Q3.08549154,16.105186500000002,3.12652254,16.166594Q3.16755348,16.2280011,3.21977597,16.2802238Q3.27199849,16.3324461,3.33340567,16.373477Q3.39481282,16.4145079,3.46304482,16.442771Q3.53127682,16.471034,3.60371152,16.4854422Q3.676146217,16.4998503,3.75,16.4998503Q3.823853783,16.4998503,3.89628848,16.4854422Q3.96872318,16.471034,4.03695518,16.442771Q4.10518718,16.4145079,4.16659433,16.373477Q4.22800151,16.3324461,4.28022403,16.2802238Q4.3324465199999995,16.2280011,4.37347746,16.166594Q4.41450846,16.105186500000002,4.44277108,16.036954899999998Q4.47103369,15.9687228,4.4854418,15.8962879Q4.49985003,15.8238535,4.49985003,15.75L4.5,15.75L4.5,14.25Q4.5,13.3180196,5.1590096,12.6590103Q5.8180198999999995,12,6.75,12.00000012L11.25,12Q12.1819801,12,12.8409891,12.659009900000001Q13.499999,13.3180211,13.499999,14.2499998L13.499999,15.75L13.5001497,15.75Q13.5001488,15.8238535,13.5145569,15.8962884Q13.528965,15.9687228,13.5572271,16.036954899999998Q13.5854902,16.105186500000002,13.6265211,16.166594Q13.6675529,16.2280011,13.7197752,16.2802238Q13.771997,16.3324461,13.833405,16.373477Q13.894812,16.4145079,13.963044,16.442771Q14.031277,16.471034,14.103711,16.4854422Q14.176146,16.4998503,14.25,16.4998503Q14.323853,16.4998503,14.396288,16.4854422Q14.468722,16.471034,14.536955,16.442771Q14.605186,16.4145079,14.666594,16.373477Q14.728001,16.3324461,14.780224,16.2802238Q14.832446,16.2280011,14.873477,16.166594Q14.914507,16.105186500000002,14.94277,16.036954899999998Q14.971033,15.9687228,14.985441,15.8962879Q14.999849,15.8238535,14.99985,15.75L15,15.75L15,14.2499998Q15,12.6967016,13.90165,11.59835047Q12.8033018,10.5,11.25,10.5L6.75,10.50000006Q5.1966996000000005,10.50000006,4.0983494799999995,11.598349989999999Q3,12.6966991,3,14.25Z" fill-rule="evenodd" fill="#D1D5DB" fill-opacity="1"/><path d="M11.651650400000001,2.59834963Q10.5533009,1.5,9,1.5Q7.4466994,1.50000018,6.34834963,2.59834975Q5.25,3.6966994,5.25000018,5.25Q5.25000018,6.8033009,6.34834975,7.9016504Q7.4466994,9,9,9Q10.5533009,9,11.651650400000001,7.9016504Q12.75,6.8033009,12.75,5.25Q12.75,3.6966991,11.651650400000001,2.59834963ZM7.4090098,3.6590099Q8.0680196,3.00000018,9,3.00000018Q9.9319806,3,10.5909905,3.6590097999999998Q11.25,4.3180194,11.25,5.25Q11.25,6.1819811,10.5909905,6.8409905Q9.9319811,7.5,9,7.5Q8.0680194,7.5,7.4090099,6.8409905Q6.75000018,6.1819806,6.75000018,5.25Q6.75,4.3180195999999995,7.4090098,3.6590099Z" fill-rule="evenodd" fill="#D1D5DB" fill-opacity="1"/></svg>