<svg width="57" height="56" viewBox="0 0 57 56" fill="none" xmlns="http://www.w3.org/2000/svg">
<path d="M5.3125 15.0938C5.3125 14.6296 5.49687 14.1845 5.82506 13.8563C6.15325 13.5281 6.59837 13.3437 7.0625 13.3438H49.9375C50.4016 13.3438 50.8467 13.5281 51.1749 13.8563C51.5031 14.1845 51.6875 14.6296 51.6875 15.0938V44.4062C51.6875 45.7986 51.1344 47.134 50.1498 48.1186C49.1652 49.1031 47.8299 49.6562 46.4375 49.6562H10.5625C9.17011 49.6562 7.83476 49.1031 6.85019 48.1186C5.86562 47.134 5.3125 45.7986 5.3125 44.4062V15.0938ZM8.8125 16.8438V44.4062C8.8125 44.8704 8.99687 45.3155 9.32506 45.6437C9.65325 45.9719 10.0984 46.1562 10.5625 46.1562H46.4375C46.9016 46.1562 47.3467 45.9719 47.6749 45.6437C48.0031 45.3155 48.1875 44.8704 48.1875 44.4062V16.8438H8.8125Z" fill="#FF6A00"/>
<path d="M9.021 8.32475C9.49509 7.52122 10.1706 6.8553 10.9809 6.39279C11.7911 5.93027 12.708 5.68717 13.641 5.6875H43.3595C44.2925 5.68717 45.2094 5.93027 46.0196 6.39279C46.8299 6.8553 47.5054 7.52122 47.9795 8.32475L51.4445 14.2047C51.6012 14.4705 51.6849 14.7729 51.6871 15.0814C51.6893 15.3899 51.6098 15.6935 51.4569 15.9615C51.3039 16.2294 51.0828 16.4521 50.816 16.607C50.5493 16.762 50.2463 16.8436 49.9377 16.8438H7.06275C6.75417 16.8438 6.45106 16.7622 6.18416 16.6074C5.91725 16.4525 5.69605 16.2298 5.54298 15.9618C5.38991 15.6939 5.31041 15.3902 5.31254 15.0817C5.31467 14.7731 5.39836 14.4706 5.55512 14.2047L9.021 8.32475ZM13.641 9.1875C12.9795 9.1875 12.3696 9.53662 12.0362 10.1027L10.1261 13.3438H46.8744L44.9642 10.1027C44.7995 9.82376 44.5648 9.59259 44.2834 9.43207C44.0019 9.27156 43.6835 9.18726 43.3595 9.1875H13.641ZM28.5002 23.8438C26.5277 23.8438 24.6359 24.6273 23.2411 26.0221C21.8463 27.4169 21.0627 29.3087 21.0627 31.2812C21.0627 33.2538 21.8463 35.1456 23.2411 36.5404C24.6359 37.9352 26.5277 38.7188 28.5002 38.7188C30.4728 38.7188 32.3646 37.9352 33.7594 36.5404C35.1542 35.1456 35.9377 33.2538 35.9377 31.2812C35.9377 29.3087 35.1542 27.4169 33.7594 26.0221C32.3646 24.6273 30.4728 23.8438 28.5002 23.8438ZM17.5627 31.2812C17.5627 25.2402 22.4592 20.3438 28.5002 20.3438C34.5412 20.3438 39.4377 25.2402 39.4377 31.2812C39.4377 37.3223 34.5412 42.2188 28.5002 42.2188C22.4592 42.2188 17.5627 37.3223 17.5627 31.2812Z" fill="#FF6A00"/>
<path d="M28.5 25.5938C28.9641 25.5938 29.4092 25.7781 29.7374 26.1063C30.0656 26.4345 30.25 26.8796 30.25 27.3438V31.2812C30.25 31.7454 30.0656 32.1905 29.7374 32.5187C29.4092 32.8469 28.9641 33.0312 28.5 33.0312C28.0359 33.0312 27.5908 32.8469 27.2626 32.5187C26.9344 32.1905 26.75 31.7454 26.75 31.2812V27.3438C26.75 26.8796 26.9344 26.4345 27.2626 26.1063C27.5908 25.7781 28.0359 25.5938 28.5 25.5938Z" fill="#FF6A00"/>
<path d="M34.1875 31.2812C34.1875 31.7454 34.0031 32.1905 33.6749 32.5187C33.3467 32.8469 32.9016 33.0312 32.4375 33.0312H28.5C28.0359 33.0312 27.5908 32.8469 27.2626 32.5187C26.9344 32.1905 26.75 31.7454 26.75 31.2812C26.75 30.8171 26.9344 30.372 27.2626 30.0438C27.5908 29.7156 28.0359 29.5312 28.5 29.5312H32.4375C32.9016 29.5312 33.3467 29.7156 33.6749 30.0438C34.0031 30.372 34.1875 30.8171 34.1875 31.2812Z" fill="#FF6A00"/>
</svg>
